<?xml version="1.0" encoding="utf-8"?>
<!-- Generator: Adobe Illustrator 15.1.0, SVG Export Plug-In . SVG Version: 6.00 Build 0)  -->
<!DOCTYPE svg PUBLIC "-//W3C//DTD SVG 1.1//EN" "http://www.w3.org/Graphics/SVG/1.1/DTD/svg11.dtd">
<svg version="1.1" id="Layer_1" xmlns="http://www.w3.org/2000/svg" xmlns:xlink="http://www.w3.org/1999/xlink" x="0px" y="0px"
	 width="68.21px" height="69.743px" viewBox="0 0 68.21 69.743" enable-background="new 0 0 68.21 69.743" xml:space="preserve">
<path fill="#FFFFFF" d="M51.38,43.902c-9.523-1.106-2.181-19.079-7.087-24.804c0.104-2.552,3.774-1.539,3.543-4.43
	c-0.768-3.396-5.187-1.471-5.312,0.883c-4.598-2.443-12.829-4.202-15.948,0.884c-1.805-0.552-0.247-4.474-3.544-3.544
	c-1.162,0.313-1.392,1.564-2.656,1.773c-0.853,3.216,3.978,0.743,3.543,3.544c-4.462,6.913,4.037,24.118-7.086,25.689
	C15.878,21.694,15.269,1.973,33.661,1.375C52.386,0.773,55.031,21.658,51.38,43.902z"/>
<path fill="#FFFFFF" d="M31.89,23.529c-0.247,2.021,0.215,3.327,1.771,3.543c3.297,0.934,1.739-2.988,3.545-3.543
	c1.587-0.112,1.867,1.085,3.544,0.883c0.706,9.008-14.049,9.293-13.288,0C29.596,24.78,29.388,22.793,31.89,23.529z"/>
<path fill="#FFFFFF" d="M39.863,35.042c-2.097,2.04-7.95,0.317-11.517,0.887C31.34,33.405,35.637,34.515,39.863,35.042z"/>
<path fill="#FFFFFF" d="M27.462,53.645c-2.042-12.576,11.882-9.898,11.515-2.657C38.731,55.847,31.967,58.814,27.462,53.645z
	 M29.233,52.761c1.561,2.325,6.41,2.325,7.973,0c0.639-2.707-0.908-3.226-0.887-5.312C32.414,45.398,27.963,47.07,29.233,52.761z"/>
<path d="M36.319,47.445c-0.018,2.087,1.528,2.606,0.887,5.313c-1.562,2.325-6.412,2.325-7.973,0
	C27.963,47.07,32.414,45.398,36.319,47.445z"/>
<path d="M54.036,43.902c2.956,1.153,4.664-6.535,5.316-10.63c-1.156-2.689-3.73-3.951-4.43-7.087
	c0.671-3.172,2.048-5.63,5.313-6.207c2.141,2.13-2.148,2.351-0.884,6.207c1.179,0,2.361,0,3.544,0c3.41-2.127-0.407-2.613,0-6.207
	c3.846-0.299,4.646,2.44,5.313,5.316c-2.397,5.818-4.773,9.74-1.771,16.83c-7.934,5.501-12.894,12.987-10.63,26.577
	c-2.087-0.018-2.609,1.525-5.316,0.887c-2.311-3.299-2.059-9.163-6.2-10.63c1.104,3.133,2.329,10.98-2.656,10.63
	c-6.285-0.875-2.88-10.147-7.089-10.63c-3.982-0.457-3.613,6.755-6.201,10.63c-1.477,0-2.952,0-4.429,0
	c-1.697-2.141-0.559-7.119-0.887-10.63c-3.363,1.954-3.451,7.177-5.314,10.63c-1.477,0-2.952,0-4.429,0
	c-2.613-1.752-2.289-8.738,0-10.63C9.065,53.728,8.449,44.893,1.771,42.121C3.953,35.247,3.41,31.217,0,26.181
	c0.265-3.575,1.307-6.376,5.315-6.207c0.944,3.31-2.201,2.53-1.771,5.317c1.025,0.742,2.377,1.168,4.428,0.887
	c2.68-1.341-0.734-3.894,0-6.207c3.691,0.443,4.574,3.694,5.316,7.09c-1.296,1.954-2.873,3.623-4.43,5.313
	c0.874,4.736,0.789,10.432,5.314,11.517c1.307-20.186-1.004-40.357,15.945-43.407C52.738-3.574,56.336,18.482,54.036,43.902z
	 M33.661,1.382C15.272,1.977,15.882,21.701,16.832,43.905c11.123-1.571,2.624-18.775,7.086-25.689
	c0.435-2.801-4.396-0.328-3.543-3.543c1.262-0.213,1.494-1.464,2.656-1.773c3.297-0.931,1.739,2.991,3.544,3.543
	c3.123-5.086,11.351-3.327,15.948-0.883c0.126-2.357,4.545-4.279,5.312-0.884c0.231,2.892-3.438,1.878-3.543,4.431
	c4.906,5.724-2.437,23.696,7.087,24.803C55.031,21.658,52.386,0.773,33.661,1.382z M27.462,24.412
	c-0.761,9.293,13.994,9.008,13.288,0c-1.677,0.202-1.957-0.998-3.544-0.883c-1.809,0.555-0.248,4.477-3.545,3.543
	c-1.557-0.216-2.019-1.521-1.771-3.543C29.388,22.793,29.596,24.78,27.462,24.412z M28.347,35.928
	c3.566-0.569,9.42,1.153,11.517-0.887C35.637,34.515,31.34,33.405,28.347,35.928z M4.428,42.131c2.779,0.984,2.341,0.411,4.43-0.883
	c-0.106-2.256-1.289-3.442-3.543-3.547C4.569,38.729,4.149,40.074,4.428,42.131z M59.353,41.245c2.088,1.298,1.647,1.867,4.431,0.88
	C65.229,36.512,59.141,36.952,59.353,41.245z M38.977,50.988c0.367-7.241-13.557-9.919-11.515,2.657
	C31.967,58.814,38.731,55.847,38.977,50.988z M13.288,52.761c1.759,0.015,1.125,2.415,3.544,1.771
	c3.217-0.029,3.889-2.606,3.543-6.2C17.322,45.343,12.376,47.016,13.288,52.761z M46.949,54.532c3.598,0.35,6.172-0.324,6.2-3.544
	C52.147,43.66,42.743,47.758,46.949,54.532z"/>
<path fill="#FFFFFF" d="M5.315,37.702c2.255,0.104,3.437,1.291,3.543,3.547c-2.089,1.298-1.651,1.867-4.43,0.883
	C4.149,40.074,4.569,38.729,5.315,37.702z"/>
<path fill="#FFFFFF" d="M63.783,42.131c-2.783,0.984-2.343,0.411-4.431-0.883C59.141,36.952,65.229,36.512,63.783,42.131z"/>
<path fill="#FFFFFF" d="M20.375,48.332c0.346,3.594-0.326,6.171-3.543,6.2c-2.419,0.645-1.785-1.759-3.544-1.771
	C12.376,47.016,17.322,45.343,20.375,48.332z"/>
<path fill="#FFFFFF" d="M53.149,50.988c-0.028,3.22-2.603,3.894-6.2,3.544C42.743,47.758,52.147,43.66,53.149,50.988z"/>
</svg>
