<?xml version="1.0" encoding="utf-8"?>
<!-- Generator: Adobe Illustrator 15.1.0, SVG Export Plug-In . SVG Version: 6.00 Build 0)  -->
<!DOCTYPE svg PUBLIC "-//W3C//DTD SVG 1.1//EN" "http://www.w3.org/Graphics/SVG/1.1/DTD/svg11.dtd">
<svg version="1.1" id="Layer_1" xmlns="http://www.w3.org/2000/svg" xmlns:xlink="http://www.w3.org/1999/xlink" x="0px" y="0px"
	 width="57.009px" height="58.937px" viewBox="0 0 57.009 58.937" enable-background="new 0 0 57.009 58.937" xml:space="preserve">
<path d="M25.341,9.546c-3.521,1.292-0.409,5.735,0,7.919c3.521,0.619,4.746-1.057,7.916-0.792c3.65-5.816,7.41-20.705,16.625-13.462
	c1.817,15.923-15.665-1.385-13.461,13.462c2.185,2.046,6.869,1.578,7.133,5.541c-3.122-1.012-2.055,2.169-3.17,3.167
	c-1.076-0.244-0.657-1.981-0.793-3.167c-2.223-0.116-2.28,1.937-2.371,3.96c-1.63-0.219-0.747-2.951-2.378-3.167
	c-2.023,0.087-1.572,2.651-1.585,4.749c-1.495-0.084-0.548-2.616-2.371-2.375c-0.374,4.688-3.261,1.976-3.963,6.335
	c1.826,0.737,7.227-1.721,11.879-0.793c-3.995,2.604-9.939,3.261-11.879,7.92c0.889,5.51,4.159-0.561,4.752,4.752
	c2.867,0.754,0.806-3.418,2.375-3.96c1.463,0.119,0.486,2.681,1.582,3.168c1.729-0.116,1.704-1.995,1.582-3.96
	c1.169,2.636,3.766,2.993,3.17-1.582c1.276,2.31,1.946,0.866,4.749,0.789c-6.27,10.629,11.328,9.312,11.876,18.214
	c-0.767,0.022-0.615,0.97-0.792,1.582c-6.557,1.018-6.206-4.878-9.499-7.127c-1.282-0.219-1.366,0.751-2.377,0.793
	c-0.175,2.552,1.397,3.354,0.792,6.334c-6.792,4.236-4.891-5.158-8.712-6.334c-2.797,1.82,0.258,4.858-2.378,7.126
	c-6.257,1.183-3.772-4.755-4.749-7.126c-4.697-0.738-2.98,4.936-4.749,7.126c-1.837,0.252-3.042-0.128-3.957-0.792
	c-0.387-2.497,1.428-2.797,0.79-5.542c-4.138,0.419-2.791,8.509-7.917,5.542c-1.727-1.656,0.394-2.259,0-4.749
	C7.494,52.746,5.11,60.533,0,56.265C2.371,48.867,14.267,51,12.669,39.636c-0.776-1.862-3.963-1.314-3.957-3.959
	c2.887,0.515,4.215-0.535,5.542-1.586c-0.982-1.655-2.301-2.974-3.957-3.956c0.493-1.882,4.875,0.122,5.542-1.585
	c-0.477-2.955-2.977-3.883-3.167-7.127c1.23,1.146,3.695,1.057,4.752,2.377c3.271-1.121,1.299-2.561,1.579-6.334
	c1.617,0.229,1.553,2.14,3.167,2.375c1.55-4.285-1.34-15.224,3.171-19.003C37.123-4.366,34.961,16.667,25.341,9.546z M24.551,6.379
	c1.16,1.743,2.095,3.708,5.542,3.167c2.266-1.192,2.978-4.404,1.582-7.127C28.308,0.712,24.293,2.165,24.551,6.379z M41.177,7.961
	c1.675,0.706,2.339,2.413,4.749,2.377c2.259-1.35,4.092-4.001,2.378-7.127C44.718,1.437,39.83,2.471,41.177,7.961z"/>
<path fill="#FFFFFF" d="M48.304,3.212c1.714,3.125-0.119,5.777-2.378,7.127c-2.41,0.035-3.08-1.672-4.749-2.377
	C39.83,2.471,44.718,1.437,48.304,3.212z M44.347,7.961c1.998,0.834,3.506-2.668,1.579-3.167c-0.335,3.809-0.29-0.944-2.378,0
	C43.493,6.173,43.731,7.256,44.347,7.961z"/>
<path d="M30.093,5.587c0,0.528,0,1.057,0,1.585c-1.656,0.335-2.101-0.544-3.17-0.792c-0.142-1.727,0.65-2.517,2.378-2.375
	C27.709,6.763,29.648,3.937,30.093,5.587z"/>
<path d="M43.554,4.794c2.088-0.944,2.043,3.809,2.375,0c1.927,0.5,0.419,4.002-1.582,3.167C43.731,7.256,43.493,6.173,43.554,4.794z
	"/>
<path fill="#FFFFFF" d="M31.675,2.419c1.396,2.719,0.68,5.935-1.582,7.127c-3.447,0.542-4.382-1.424-5.542-3.167
	C24.293,2.165,28.308,0.712,31.675,2.419z M29.301,4.005c-1.728-0.142-2.52,0.644-2.378,2.375c1.069,0.251,1.514,1.127,3.17,0.792
	c0-0.528,0-1.057,0-1.585C29.648,3.937,27.709,6.763,29.301,4.005z"/>
</svg>
