<?xml version="1.0" encoding="UTF-8" standalone="no"?>
<!-- Generator: Adobe Illustrator 15.1.0, SVG Export Plug-In . SVG Version: 6.00 Build 0)  -->

<svg
   xmlns:dc="http://purl.org/dc/elements/1.1/"
   xmlns:cc="http://creativecommons.org/ns#"
   xmlns:rdf="http://www.w3.org/1999/02/22-rdf-syntax-ns#"
   xmlns:svg="http://www.w3.org/2000/svg"
   xmlns="http://www.w3.org/2000/svg"
   xmlns:sodipodi="http://sodipodi.sourceforge.net/DTD/sodipodi-0.dtd"
   xmlns:inkscape="http://www.inkscape.org/namespaces/inkscape"
   version="1.1"
   id="Layer_1"
   x="0px"
   y="0px"
   width="93.988px"
   height="61.992px"
   viewBox="0 0 93.988 61.992"
   enable-background="new 0 0 93.988 61.992"
   xml:space="preserve"
   inkscape:version="0.48.5 r10040"
   sodipodi:docname="ringed_planet.svg"><metadata
     id="metadata21"><rdf:RDF><cc:Work
         rdf:about=""><dc:format>image/svg+xml</dc:format><dc:type
           rdf:resource="http://purl.org/dc/dcmitype/StillImage" /></cc:Work></rdf:RDF></metadata><defs
     id="defs19"><inkscape:perspective
       sodipodi:type="inkscape:persp3d"
       inkscape:vp_x="0 : 30.996 : 1"
       inkscape:vp_y="0 : 1000 : 0"
       inkscape:vp_z="93.987999 : 30.996 : 1"
       inkscape:persp3d-origin="46.993999 : 20.664 : 1"
       id="perspective3045" /></defs><sodipodi:namedview
     pagecolor="#ffffff"
     bordercolor="#666666"
     borderopacity="1"
     objecttolerance="10"
     gridtolerance="10"
     guidetolerance="10"
     inkscape:pageopacity="0"
     inkscape:pageshadow="2"
     inkscape:window-width="1366"
     inkscape:window-height="720"
     id="namedview17"
     showgrid="false"
     inkscape:zoom="5.1123364"
     inkscape:cx="41.955355"
     inkscape:cy="17.178478"
     inkscape:window-x="0"
     inkscape:window-y="0"
     inkscape:window-maximized="1"
     inkscape:current-layer="g5" /><g
     id="g3"><g
       id="g5"><path
         clip-rule="evenodd"
         d="M 26.584337,41.182856 C 40.537185,38.014217 56.528306,28.394705 68.989694,21.461628 59.396423,-7.3831131 7.1732337,12.040957 26.584337,41.182856 z M 66.587699,13.034175 C 65.042955,16.656921 78.884544,8.3685874 79.810467,13.08984 65.552906,27.614441 40.912311,41.244584 13.442302,45.625511 12.597483,39.823323 22.323635,39.760725 22.24304,34.373543 14.571727,40.300421 2.4818773,43.829631 2.6218267,53.998352 10.759329,53.467638 19.09526,51.526005 26.44502,49.123661 53.576781,40.255101 81.669798,24.303597 92.652618,7.5945082 86.805453,5.5433389 72.602166,9.7633056 66.587699,13.034175 z M 34.585907,48.200195 C 48.430928,57.10814 71.25359,44.599113 70.269444,30.173046 58.395767,36.19341 46.026338,41.94456 34.585907,48.200195 z"
         id="path7"
         inkscape:connector-curvature="0"
         style="fill:#ffffff;fill-rule:evenodd"
         sodipodi:nodetypes="ccccccccsccccc" /><path
         clip-rule="evenodd"
         d="M 68.988873,21.462965 C 56.528306,28.394705 40.536065,38.014499 26.583518,41.184191 7.1732337,12.040957 59.396423,-7.3831131 68.988873,21.462965 z"
         id="path9"
         inkscape:connector-curvature="0"
         style="fill-rule:evenodd" /><path
         clip-rule="evenodd"
         d="M 92.651198,7.5937368 C 81.669497,24.302544 53.575361,40.25433 26.443601,49.122888 19.093841,51.525234 10.757908,53.466866 2.6204062,53.997581 2.4804569,43.82886 21.153633,35.591987 21.153633,35.591987 c 0,0 -11.5466569,6.333916 -10.701839,12.136104 27.470011,-4.380927 57.572339,-21.007599 71.829902,-35.532198 -0.925623,-4.7202013 -15.695418,0.837511 -15.695418,0.837511 0,0 20.219175,-7.4900651 26.06492,-5.4396672 z"
         id="path11"
         inkscape:connector-curvature="0"
         style="fill-rule:evenodd"
         sodipodi:nodetypes="cscccccc" /><path
         clip-rule="evenodd"
         d="M 70.269444,30.173046 C 71.252469,44.599395 48.429809,57.108422 34.585907,48.200195 47.396559,44.551106 59.374884,38.055969 70.269444,30.173046 z"
         id="path13"
         inkscape:connector-curvature="0"
         style="fill-rule:evenodd"
         sodipodi:nodetypes="ccc" /><g
         sodipodi:type="inkscape:box3d"
         style="opacity:0;fill:#de87aa;stroke:#000000;stroke-width:2;stroke-miterlimit:4;stroke-opacity:1;stroke-dasharray:none;stroke-dashoffset:0"
         id="g3047"
         inkscape:perspectiveID="#perspective3045"
         inkscape:corner0="-1.7118209 : -0.078178515 : 0 : 1"
         inkscape:corner7="-0.28817914 : 0.015911929 : 0.25 : 1"><path
           sodipodi:type="inkscape:box3dside"
           id="path3059"
           style="fill:#e9e9ff;fill-rule:evenodd;stroke:none"
           inkscape:box3dsidetype="11"
           d="m -152.63709,-160.6595 225.926205,283.67941 0,-97.825332 -225.926205,17.883875 z" /><path
           sodipodi:type="inkscape:box3dside"
           id="path3055"
           style="fill:#d7d7ff;fill-rule:evenodd;stroke:none"
           inkscape:box3dsidetype="14"
           d="m 66.019419,155.33981 0,-132.182761 7.269696,2.037529 0,97.825332 z" /><path
           sodipodi:type="inkscape:box3dside"
           id="path3057"
           style="fill:#afafde;fill-rule:evenodd;stroke:none"
           inkscape:box3dsidetype="13"
           d="M -66.019415,38.834951 66.019419,23.157049 73.289115,25.194578 -152.63709,43.078453 z" /><path
           sodipodi:type="inkscape:box3dside"
           id="path3051"
           style="fill:#4d4d9f;fill-rule:evenodd;stroke:none"
           inkscape:box3dsidetype="5"
           d="M -66.019415,-93.3478 66.019419,155.33981 73.289115,123.01991 -152.63709,-160.6595 z" /><path
           sodipodi:type="inkscape:box3dside"
           id="path3049"
           style="fill:#353564;fill-rule:evenodd;stroke:none"
           inkscape:box3dsidetype="6"
           d="m -66.019415,-93.3478 0,132.182751 -86.617675,4.243502 0,-203.737953 z" /><path
           style="fill-rule:evenodd;stroke:none"
           d="m -66.019415,-93.3478 132.038834,248.68761 0,-132.182761 -132.038834,15.677902 z"
           id="path3053" /></g></g></g><path
     d="M 53.576201,40.033887"
     id="path15"
     inkscape:connector-curvature="0"
     style="fill:#ffffff" /></svg>