<?xml version="1.0" encoding="utf-8"?><!-- Generator: Adobe Illustrator 15.1.0, SVG Export Plug-In . SVG Version: 6.00 Build 0)  --><!DOCTYPE svg PUBLIC
		"-//W3C//DTD SVG 1.1//EN" "http://www.w3.org/Graphics/SVG/1.1/DTD/svg11.dtd">
<svg version="1.1"
	 id="Layer_1" inkscape:version="0.48.5 r10040" xmlns:inkscape="http://www.inkscape.org/namespaces/inkscape" sodipodi:docname="ringed_planet.svg" xmlns:svg="http://www.w3.org/2000/svg" xmlns:rdf="http://www.w3.org/1999/02/22-rdf-syntax-ns#" xmlns:cc="http://creativecommons.org/ns#" xmlns:dc="http://purl.org/dc/elements/1.1/" xmlns:sodipodi="http://sodipodi.sourceforge.net/DTD/sodipodi-0.dtd"
	 xmlns="http://www.w3.org/2000/svg" xmlns:xlink="http://www.w3.org/1999/xlink" x="0px" y="0px" width="93.988px"
	 height="61.992px" viewBox="0 0 93.988 61.992" enable-background="new 0 0 93.988 61.992" xml:space="preserve">
<defs>


		<inkscape:perspective  id="perspective3045" sodipodi:type="inkscape:persp3d" inkscape:vp_x="0 : 30.996 : 1" inkscape:vp_y="0 : 1000 : 0" inkscape:vp_z="93.987999 : 30.996 : 1" inkscape:persp3d-origin="46.993999 : 20.664 : 1">
		</inkscape:perspective>
</defs>
<sodipodi:namedview  id="namedview17" pagecolor="#ffffff" objecttolerance="10" borderopacity="1" bordercolor="#666666" gridtolerance="10" guidetolerance="10" inkscape:pageopacity="0" inkscape:pageshadow="2" inkscape:window-width="1366" inkscape:window-height="720" showgrid="false" inkscape:zoom="5.1123364" inkscape:cx="41.955355" inkscape:cy="17.178478" inkscape:window-x="0" inkscape:window-y="0" inkscape:window-maximized="1" inkscape:current-layer="g5">
	</sodipodi:namedview>
<g id="g3">
	<g id="g5">
		<path id="path7" inkscape:connector-curvature="0" sodipodi:nodetypes="ccccccccsccccc" fill="#FFFFFF" d="M26.585,48.184
			c13.952-3.17,29.943-12.789,42.405-19.722C59.396-0.383,7.174,19.041,26.585,48.184z M66.588,20.034
			c-1.545,3.623,12.297-4.666,13.224,0.056c-14.26,14.524-38.899,28.154-66.369,32.535c-0.845-5.802,8.882-5.864,8.801-11.252
			C14.572,47.301,2.482,50.83,2.622,60.998c8.138-0.53,16.475-2.473,23.823-4.875c27.132-8.868,55.225-24.819,66.208-41.528
			C86.805,12.543,72.602,16.763,66.588,20.034z M34.586,55.2C48.432,64.107,71.254,51.6,70.27,37.173
			C58.396,43.193,46.026,48.943,34.586,55.2z"/>
		<path id="path9" inkscape:connector-curvature="0" d="M67.989,26.463c-12.461,6.932-28.453,16.553-42.405,19.721
			C6.174,17.041,58.396-2.383,67.989,26.463z"/>
		<path id="path11" inkscape:connector-curvature="0" sodipodi:nodetypes="cscccccc" d="M92.651,14.594
			C81.67,31.303,53.575,47.254,26.443,56.123c-7.351,2.402-15.687,4.344-23.822,4.875C2.48,50.829,21.154,42.592,21.154,42.592
			S9.607,48.926,10.452,54.729c27.47-4.381,57.572-21.008,71.83-35.533c-0.926-4.72-15.695,0.837-15.695,0.837
			S86.805,12.543,92.651,14.594L92.651,14.594z"/>
		<path id="path13" inkscape:connector-curvature="0" sodipodi:nodetypes="ccc" d="M71.269,38.173
			C72.253,52.6,49.429,65.107,35.586,56.2C48.396,52.551,60.375,46.057,71.269,38.173z"/>

			<g id="g3047" inkscape:perspectiveID="#perspective3045" inkscape:corner7="-0.28817914 : 0.015911929 : 0.25 : 1" inkscape:corner0="-1.7118209 : -0.078178515 : 0 : 1" sodipodi:type="inkscape:box3d" opacity="0">
			<path id="path3055" sodipodi:type="inkscape:box3dside" inkscape:box3dsidetype="14" fill="#D7D7FF" d="M66.019,162.34V30.157
				l7.27,2.036v97.826L66.019,162.34z"/>
			<path id="path3057" sodipodi:type="inkscape:box3dside" inkscape:box3dsidetype="13" fill="#AFAFDE" d="M-66.02,45.835
				L66.019,30.157l7.27,2.036l-225.926,17.885L-66.02,45.835z"/>
			<path id="path3051" sodipodi:type="inkscape:box3dside" inkscape:box3dsidetype="5" fill="#4D4D9F" d="M-66.02-86.348
				L66.019,162.34l7.27-32.32l-225.926-283.68L-66.02-86.348z"/>
			<path id="path3049" sodipodi:type="inkscape:box3dside" inkscape:box3dsidetype="6" fill="#353564" d="M-66.02-86.348V45.835
				l-86.617,4.243V-153.66L-66.02-86.348z"/>
		</g>
	</g>
</g>
<path id="path15" inkscape:connector-curvature="0" fill="#FFFFFF" d="M53.576,47.033"/>
<line fill="none" stroke="#000000" stroke-width="4" x1="16.16" y1="18.83" x2="25.494" y2="23.83"/>
<line fill="none" stroke="#000000" stroke-width="4" x1="42.827" y1="14.238" x2="41.494" y2="5.83"/>
<ellipse fill="#020202" stroke="#000000" stroke-width="0.25" cx="17.208" cy="19.008" rx="4.714" ry="4.322"/>
<ellipse fill="#020202" stroke="#000000" stroke-width="0.25" cx="41.494" cy="5.829" rx="4.714" ry="4.322"/>
<ellipse transform="matrix(-0.4162 -0.9093 0.9093 -0.4162 62.6286 87.7072)" fill="#FFFFFF" stroke="#000000" stroke-width="0.25" cx="59.471" cy="23.748" rx="2.621" ry="3.936"/>
<ellipse transform="matrix(-0.4142 -0.9102 0.9102 -0.4142 44.0746 86.8099)" fill="#FFFFFF" stroke="#000000" stroke-width="0.25" cx="49.971" cy="29.222" rx="2.621" ry="3.936"/>
<ellipse transform="matrix(-0.4058 -0.9139 0.9139 -0.4058 23.4815 84.9167)" fill="#FFFFFF" stroke="#000000" stroke-width="0.25" cx="39.343" cy="34.826" rx="2.622" ry="3.935"/>
<ellipse transform="matrix(-0.3272 -0.945 0.945 -0.3272 2.1392 78.4216)" fill="#FFFFFF" stroke="#000000" stroke-width="0.25" cx="28.989" cy="38.449" rx="2.621" ry="3.936"/>
</svg>
