<?xml version="1.0" encoding="UTF-8" standalone="no"?>
<!-- Generator: Adobe Illustrator 15.1.0, SVG Export Plug-In . SVG Version: 6.00 Build 0)  -->

<svg
   xmlns:dc="http://purl.org/dc/elements/1.1/"
   xmlns:cc="http://creativecommons.org/ns#"
   xmlns:rdf="http://www.w3.org/1999/02/22-rdf-syntax-ns#"
   xmlns:svg="http://www.w3.org/2000/svg"
   xmlns="http://www.w3.org/2000/svg"
   xmlns:sodipodi="http://sodipodi.sourceforge.net/DTD/sodipodi-0.dtd"
   xmlns:inkscape="http://www.inkscape.org/namespaces/inkscape"
   version="1.1"
   id="Layer_1"
   x="0px"
   y="0px"
   width="93.988px"
   height="61.992px"
   viewBox="0 0 93.988 61.992"
   enable-background="new 0 0 93.988 61.992"
   xml:space="preserve"
   inkscape:version="0.48.5 r10040"
   sodipodi:docname="ringed_planet.svg"><metadata
     id="metadata21"><rdf:RDF><cc:Work
         rdf:about=""><dc:format>image/svg+xml</dc:format><dc:type
           rdf:resource="http://purl.org/dc/dcmitype/StillImage" /></cc:Work></rdf:RDF></metadata><defs
     id="defs19" /><sodipodi:namedview
     pagecolor="#ffffff"
     bordercolor="#666666"
     borderopacity="1"
     objecttolerance="10"
     gridtolerance="10"
     guidetolerance="10"
     inkscape:pageopacity="0"
     inkscape:pageshadow="2"
     inkscape:window-width="1366"
     inkscape:window-height="720"
     id="namedview17"
     showgrid="false"
     inkscape:zoom="1.03"
     inkscape:cx="-74.757322"
     inkscape:cy="-67.130395"
     inkscape:window-x="0"
     inkscape:window-y="0"
     inkscape:window-maximized="1"
     inkscape:current-layer="g5" /><g
     id="g3"><g
       id="g5"><path
         fill-rule="evenodd"
         clip-rule="evenodd"
         fill="#FFFFFF"
         d="M93.405-1.667c0,20.664,0,41.328,0,61.992    c-31.329,0-62.659,0-93.988,0c0.666-20.332-1.332-43.326,1-61.992C31.413-1.667,62.409-1.667,93.405-1.667z M27.414,35.328    c12.372,0.308,27.972-4.641,39.995-7.999C66.263-0.352,18.162,5.193,27.414,35.328z M67.408,19.331    c-2.146,2.863,11.348-1.387,10.999,3c-15.32,9.679-39.075,16.249-62.992,13.998c0.673-5.326,8.788-3.211,9.999-7.999    c-7.795,3.536-18.701,3.963-20.997,12.998c6.903,1.346,14.306,1.487,20.997,1c24.7-1.798,51.881-9.653,64.992-21.997    C86.023,17.21,73.193,17.777,67.408,19.331z M32.413,43.327c9.417,10.977,31.392,4.994,33.995-7.999    C55.091,38.009,43.425,40.341,32.413,43.327z"
         id="path7" /><path
         clip-rule="evenodd"
         d="M67.408,27.33c-12.022,3.357-27.623,8.306-39.995,7.999    C18.162,5.193,66.263-0.352,67.408,27.33z"
         id="path9"
         fill-rule="evenodd" /><path
         clip-rule="evenodd"
         d="m 90.405,20.33 c -13.11,12.344 -40.292,20.199 -64.992,21.997 -6.691,0.487 -14.094,0.346 -20.997,-1 2.296,-9.035 19.80164,-12.161248 19.80164,-12.161248 0,0 -11.11904,3.031608 -11.79204,8.357608 23.917,2.251 52.931584,-5.753432 68.251584,-15.432432 C 81.026184,17.704928 67.407,19.33 67.407,19.33 c 0,0 18.616,-2.12 22.998,1 z"
         id="path11"
         inkscape:connector-curvature="0"
         style="fill-rule:evenodd"
         sodipodi:nodetypes="cscccccc" /><path
         clip-rule="evenodd"
         d="M 66.408,35.328 C 63.804,48.321 41.829,54.304 32.413,43.327 43.947741,42.954704 55.464535,39.876674 66.408,35.328 z"
         id="path13"
         inkscape:connector-curvature="0"
         style="fill-rule:evenodd"
         sodipodi:nodetypes="ccc" /></g></g><path
     fill="#FFFFFF"
     d="M50.166,40.334"
     id="path15" /></svg>