<?xml version="1.0" encoding="UTF-8" standalone="no"?>
<!-- Generator: Adobe Illustrator 15.1.0, SVG Export Plug-In . SVG Version: 6.00 Build 0)  -->

<svg
   xmlns:dc="http://purl.org/dc/elements/1.1/"
   xmlns:cc="http://creativecommons.org/ns#"
   xmlns:rdf="http://www.w3.org/1999/02/22-rdf-syntax-ns#"
   xmlns:svg="http://www.w3.org/2000/svg"
   xmlns="http://www.w3.org/2000/svg"
   xmlns:sodipodi="http://sodipodi.sourceforge.net/DTD/sodipodi-0.dtd"
   xmlns:inkscape="http://www.inkscape.org/namespaces/inkscape"
   version="1.1"
   id="Layer_1"
   x="0px"
   y="0px"
   width="142.073px"
   height="309.976px"
   viewBox="0 0 142.073 309.976"
   enable-background="new 0 0 142.073 309.976"
   xml:space="preserve"
   inkscape:version="0.48.5 r10040"
   sodipodi:docname="robo_guy.svg"><metadata
     id="metadata3056"><rdf:RDF><cc:Work
         rdf:about=""><dc:format>image/svg+xml</dc:format><dc:type
           rdf:resource="http://purl.org/dc/dcmitype/StillImage" /></cc:Work></rdf:RDF></metadata><defs
     id="defs3054" /><sodipodi:namedview
     pagecolor="#ffffff"
     bordercolor="#666666"
     borderopacity="1"
     objecttolerance="10"
     gridtolerance="10"
     guidetolerance="10"
     inkscape:pageopacity="0"
     inkscape:pageshadow="2"
     inkscape:window-width="1920"
     inkscape:window-height="1054"
     id="namedview3052"
     showgrid="false"
     inkscape:zoom="2.990248"
     inkscape:cx="-53.705448"
     inkscape:cy="172.97929"
     inkscape:window-x="0"
     inkscape:window-y="0"
     inkscape:window-maximized="1"
     inkscape:current-layer="g2988" /><g
     id="g2986"><g
       id="g2988"><path
         clip-rule="evenodd"
         d="m 62.964,130.771 c 2.348,-2.374 10.567,-2.374 12.916,0 4.297766,1.31544 0.634081,3.5253 1.615,6.458 -1.077,0 -2.153,0 -3.229,0 0,1.614 0,3.229 0,4.843 1.076,0 2.152,0 3.229,0 0.538,0 1.076,0 1.614,0 0.676931,2.65197 0.798057,2.42498 3.229,1.615 0.684,3.374 -1.106,4.275 -1.614,6.458 -7.655643,-2.50259 -7.364944,13.40336 -4.62305,16.23025 -5.065752,3.20661 -12.851146,0.36851 -15.585874,0.21683 -3.026974,-0.16789 -1.082012,-1.25421 -4.009076,-3.53108 3.193,-12.095 -2.666,-23.232 4.844,-30.674 1.307012,0.57642 0.742986,-0.5196 0.880709,-0.88424 0.128429,-0.34003 1.011162,0.10002 0.733291,-0.73176 z"
         id="path2994"
         inkscape:connector-curvature="0"
         style="fill-rule:evenodd;fill:#676c53"
         sodipodi:nodetypes="cccccsccccsccsc" /><path
         clip-rule="evenodd"
         d="m 103.326,167.904 c 0.53789,1.61448 1.07647,3.22873 1.615,4.843 -3.229,0 -6.458,0 -9.687,0 -0.909,22.435 1.081,41.972 1.615,62.964 -2.535,4.461 -11.593,2.399 -8.072,12.916 -0.297403,6.37416 0.620969,7.77935 -0.87819,11.92908 -0.578912,1.60245 -0.202303,5.49419 -2.35081,7.44592 l -1.884,-2.422 -2.959,0.808 c -1.498,-6.95 0.828,-15.228 0,-25.831 -2.764,-3.695 -12.324,-0.593 -17.759,-1.615 -0.85,10.452 2.362,24.965 -3.229,30.675 L 57.854,267.195 54.892,268 c -1.275608,-6.54601 0.003,-13.48783 0,-16.144 2.927,-11 -3.384,-12.761 -8.072,-16.145 1.168,-22.156 -1.771,-42.4155 -1.615,-63.5595 10.956673,-1.04986 5.17909,12.04619 6.458,21.5835 10.757,1.005 20.364,2.992 32.289,-1.614 0.934,-10.073 0.459,-14.304 3.229,-24.217 6.694404,-5.14634 8.906423,1.51717 16.145,0 z"
         id="path2996"
         inkscape:connector-curvature="0"
         style="fill-rule:evenodd;fill:#454837"
         sodipodi:nodetypes="cccccsccccccccccccccc" /><path
         clip-rule="evenodd"
         d="M56.775,272.036l2.96-0.808c-1.338,4.216,4.882,8.858,0,11.302l-2.421-0.808    l0.807,2.422c-2.896-0.205-3.405,1.977-6.458,1.614c-2.519-7.335-1.019-11.868,3.229-16.145L56.775,272.036z"
         id="path2998"
         fill-rule="evenodd" /><g
         id="g3006"><path
           clip-rule="evenodd"
           d="m 76.075261,131.85532 c 6.142,-9.885 20.995213,-88.254984 25.862209,-98.519984"
           id="path3010"
           inkscape:connector-curvature="0"
           style="fill:#784421;stroke:#784421;stroke-width:1.93340003000000005;stroke-linecap:round;fill-opacity:1"
           sodipodi:nodetypes="cc" /><path
           clip-rule="evenodd"
           d="     M76.687,134.807c3.55,1.583,5.109,6.231,3.229,9.687"
           id="path3012"
           stroke-linecap="round"
           stroke-width="3.3478"
           stroke="#000000"
           fill-rule="evenodd"
           fill="none"
           style="fill:#786721;stroke:#786721" /><path
           clip-rule="evenodd"
           d="     M81.53,163.868c2.884,1.73,6.666,1.135,8.879,4.036"
           id="path3014"
           stroke-linecap="round"
           stroke-width="3.1472"
           stroke="#000000"
           fill-rule="evenodd"
           fill="none"
           style="stroke:#786721" /><path
           clip-rule="evenodd"
           d="     M82.741,271.633c0.278-1.789,0.439-3.957,0.941-6.055"
           id="path3024"
           stroke-linecap="round"
           stroke-width="5.0022"
           stroke="#000000"
           fill-rule="evenodd"
           fill="none" /><path
           clip-rule="evenodd"
           d="     M56.775,272.036c0.346-1.614,0.657-3.229,1.077-4.844"
           id="path3028"
           stroke-linecap="round"
           stroke-width="5.0196"
           stroke="#000000"
           fill-rule="evenodd"
           fill="none" /><path
           clip-rule="evenodd"
           d="m 36.012,251.855 c -2.01,3.915 1.868,7.285 3.229,10.494"
           id="path3030"
           inkscape:connector-curvature="0"
           style="fill:none;stroke:#000000;stroke-width:2.61319995;stroke-linecap:round"
           sodipodi:nodetypes="cc" /><path
           clip-rule="evenodd"
           d="M 36.012,251.855 C -0.40587953,239.10306 -0.985,168.14 46.599,171.206"
           id="path3032"
           inkscape:connector-curvature="0"
           style="fill:none;stroke:#786721;stroke-width:3.94309997999999995;stroke-linecap:round"
           sodipodi:nodetypes="cc" /><path
           clip-rule="evenodd"
           d="     M46.599,171.206c1.87-5.705,7.894-4.372,12.329-6.262"
           id="path3034"
           stroke-linecap="round"
           stroke-width="4.5664"
           stroke="#000000"
           fill-rule="evenodd"
           fill="none"
           style="stroke:#786721" /><path
           clip-rule="evenodd"
           d="m 35.841,33.58 c 9.287,32.93 17.250973,68.82982 26.38335,98.7282"
           id="path3036"
           inkscape:connector-curvature="0"
           style="fill:#000000;stroke:#784421;stroke-width:1.88740003000000001;stroke-linecap:round;fill-opacity:0"
           sodipodi:nodetypes="cc" /><path
           clip-rule="evenodd"
           d="m 90.724648,257.72695 c 4.97,1.042 9.803002,-0.933 11.892002,-5.599 -0.172,-1.115 -0.274,-2.467 -0.188,-3.685"
           id="path3038"
           inkscape:connector-curvature="0"
           style="fill:none;stroke:#000000;stroke-width:2.45160007;stroke-linecap:round" /><path
           clip-rule="evenodd"
           d="m 101.3249,248.00205 c -2.979001,-0.817 -4.851001,0.65 -6.861001,1.211"
           id="path3040"
           inkscape:connector-curvature="0"
           style="fill:none;stroke:#000000;stroke-width:2.55270004;stroke-linecap:round" /><path
           clip-rule="evenodd"
           d="     M81.53,163.868c0.52-5.251-0.161-10.447-3.767-14.53"
           id="path3042"
           stroke-linecap="round"
           stroke-width="4.6605"
           stroke="#000000"
           fill-rule="evenodd"
           fill="none"
           style="fill:#6c6753;stroke:#6c6753" /><path
           clip-rule="evenodd"
           d="     M81.53,163.868c-2.691,0.731-5.382,1.297-8.072,1.076"
           id="path3046"
           stroke-linecap="round"
           stroke-width="3.9546"
           stroke="#000000"
           fill-rule="evenodd"
           fill="none"
           style="stroke:#786721" /><path
           clip-rule="evenodd"
           d="m 102.42965,248.44395 c 35.139,-7.358 40.27125,-71.79995 2.14425,-78.11795"
           id="path3048"
           inkscape:connector-curvature="0"
           style="fill:none;stroke:#786721;stroke-width:3.81119990000000008;stroke-linecap:round"
           sodipodi:nodetypes="cc" /><path
           clip-rule="evenodd"
           d="m 36.012,251.855 c 5.413945,-0.30347 7.939466,-0.26421 9.820052,1.614"
           id="path3050"
           inkscape:connector-curvature="0"
           style="fill:none;stroke:#000000;stroke-width:2.21070004;stroke-linecap:round"
           sodipodi:nodetypes="cc" /></g><path
         id="path3080"
         d="m 83.099454,272.036 -3.113017,-0.808 c 1.407168,4.216 -5.134375,8.858 0,11.302 l 2.546153,-0.808 -0.848718,2.422 c 3.045709,-0.205 3.581022,1.977 6.791847,1.614 2.64922,-7.335 1.071677,-11.868 -3.395923,-16.145 l -1.980342,2.423 z"
         clip-rule="evenodd"
         inkscape:connector-curvature="0"
         style="fill-rule:evenodd" /><path
         style="opacity:0;fill:#a05a2c;fill-opacity:1;stroke:#784421;stroke-width:0.66884083000000005;stroke-miterlimit:4;stroke-opacity:1;stroke-dasharray:none;stroke-dashoffset:0"
         d="M 61.693969,132.7663 C 60.885023,131.72601 52.978368,102.52917 44.554964,69.477236 43.242449,64.327162 40.581307,54.205525 38.641314,46.984711 36.701321,39.763896 35.200202,33.631462 35.305492,33.357078 c 0.257022,-0.669788 0.788844,-0.630347 1.164424,0.08636 0.397995,0.759479 6.439119,23.34635 10.755721,40.214057 7.382007,28.846195 10.546972,40.718405 13.933487,52.266395 1.013484,3.45597 1.758356,6.50337 1.655271,6.77201 -0.229802,0.59886 -0.687147,0.62759 -1.120426,0.0704 l 0,0 z"
         id="path3850"
         inkscape:connector-curvature="0" /></g></g></svg>