<?xml version="1.0" encoding="utf-8"?>
<!-- Generator: Adobe Illustrator 15.1.0, SVG Export Plug-In . SVG Version: 6.00 Build 0)  -->
<!DOCTYPE svg PUBLIC "-//W3C//DTD SVG 1.1//EN" "http://www.w3.org/Graphics/SVG/1.1/DTD/svg11.dtd">
<svg version="1.1" id="Layer_1" xmlns="http://www.w3.org/2000/svg" xmlns:xlink="http://www.w3.org/1999/xlink" x="0px" y="0px"
	 width="142.073px" height="309.976px" viewBox="0 0 142.073 309.976" enable-background="new 0 0 142.073 309.976"
	 xml:space="preserve">
<g>
	<g>
		<path fill-rule="evenodd" clip-rule="evenodd" d="M29.06,12.916c1.077,0,2.153,0,3.229,0c0,1.077,0,2.153,0,3.229
			c-1.076,0-2.152,0-3.229,0C29.06,15.068,29.06,13.992,29.06,12.916z"/>
		<path fill-rule="evenodd" clip-rule="evenodd" d="M101.71,19.374c0.615-3.073,2.055,1.031,1.615,3.229
			C102.71,25.676,101.271,21.572,101.71,19.374z"/>
		<path fill-rule="evenodd" clip-rule="evenodd" d="M62.964,130.771c2.348-2.374,10.567-2.374,12.916,0l-0.807,2.422l2.422-0.807
			c1.373-0.297,1.523,0.629,1.614,1.614l-2.421,0.807l0.807,2.422c-1.077,0-2.153,0-3.229,0c0,1.614,0,3.229,0,4.843
			c1.076,0,2.152,0,3.229,0c0.538,0,1.076,0,1.614,0l0.807,2.422l2.422-0.807c0.684,3.374-1.106,4.275-1.614,6.458l-2.96-0.807
			l-1.884,2.422c-0.538,0-1.076,0-1.614,0c0.017,4.289-0.61,9.22,1.614,11.301l-2.421,1.884l0.807,2.96c-5.381,0-10.763,0-16.145,0
			l0.807-2.96l-2.422-1.884c3.193-12.095-2.666-23.232,4.844-30.674l2.421,0.807L62.964,130.771z"/>
		<path fill-rule="evenodd" clip-rule="evenodd" d="M90.41,167.904v-3.229c3.956,1.425,5.924,4.839,12.916,3.229l0.807,2.421
			l0.808,2.422c-3.229,0-6.458,0-9.687,0c-0.909,22.435,1.081,41.972,1.615,62.964c-2.535,4.461-11.593,2.399-8.072,12.916
			l0.807,0.807l0.807,0.808c-2.191,0.499-1.339,4.042-1.614,6.458l-4.036,0.807l4.036,0.808c-0.17,4.135-0.914,7.696-3.229,9.687
			l-1.884-2.422l-2.959,0.808c-1.498-6.95,0.828-15.228,0-25.831c-2.764-3.695-12.324-0.593-17.759-1.615
			c-0.85,10.452,2.362,24.965-3.229,30.675l-1.883-2.422L54.892,268c-0.33-5.052,1.089-11.852-1.614-14.53h1.614v-1.614
			c2.927-11-3.384-12.761-8.072-16.145c1.168-22.156-1.771-40.206-1.615-61.35l2.96,0.808l1.884-2.422
			c3.713,3.821,0.578,14.49,1.614,20.988c10.757,1.005,20.364,2.992,32.289-1.614c0.934-10.073,0.459-14.304,3.229-24.217H90.41z"/>
		<path fill-rule="evenodd" clip-rule="evenodd" d="M56.775,272.036l2.96-0.808c-1.338,4.216,4.882,8.858,0,11.302l-2.421-0.808
			l0.807,2.422c-2.896-0.205-3.405,1.977-6.458,1.614c-2.519-7.335-1.019-11.868,3.229-16.145L56.775,272.036z"/>
		<path fill-rule="evenodd" clip-rule="evenodd" d="M46.599,171.206l3.449-0.073c0,0.538,0,1.076,0,1.614l-2.96-0.807l-1.884,2.421
			L46.599,171.206z"/>
		<path fill-rule="evenodd" clip-rule="evenodd" d="M87.181,82.337c4.128-3.044-0.974,7.309,0,11.301
			C82.298,91.195,88.519,86.553,87.181,82.337z"/>
		<path fill-rule="evenodd" clip-rule="evenodd" d="M62.964,272.844c0.484-7.398,7.106,2.446,4.843,8.072
			C63.22,281.197,69.759,270.354,62.964,272.844z"/>
		<g>
			<path fill-rule="evenodd" clip-rule="evenodd" fill="none" stroke="#000000" stroke-width="1.9128" stroke-linecap="round" d="
				M89.603,73.458c5.311-13.412,5.837-28.62,11.301-41.976"/>
			<path fill-rule="evenodd" clip-rule="evenodd" fill="none" stroke="#000000" stroke-width="1.9334" stroke-linecap="round" d="
				M75.072,133.193c6.142-9.885,4.82-22.024,9.687-32.289"/>
			<path fill-rule="evenodd" clip-rule="evenodd" fill="none" stroke="#000000" stroke-width="3.3478" stroke-linecap="round" d="
				M76.687,134.807c3.55,1.583,5.109,6.231,3.229,9.687"/>
			<path fill-rule="evenodd" clip-rule="evenodd" fill="none" stroke="#000000" stroke-width="3.1472" stroke-linecap="round" d="
				M81.53,163.868c2.884,1.73,6.666,1.135,8.879,4.036"/>
			<path fill-rule="evenodd" clip-rule="evenodd" fill="none" stroke="#000000" stroke-width="3.8432" stroke-linecap="round" d="
				M82.741,271.633c2.951,5.104,0.888,10.99,1.21,16.548"/>
			<path fill-rule="evenodd" clip-rule="evenodd" fill="none" stroke="#000000" stroke-width="4.7659" stroke-linecap="round" d="
				M71.574,295.984c-0.781,1.078,1.075,4.397,3.498,5.112"/>
			<path fill-rule="evenodd" clip-rule="evenodd" fill="none" stroke="#000000" stroke-width="2.854" stroke-linecap="round" d="
				M71.574,295.984c-1.947-2.093-3.188-4.912-2.96-7.804"/>
			<path fill-rule="evenodd" clip-rule="evenodd" fill="none" stroke="#000000" stroke-width="5.0962" stroke-linecap="round" d="
				M71.574,295.984c0.117-0.041,0.234-0.081,0.351-0.122c7.758-6.259,2.896-19.512,10.816-24.229"/>
			<path fill-rule="evenodd" clip-rule="evenodd" fill="none" stroke="#000000" stroke-width="5.0022" stroke-linecap="round" d="
				M82.741,271.633c0.278-1.789,0.439-3.957,0.941-6.055"/>
			<path fill-rule="evenodd" clip-rule="evenodd" fill="none" stroke="#000000" stroke-width="2.0421" stroke-linecap="round" d="
				M58.928,286.566c0.094-1.614-0.737-3.229-1.614-4.844"/>
			<path fill-rule="evenodd" clip-rule="evenodd" fill="none" stroke="#000000" stroke-width="5.0196" stroke-linecap="round" d="
				M56.775,272.036c0.346-1.614,0.657-3.229,1.077-4.844"/>
			<path fill-rule="evenodd" clip-rule="evenodd" fill="none" stroke="#000000" stroke-width="2.6132" stroke-linecap="round" d="
				M46.012,251.855c-2.01,3.915,1.868,7.285,3.229,10.494"/>
			<path fill-rule="evenodd" clip-rule="evenodd" fill="none" stroke="#000000" stroke-width="3.9431" stroke-linecap="round" d="
				M46.012,251.855c-34.758-11.922-46.997-83.715,0.587-80.649"/>
			<path fill-rule="evenodd" clip-rule="evenodd" fill="none" stroke="#000000" stroke-width="4.5664" stroke-linecap="round" d="
				M46.599,171.206c1.87-5.705,7.894-4.372,12.329-6.262"/>
			<path fill-rule="evenodd" clip-rule="evenodd" fill="none" stroke="#000000" stroke-width="1.8874" stroke-linecap="round" d="
				M34.711,33.096c0.376,0.162,0.753,0.323,1.13,0.484c9.287,32.93,16.003,66.919,27.93,99.612"/>
			<path fill-rule="evenodd" clip-rule="evenodd" fill="none" stroke="#000000" stroke-width="2.4516" stroke-linecap="round" d="
				M84.759,257.506c4.97,1.042,9.803-0.933,11.892-5.599c-0.172-1.115-0.274-2.467-0.188-3.685"/>
			<path fill-rule="evenodd" clip-rule="evenodd" fill="none" stroke="#000000" stroke-width="2.5527" stroke-linecap="round" d="
				M96.464,248.223c-2.979-0.817-4.851,0.65-6.861,1.211"/>
			<path fill-rule="evenodd" clip-rule="evenodd" fill="none" stroke="#000000" stroke-width="4.6605" stroke-linecap="round" d="
				M81.53,163.868c0.52-5.251-0.161-10.447-3.767-14.53"/>
			<path fill-rule="evenodd" clip-rule="evenodd" fill="none" stroke="#000000" stroke-width="5.1054" stroke-linecap="round" d="
				M47.088,171.94c0.359,1.076,0.718,2.152,1.076,3.229"/>
			<path fill-rule="evenodd" clip-rule="evenodd" fill="none" stroke="#000000" stroke-width="3.9546" stroke-linecap="round" d="
				M81.53,163.868c-2.691,0.731-5.382,1.297-8.072,1.076"/>
			<path fill-rule="evenodd" clip-rule="evenodd" fill="none" stroke="#000000" stroke-width="3.8112" stroke-linecap="round" d="
				M96.464,248.223c35.139-7.358,45.795-71.579,7.668-77.897"/>
			<path fill-rule="evenodd" clip-rule="evenodd" fill="none" stroke="#000000" stroke-width="2.2107" stroke-linecap="round" d="
				M46.012,251.855c2.887,0.96,6.184,0.143,8.879,1.614"/>
		</g>
	</g>
</g>
</svg>
