<?xml version="1.0" encoding="utf-8"?>
<!-- Generator: Adobe Illustrator 15.1.0, SVG Export Plug-In . SVG Version: 6.00 Build 0)  -->
<!DOCTYPE svg PUBLIC "-//W3C//DTD SVG 1.1//EN" "http://www.w3.org/Graphics/SVG/1.1/DTD/svg11.dtd">
<svg version="1.1" id="Layer_1" xmlns="http://www.w3.org/2000/svg" xmlns:xlink="http://www.w3.org/1999/xlink" x="0px" y="0px"
	 width="64px" height="64px" viewBox="0 0 64 64" enable-background="new 0 0 64 64" xml:space="preserve">
<g>
	<g>
		<path d="M31.149,11.474c-5.182-0.037-7.823-1.678-12.641,0.696c-4.031,1.987-6.694,5.475-7.59,9.814
			c-1.886,9.135,15.867,9.964,21.407,10.103c3.611,0.09,7.546-0.578,10.255-3.104c3.068-2.863,1.396-9.272,0.589-12.671
			c-1.309-5.52-9.992-9.151-14.261-4.552c-0.5,0.539,1.408,0.355,1.776-0.042c2.19-2.359,7.087-0.091,8.792,1.553
			c1.897,1.829,2.185,5.267,2.506,7.709c0.694,5.27,0.727,9.428-7.358,10.116c-3.053,0.26-6.204-0.264-9.222-0.708
			c-5.686-0.836-13.824-2.582-12.315-9.892c0.743-3.596,3.587-6.07,6.583-7.895c3.556-2.167,7.035-0.2,10.691-0.174
			C30.991,12.433,32.448,11.483,31.149,11.474L31.149,11.474z"/>
	</g>
</g>
<g>
	<g>
		<path d="M23.398,20.801c-0.034,1.97,0.63,3.991,2.957,3.806c1.795-0.143,3.406-1.398,4.047-3.062
			c0.889-2.306-1.085-3.975-3.219-4.193c-1.224-0.125-2.763,0.077-3.613,1.069c-0.956,1.116-0.724,2.784-0.49,4.12
			c0.118,0.679,2.059,0.21,1.932-0.518c-0.165-0.947-0.276-1.891-0.048-2.837c0.262-1.086,1.476-0.791,2.265-0.49
			c1.351,0.514,1.665,1.982,1.186,3.225c-0.232,0.601-0.991,1.569-1.683,1.583c-1.284,0.027-1.415-2.094-1.4-2.938
			C25.346,19.745,23.41,20.148,23.398,20.801L23.398,20.801z"/>
	</g>
</g>
<g>
	<g>
		<path d="M22.867,31.699c0.923,3.801,9.315,4.179,12.411,4.19c5.041,0.018,9.543-2.883,8.37-8.329
			c-0.184-0.855-2.119-0.354-1.932,0.518c1.2,5.576-4.021,6.805-8.453,6.329c-2.165-0.232-7.857-0.725-8.465-3.225
			C24.591,30.326,22.658,30.836,22.867,31.699L22.867,31.699z"/>
	</g>
</g>
<g>
	<g>
		<path d="M30.109,36.065c-0.231,8.905,20.719,8.593,13.007-3.713c-0.361-0.577-2.182,0.118-1.932,0.518
			c1.118,1.784,1.954,3.721,1.684,5.871c-0.316,2.511-3.144,2.795-5.103,2.501c-2.893-0.435-5.806-2.559-5.725-5.694
			C32.053,35.071,30.126,35.386,30.109,36.065L30.109,36.065z"/>
	</g>
</g>
<g>
	<g>
		<path d="M35.753,42.562c-0.391,4.417-5.828,4.302-9.072,5.674c0.504-0.01,1.009-0.02,1.513-0.029
			c0.223-0.286,0.445-0.572,0.668-0.858c-0.61,0.078-1.22,0.155-1.83,0.233c-1.011,1.557-4.175,3.856-1.716,5.653
			c1.42,1.039,4.136,0.034,5.548-0.445c2.412-0.817,4.339-2.333,6.504-3.597c0.902-0.527,2.746-1.406,3.179-2.478
			c0.369-0.911,0.31-0.583,0.289-1.535c-0.029-1.35,0.406-2.488,0.669-3.79c0.095-0.464-1.809-0.15-1.906,0.334
			c-0.157,0.774-0.405,1.479-0.645,2.231c-0.416,1.31,0.433,2.206-0.665,3.498c-1.175,1.383-3.336,2.201-4.829,3.241
			c-1.575,1.098-4.903,2.916-6.667,1.627c-1.863-1.362,1.424-3.965,2.146-5.074c0.19-0.293-1.553-0.088-1.83,0.233
			c-0.35,0.406-0.521,0.624-0.823,1.06c-0.27,0.389,1.409,0.015,1.513-0.029c3.628-1.535,9.437-1.414,9.884-6.467
			C37.71,41.761,35.805,41.971,35.753,42.562L35.753,42.562z"/>
	</g>
</g>
<g>
	<g>
		<path d="M32.239,51.266c-0.13,2.534,1.835,3.516,3.696,4.721c1.243,0.806,3.114,1.359,4.022-0.261
			c0.707-1.263,0.567-3.18,0.411-4.559c-0.172-1.521-0.814-2.917-2.556-2.681c-0.923,0.125-1.608,1.232-0.27,1.051
			c0.646-0.088,0.881,2.037,0.922,2.395c0.102,0.9,0.098,1.846-0.049,2.742c-0.053,0.32-0.131,0.627-0.229,0.937
			c-0.208,0.653,0.763,0.21,0.37,0.066c-0.571-0.211-1.095-0.622-1.601-0.95c-1.429-0.928-2.888-1.769-2.788-3.709
			C34.21,50.235,32.271,50.634,32.239,51.266L32.239,51.266z"/>
	</g>
</g>
<g>
	<g>
		<path d="M43.612,35.287c0.957,1.106,3.385,2.438,4.851,1.57c1.798-1.065,1.5-3.009,1.592-4.838
			c-0.51,0.249-1.021,0.499-1.53,0.748c1.228,0.605,2.165,1.633,3.325,2.345c0.55,0.337,1.379,0.161,1.668-0.447
			c0.593-1.247,0.536-2.591,0.797-3.924c0.199-1.019-1.783-0.806-1.965,0.119c-0.232,1.186-0.167,2.423-0.693,3.531
			c0.556-0.149,1.112-0.299,1.668-0.447c-1.29-0.792-2.336-1.878-3.704-2.554c-0.515-0.253-1.498,0.108-1.53,0.748
			c-0.042,0.845-0.002,1.687-0.093,2.529c-0.164,1.519-2.052,0.401-2.623-0.26C44.757,33.694,42.933,34.501,43.612,35.287
			L43.612,35.287z"/>
	</g>
</g>
<g>
	<g>
		<path d="M30.888,36.513c-3.343,1.766-4.623,5.373-9.145,4.862c-1.545-0.175-3.95,2.875-4.818,2.448
			c-0.636-0.312-2.387,0.579-1.519,1.006c3.243,1.593,3.899-2.59,6.795-2.066c4.256,0.77,6.351-3.664,9.486-5.32
			C32.862,36.821,31.787,36.038,30.888,36.513L30.888,36.513z"/>
	</g>
</g>
<g>
	<g>
		<path d="M40.196,12.247c2.795-1.635,5.591-3.364,7.647-5.915c0.548-0.68-1.403-0.546-1.803-0.052
			c-1.878,2.33-4.499,3.882-7.048,5.375C37.865,12.315,39.562,12.619,40.196,12.247L40.196,12.247z"/>
	</g>
</g>
<g>
	<g>
		<path d="M46.18,5.326c-0.125,0.691,0.024,1.435,0.608,1.871c0.838,0.625,2.066-0.088,2.563-0.799
			c0.421-0.602,0.407-1.443-0.318-1.8c-0.886-0.436-1.918-0.072-2.572,0.6c-0.312,0.32-0.173,0.75,0.236,0.881
			c0.467,0.15,1.029-0.02,1.365-0.366c0.073-0.07,0.035-0.062-0.111,0.022c-0.098,0.033-0.259,0.035-0.327-0.028
			c0.128,0.117,0.049,0.255-0.022,0.385c-0.233,0.427-0.05-0.717,0.681,0.026c-0.07-0.071-0.093-0.142-0.126-0.234
			c-0.086-0.241-0.069-0.48-0.025-0.726C48.298,4.233,46.327,4.506,46.18,5.326L46.18,5.326z"/>
	</g>
</g>
<g>
	<g>
		<path d="M6.949,8.236c2.456,2.518,5.458,4.745,6.014,8.446c0.061,0.409,2.008-0.009,1.932-0.518
			c-0.564-3.76-3.632-6.036-6.127-8.593C8.413,7.208,6.634,7.914,6.949,8.236L6.949,8.236z"/>
	</g>
</g>
<g>
	<g>
		<path d="M5.721,6.885c-0.069,0.467-0.042,0.965,0.151,1.4c0.263,0.592,0.929,0.575,1.476,0.485c0.64-0.105,1.447-0.322,1.679-1
			c0.174-0.51,0.121-1.087,0.117-1.616c-0.018-0.02-0.035-0.04-0.053-0.059C8.453,5.817,7.811,5.896,7.15,6.05
			c-0.14,0.033-0.967,0.255-0.897,0.516c0.071,0.267,0.894,0.031,1.035-0.002C6.82,6.672,7.209,6.6,7.215,6.919
			c0.003,0.176,0.003,0.352,0,0.528C7.21,7.643,7.195,7.842,7.154,8.034C7.134,8.13,7.098,8.221,7.059,8.312
			C6.84,8.814,6.512,7.95,8.146,8.097c-0.6-0.054-0.549-1.346-0.493-1.729C7.676,6.21,5.802,6.334,5.721,6.885L5.721,6.885z"/>
	</g>
</g>
</svg>
