<?xml version="1.0" encoding="utf-8"?>
<!-- Generator: Adobe Illustrator 15.1.0, SVG Export Plug-In . SVG Version: 6.00 Build 0)  -->
<!DOCTYPE svg PUBLIC "-//W3C//DTD SVG 1.1//EN" "http://www.w3.org/Graphics/SVG/1.1/DTD/svg11.dtd">
<svg version="1.1" id="Layer_1" xmlns="http://www.w3.org/2000/svg" xmlns:xlink="http://www.w3.org/1999/xlink" x="0px" y="0px"
	 width="800px" height="600px" viewBox="0 0 800 600" enable-background="new 0 0 800 600" xml:space="preserve">
<g>
	<g>
		<path fill-rule="evenodd" clip-rule="evenodd" d="M331.984,192.979c1.784-2.548,2.833-5.833,4.999-7.999
			c4.904,2.699,9.53,12.583,4,16.998l-1.167-1.5l-1.833,0.5c-2.18-2.09,0.5-2.854,0-5.999c-1,0-2,0-3,0l-1.3-1.3L331.984,192.979z"
			/>
		<path fill-rule="evenodd" clip-rule="evenodd" d="M333.817,218.477l1.167-1.5c1.894,3.016-1.742,11.831,0,14.998
			c-5.064,0.731-7.338-1.328-9.999-3l1.5-1.167l-0.5-1.833c3.297-1.369,4.597-4.735,6-7.999L333.817,218.477z"/>
		<path fill-rule="evenodd" clip-rule="evenodd" d="M323.485,227.142l0.5,1.833c-3.103-0.104-2.854,3.146-6.999,2
			c0.913-7.213,5.435-11.208,7.999-18.998l1.167,1.5l1.833-0.5c1.458,6.458-5.107,9.096-3,12.999L323.485,227.142z"/>
		<path fill-rule="evenodd" clip-rule="evenodd" d="M352.981,207.978c1.872-6.127,0.691-15.307,7-16.998
			c3.567,2.432,4.157,7.841,7.999,9.999c3.612-0.387,2.512-5.487,7.999-4c-1.225,8.776-5.418,15.714-8.999,24.997
			c-1.057,2.74-3.46,5.893-4,7.999c-1.649,6.443-0.488,12.045-6,15.998c-5.332-0.668-7.559-4.44-12.998-5
			c0.015-2.651-0.555-5.888,2-5.999l1.5,0.5l0.5-1.5c1.849,0.15,0.613,3.386,2,4c1.667,0,3.333,0,5,0
			c2.297-9.368,6.595-16.736,8.999-25.997c-3.208-1.125-3.608-5.057-7.999-4.999c0.163,1.163-0.221,1.779-1,2l-0.5-1.5
			L352.981,207.978z"/>
		<path fill-rule="evenodd" clip-rule="evenodd" d="M385.978,53.997c1.95-13.394,28.553-15.213,32.996-4
			c4.099,0.1,8.195,0.197,10.998-1c3.86,6.339,19.196,16.871,20.998,26.997c1.629,9.157-5.878,19.747-4,29.996
			c2.239,12.221,2.715,37.669-5.999,47.994c7.593,0.646,17.373,1.836,23.997-1c5.172-2.214,5.072-8.025,9.999-8.999
			c9.58-19.083,23.996-33.33,37.995-47.994c0.697-5.364-4.95-4.382-5-8.999c0.289-4.71,2.92-7.079,2-12.998
			c4.326-1.947,6.28-4.594,9.999-4c7.776,1.242,5.706,11.505,8.999,17.998c14.124-2.655,26.871-11.635,39.995-11.999
			c6.832,3.057,5.539,10.231,7.998,15.998c-4.716,2.616-3.836,10.828-6.999,14.998c-11.065,6.469-24.621,10.6-41.994,7.999
			c-17.188,9.476-26.44,26.887-37.995,41.995c2.133,12.81,0.341,19.553-9.999,20.997c-4.512,0.63-7.699-2.122-11.999-2
			c-8.42,0.24-16.818,5.834-23.996,4.999c-5.921,12.182-1.876,24.041-5,34.996c-3.428,12.02-17.321,16.474-26.996,28.997
			c-7.343,3.56-18.703,0.424-25.997,2c-3.427,9.905-2.855,23.809-4,35.996c-5.711,2.871-4.078,7.111-8.999,10.999
			c-5.827,2.505-14.062,2.603-20.997,4c-0.439,16.082,3.8,31.729,9.999,43.995c2.678,3.762,7.751,4.96,8.999,9.999
			c1.993,8.054-3.92,15.768-5,22.997c-4.732,2.268-7.12,6.878-9.999,10.998c0.507,3.159,2.943,4.39,3,7.999
			c-1.497,12.836-1.236,27.427-7.999,34.996c-0.019,15.688-0.545,33.705,0,51.993c1.765,4.822,6.545,6.145,9.999,9.999
			c9.722,10.85,15.624,26.102,20.998,37.995c-3.618,5.361,1.45,8.527,0,16.998c-14.037,18.595-28.373-11.844-49.994-9.999
			c-7.137-3.766-12.727-6.399-19.998-7.999c-1.543-5.456-8.361-5.637-9.999-10.998c-2.355-0.022-2.944,1.722-5.999,1
			c-3.327-7.307,3.45-18.277,8.999-22.998l0.7,1.7l1.3,1.3c0.387,5.387-4.967,5.031-4,10.999
			c15.912,4.419,31.708,8.954,47.994,12.998c1.96,6.039,11.918,4.08,13.998,9.999l-1.5,1.166l0.5,1.833c-2.333,0-4.667,0-7,0
			c-5.43-7.934-18.19-9.488-28.996-11.998c-5.75-1.336-11.556-6.893-15.998-3c10.396,5.27,21.367,9.962,34.996,11.999
			c6.476,7.188,15.581,11.748,26.997,13.998c1.716-1.617,2.484-4.183,2-7.999c-3.653,0.679-7.271,1.395-11.998,1
			c0-4,1.5-3.5,1.5-3.5l0.5-1.5c3.232-1.101,5.967-2.698,8.999-3.999c-0.349-5.317-1.933-9.398-4-12.998
			c-3.901,0.795-8.118,6.506-12.999,2.999c1.175-5.49,7.196-6.136,9.999-9.998c-1.23-0.437-2.053-1.28-2-3
			c-7.785,1.548-11.124,7.54-18.998,8.999c-0.013-1.987-2.728-1.271-2-4c4.33-4.669,12.447-5.551,15.998-10.998
			c-3.007-3.992-5.031-8.968-9.999-10.999c-5.498,7.084-14.089,22.327-24.997,11.999c-0.176-4.548,0.839-8.955-1-13.999
			c-0.848,0.942-2.463,0.662-6,1l-1.3-1.3l-1.7-0.7c3.366-3.3,7.595-5.736,12.998-6.999c3.32-14.969,1.118-28.038-3-40.994
			c-5.598-6.4-13.192-10.806-16.998-18.998c2.985-6.308,4.411-16.527,1-25.997c-1.237-3.434-4.226-4.887-4-7.999
			c0.347-4.775,9.273-12.769,13.999-14.998c8.27-3.9,20.405-0.599,27.997-5.999c-9.879-5.862-20.236-4.391-28.997,2
			c-6.177,4.506-9.675,13.034-16.998,15.998c-4.569,0.569-3.552-4.446-6.999-5c-2.009,3.323-11.47-0.805-9.999,6
			c-10.696-1.03-12.156,7.175-15.998,12.998c-8.705,6.154-25.981,4.366-32.996,0c-2.944,0.389-1.955,4.711-4,5.999l-1.167-1.5
			l-1.833,0.5c2.66-6.944-3.72-11.579,1-15.998l1.167,1.5l1.833-0.5c0,0.334,0,0.667,0,1c4.405,6.594,15.663,6.335,26.997,5.999
			c4.532-2.8,6.954-7.71,9.999-11.998l1.5-0.5l0.5-1.5c0.851-0.184,0.943,0.391,1,1c5.233-0.848,3.231-4.521,2-7.999l1.3-1.3
			l0.7-1.7c3.516,0.151,2.402,4.932,6.999,4c2.48-1.705-2.336-7.657,1-9.999l1.167,1.5l1.833-0.5c0,1,0,2,0,3
			c3.686,3.646,8.631,6.033,13.998,7.999c3.613-4.387,8.876-7.122,10.999-12.999l1.357-1.214l-0.357-1.785
			c1.615-0.282,1.722,0.944,3,1c11.679-10.786,46.699-5.172,40.995,11.998c7.045-3.35,5.734-11.732,7.999-17.998
			c-9.772-11.892-21.63-21.698-34.996-29.996c-0.022,2.355,1.722,2.944,1,5.999c-6.074-1.074-6.813,3.187-11.999,3v-2h-2
			c-0.484-4.483,6.854-1.145,6-5.999c-8.501-0.991-18.146-8.16-25.997-12.998c-15.415-1.26-21.284,3.275-30.996,8.999
			c3.801,4.033,4.172,13.97,6,16.997c7.262,2.235,19.385-1.412,23.997,2l0.5,1l0.5,1c-1.892,1.773-6.604,0.729-9.999,1
			c0,0.666,0,1.333,0,2l-1.833-0.5l-1.167,1.499c-0.973-0.027-0.776-1.224-1-1.999c-4.257,0.591-6.613-0.72-9.999-1
			c-0.445,2.555-1.402,4.597-3,5.999c-1.453-0.547-5.167,1.168-4.999-1c5.226-3.816,1.28-15.695-4-17.998
			c-3.735,5.682-1.839,13.422,1,18.998l-1.785-0.357l-1.214,1.357c-5.001,0.331-7.584,3.081-10.999,4.999
			c-0.56,6.226,7.994,3.338,9.999,6.999l-1.5,1.167l0.5,1.833c-6.823-1.968-13.227,1.937-16.998,5.999l-0.7-1.699l-1.3-1.3
			c0.867-3.133,2.477-5.522,4.999-6.999c0.172-2.506-2.239-2.428-3-4c3.594-5.071,7.564-9.767,14.998-10.999
			c-8.533-12.496,5.859-21.853,6.999-33.995c-8.742-3.104-17.826-15.923-12.998-25.997l1.167,1.5l1.833-0.5
			c-0.022,2.355,1.722,2.944,1,5.999c8.28-1.386,8.533-10.797,15.998-12.998c3.479,6.163,2.858,10.922,10.999,12.998
			c0.761-5.094-3.613-5.053-5-7.999c-1.748-4.251-3.411-8.587-5.999-11.998c-6.862,0.395-9.436,4.852-14.999,3.999
			c-0.546,1.453,1.168,5.168-1,5l-1.167-1.5l-1.833,0.5c0.438-3.438-0.395-5.604-1-7.999c2.726-1.274,4.079-3.92,4.999-7l1.167,1.5
			l1.833-0.5c0,1,0,2,0,3c10.256-1.075,12.836-9.827,16.998-16.998l0.7,1.7l1.3,1.3c-0.086,1.419-0.165,2.832,1,3
			c17.064-15.926,61.877-13.846,81.99,2l-1.5,1.167l0.5,1.833c-3.844,0.159-6.944-1.783-9.999-3c-2.97-1.184-7.032-1.876-8.999-3
			c-2.25-1.286-0.251-2.262-3-3c-3.801-1.02-9.945,0.034-15.998-1l0.5-1.5l-1.5,0.5c-16.661,1.463-41.9,1.761-43.995,20.997
			c3.465,3.867,4.736,9.929,10.999,10.999c2.024-4.642,2.203-11.128,2-17.998c2.714-4.618,7.337-7.327,13.998-7.999l-0.5,1.833
			l1.5,1.167c2.438,2.422-2.427,2.648-5,3c-8.815,11.635-4.301,30.417-13.998,40.995c4.278,0.278,4.944-3.055,9.999-2
			c-0.184-0.851,0.39-0.943,1-1l1.167,1.5l1.833-0.5c-0.61,3.943,5.49,1.176,7.999,2c1.167-1.834,2.614-3.386,4-5l1.167,1.5
			l1.833-0.5c0.726,3.059-1.725,2.941-1,5.999c2.752,0.581,4.176,2.489,6.999,3c3.931-2.401,0.191-12.474,4-14.998l1.167,1.5
			l1.833-0.5c-1.146,10.571-3.396,20.43,7.999,20.998c1.151-1.182,1.132-3.534,1-5.999l1.833,0.5l1.167-1.5
			c4.214,6.118,2.741,17.923,11.999,18.997c-2.662-17.785-6.786-31.959-1-48.993c-1.446-3.887-3.523-7.143-5.999-9.999l1.7-0.7
			l1.3-1.3c9.352,1.887,10.124,11.618,6.999,20.998c19.499,1.552,20.859-11.171,10.999-20.998l1.7-0.7l1.3-1.3
			c5.419,0.247,4.134,7.198,8.999,7.999c-0.985-12.305,5.97-25.112,2-33.996c1.157-2.509,3.984-3.349,4-6.999
			c0.658-3.658-2.164-3.836-2-7c0.279-2.054,2.671-1.995,4-3c0.256-3.922-3.616-3.716-3-7.999c3.988-0.989,3.011,2.988,6.999,2
			c-0.261-2.927,2.261-3.072,2-6c-0.845-2.155-6.374,0.375-7-2c0.291-10.778-10.239-22.203-7.999-34.996
			c-18.863,5.576-32.44-2.683-40.995-12.999c-2.608,5.125-4.317,11.616-5,15.998c-5.679,5.986-15.496,7.834-20.997,13.998
			c-0.684,1.983-5.957-0.624-5,3c2.945,5.72,12.178,5.153,12.999,12.998c-4.328,3.671-5.446,10.553-10.999,12.999
			c-4.759-2.907-3.557-11.774-10.999-11.999l-1.167-1.5l-1.833,0.5c0.386-4.893,2.731-6.284,1-10.999
			c8.096-3.822,13.228-17.657,6.999-26.997l1.3-1.3l0.7-1.7c2.78,0.553,2.8,3.866,4,5.999c9.559-2.439,5.791-18.207,8.999-26.997
			c-6.702-2.722-12.563-1.662-15.998,3l-0.7-1.7l-1.3-1.3c0.658-6.008,8.229-5.103,11.999-7.999c3.891,1.104,9.435,2.469,12.998,1
			c1.004,1.593,0.946,4.023,3,2c2.921-5.795,1.423-17.449,6.999-22.997c-7.679-0.215-11.674,3.216-18.998,6
			c-4.915,1.868-11.585,2.634-13.999,4c-7.895,4.465-8.247,14.522-14.998,19.998c-0.622,8.857-6.643,21.352-2,28.996
			c2.472-2.861,2.292-8.373,6-9.999l1.214,1.357l1.785-0.357c-3.113,8.552-6.31,17.02-8.999,25.997l-1.166-1.5l-1.833,0.5
			c-4.558-14.204-5.891-24.118-2-39.995c1.783-7.277,4.593-9.72,7.999-14.998c1.618-2.507,1.882-5.609,3-6.999
			c9.559-11.896,27.202-13.126,41.995-18.998c1.368-3.623,7.423-10.984,3-13.999c-14.665,9.202-36.861,17.554-51.994,33.996
			c-1.791,1.945-4.537,6.481-6.999,9.999c-5.839,8.342-9.186,15.333-9.999,26.997c-0.329,4.712-0.762,12.163,1,16.998
			c0.393,1.078,2.732,1.415,3,2c0.466,1.019-0.615,3.08,0,4c1.624,2.428,5.776,5.088,7.999,6.999c0.191,0.165,0.78-0.132,1,0
			l1.214,1.357l1.786-0.357c-0.903,3.763-2.149,7.184-4,9.999l-1.167-1.5l-1.833,0.5c0-0.667,0-1.333,0-2
			c-3.508-1.491-3.164-6.835-7.999-6.999c0.789-7.5-6.154-12.67-6.999-19.998c-4.07-35.27,23.965-53.412,39.995-70.991
			c5.633-0.034,7.971-3.361,10.999-6c12.268-3.73,21.875-10.122,29.996-17.998c9.256-0.743,12.95-7.047,18.998-10.999
			c4.556-1.443,11.096-0.902,15.998-2l1.167,1.5l1.833-0.5c0.111,4.776-4.093,5.239-4.999,8.999l-1.167-1.5l-1.833,0.5
			c-5.416-7.015-24.573,8.354-26.997,12.998c-1.609,3.084-2.285,7.234,0,8.999c8.452-2.547,9.284-12.714,20.998-11.999
			c0.556-2.443,2.346-3.653,4-5l1.167,1.5l1.833-0.5c-0.61,3.943,5.49,1.176,7.999,2c0.112-2.555,1.833-3.5,3-5l1.167,1.5l1.833-0.5
			c1.448,2.687-2.854,6.731-4.999,8.999c-1.243,11.762-10.693,20.629-8.999,31.996c9.084-1.579,24.597,4.575,25.997,16.998
			c4.81,0.144,3.862-5.471,7-6.999c7.551,0.631,9.779-4.337,9.999-7.999c0.604-10.084-16.092-14.014-19.998-19.998
			c4.316-13.349,12.786-22.543,17.998-34.996c3.413-0.253,4.804-2.528,8.999-2c6.15,3.669,10.095,4.347,15.998,8.999
			c-2.579,1.373-0.222,6.126,0,7.999c4.192-0.14,4.084-4.581,3.999-8.999c-7.313-4.707-4.805-15.911-11.998-20.997
			c-7.518-5.315-18.762-1.902-27.997,2c0.279,2.279-0.241,3.759-2,4l-0.7-1.7l-1.3-1.3c-1.377-8.043,7.467-5.865,8-11.999
			c-5.702,0.964-10.751,2.581-14.999,5l-1.214-1.357L385.978,53.997z M424.973,82.993c-3.961-0.705-3.794-5.539-9.999-3.999
			c-5.24,9.091-12.071,16.592-14.998,27.996c5.552,0.448,6.399,5.6,10.999,6.999C415.179,103.196,424.259,97.277,424.973,82.993z
			 M541.958,91.992c9.155,1.296,15.045-3.169,20.997,0c0,1.667,0,3.333,0,5c-1.427,0.239-1.687,1.646-2.999,2
			c-10.764,0.986-26.626,0.519-33.996-4.999c-2.897-3.768-3.831-9.5-9.999-9.999c1.257,10.409,7.42,15.911,11.999,22.997
			c14.29,1.742,28.382,3.051,37.995-5.999c0.43-8.768-2.196-14.431,3-17.998C557.509,84.183,550.669,86.661,541.958,91.992z
			 M357.981,105.99c-0.812-3.458,1.867-4.221,0-5.999c-9.424,4.076-16.68,15.086-14.998,26.997
			c7.205-3.715,7.715,5.696,12.999,6.999c9.25-6.467,12.213-26.62,17.998-37.995c-10.385-2.386-9.48,6.518-12.999,10.999l-1.167-1.5
			L357.981,105.99z M430.972,103.991c3.642,1.558,5.407-6.875,2-5.999C433.455,101.141,429.902,100.255,430.972,103.991z
			 M514.961,102.991c-13.961,12.036-25.301,26.692-34.995,42.995c3.121,0.878,3.283,4.716,5.999,6
			c6.235-7.097,12.179-14.485,16.998-22.997c7.36-4.971,12.592-12.072,18.998-17.998
			C520.009,107.103,518.289,102.897,514.961,102.991z M436.971,106.99c-1.554,3.555,3.396,0.604,3,3
			c-6.929,13.135,2.593,33.497-8.999,42.994c6.407,1.54,8.078-9.771,11.999-13.998c0.416-9.042,0.006-23.481-2-31.996
			C439.491,105.832,438.45,105.832,436.971,106.99z M421.973,132.987c0.04,5.706,0.771,12.102-2.999,13.998
			c-2.33-2.793-0.27-7.755-3-7.999c-4.982,1.351-9.544,3.121-10.999,7.999c0.091,1.576,2.551,0.783,2,3
			c-0.556,3.637-4.845,4.401-5.999,8.999c-2.507,9.982,1.344,24.618,7.999,24.997c9.213,0.525,9.061-13.537,9.999-21.998
			c-6.371-1.344-12.289,3.006-16.998,0c2.735-10.307,15.798-4.156,23.997-8.999c-3.798-5.171,5.016-6.285,4.999-10.999
			c0.094-5.239,1.664-9.001,1-14.998C426.484,126.833,426.459,132.141,421.973,132.987z M340.983,140.986
			c-0.306-2.031,2.889,0.205,3,1c-1.049,2.617-2.877,4.456-6,5c-2.891,1.206-4.558-5.996-4.999-1
			c1.927,5.445,0.895,7.15,4.999,11.999c1.612,1.904,7.187,4.284,7.999,5c2.296,2.021,3.065,5.043,5,5.999
			c10.149,5.015,24.435-0.694,35.996-3c2.917-5.749,7.675-9.656,10.999-14.998c-11.243,3.718-16.199,16.052-31.996,11.999
			c-0.889-0.228-6.57-3.705-7.999-5c-5.919-5.361-12.579-18.058-12.999-20.997c-0.06-0.419,4.486-3.313,0-3
			C346.569,138.63,337.467,137.726,340.983,140.986z M366.98,156.984c12.088,0.857,20.622-6.39,16.998-17.998
			c-3.219,0.22-4.23-1.769-7.999-1c-5.999,9.999-6.699,8.299-6.699,8.299l-1.3-1.3c0-1,0-2,0-3c-2.433-1.899-8.365-0.3-10.999-2
			c-4.35,3.375,0.375,6.906,1,10.999c5.168,0.835,6.726-1.94,8.999-4l1.167,1.5l1.833-0.5
			C369.979,147.985,366.628,151.123,366.98,156.984z M327.985,148.985c-11.133-4.843-10.026,9.747-6.999,15.998
			c-1.362,8.304-10.529,8.802-10.999,17.998c11.805-1.252,19.981-14.637,19.998-30.996
			C328.728,151.575,327.941,150.695,327.985,148.985z M471.967,166.983c0.992-1.569,5.535,1.73,4.999,5
			c3.456-0.877,6.564-2.102,7.999-5c-1.891-0.224-2.206,1.127-3.999,1c-3.629-4.97,3.265-13.37-5-15.998
			C473.722,156.596,467.463,161.323,471.967,166.983z M426.973,161.983c-2.391,4.378-4.583,10.489-3,15.998
			c13.435-3.563,32.358-1.638,40.995-9.999c1.53-0.021-0.501-4.717-1-6C453.088,161.269,436.014,161.715,426.973,161.983z
			 M385.978,178.981c0.691-1.975,2.667-2.666,5-3c3.412,5.221-0.894,14.081,5.999,16.998c3.765-8.308-1.253-15.912-1-23.997
			c-5.265,1.401-8.124,5.208-12.998,7c0.934,0.733,1.515,1.818,2,3h-1v1c-1.675,2.915-2.047,11.632,2,11.998l-0.5,1.5l1.5-0.5
			c0.49,6.176,1.637,11.694,5.999,13.999c-0.184-6.149-2.378-10.287-5-13.999l0.5-1.5l-1.5,0.5c0.708-5.374-1.141-8.191-2-11.998
			l1.5,0.5L385.978,178.981z M407.975,191.979c-2.064,1.86-2.03,4.788-3.999,7.999c-3.872,6.315-9.923,12.262-8.999,19.998
			c2.28-4.478,6.507-5.54,9.998-9.999c5.783-7.384,6.573-21.877,16.998-20.998c-2.213,8.785-8.751,13.246-10.998,21.998
			c-5.132,4.534-10.345,8.986-12.999,15.998c17.788-7.209,25.911-24.083,31.996-42.995
			C421.763,185.314,413.218,187.256,407.975,191.979z M398.976,231.975c-3.084-0.265-6.107-3.598-7.999-2
			c-2.251,2.415-3.585,5.748-4,9.999c6.557-1.041,10.869,0.411,18.997,0c8.521-9.144,21.081-14.248,27.997-24.997
			c-4.277-1.722,1.073-13.072-5-12.999C422.346,215.196,412.805,229.087,398.976,231.975z M303.988,208.978
			c0.012-1.321,1.752-0.914,2-2c-1.889-0.111-0.694-3.306-3-3C301.403,205.474,302.252,208.068,303.988,208.978z M257.994,301.966
			c4.023,6.769,11.924,4.505,15.998,9.999c2.589-1.743,4.648-4.018,5.999-6.999c-2.765-6.234-8.711-9.286-12.999-13.999
			C264.732,295.373,259.429,296.735,257.994,301.966z M353.981,377.956c1.02-1.313,0.98-3.686,2-4.999
			C352.3,373.253,353.185,377.39,353.981,377.956z M316.986,394.954c13.442-0.28,21.524-1.642,32.996-4.999
			c-1.53-5.469-2.433-11.565-5-15.998C331.117,373.356,307.882,379.166,316.986,394.954z M321.985,399.954
			c-2.137,1.195-1.952,4.714-4.999,4.999c2.9,5.175-1.251,10.957,0,15.998c1.324,5.337,5.684,7.437,9.999,9.999
			c3.415-5.481,14.125-3.542,18.998-5c4.556-7.66,6.151-18.153,6.999-24.997C344.913,392.866,335.582,404.187,321.985,399.954z
			 M329.984,435.949c1.165,0.168,1.086,1.58,1,3c4.334,0.998,10.238,0.427,10.999,4.999c-2.556,2.582-4.369,0.728-7.999,3
			c0,1.666,0,3.333,0,4.999c4.004-1.675,3.266-3.548,8.999-2c2.808-5.731,0.224-11.176,2-16.998
			C339.142,433.108,332.532,432.497,329.984,435.949z M334.984,461.946c4.646,0.979,6.037-1.296,8.999-2
			C345.983,450.855,334.629,457.653,334.984,461.946z M335.984,468.945c0.826,2.826-1.409,2.59-1,4.999
			c1.737,2.596,6.64,2.026,10.999,2c-0.142-3.857,0.781-8.78-2-9.999C343.148,468.777,337.84,467.135,335.984,468.945z
			 M342.983,479.943c-0.223,3.11-4.977,1.689-7.999,2c0.516,4.058-2.56,8.156-3,13.998
			C338.899,496.483,349.843,483.259,342.983,479.943z"/>
		<path fill-rule="evenodd" clip-rule="evenodd" d="M230.164,404.453l1.833-0.5c0,1.333,0,2.666,0,4
			c7.116,8.077,21.171,3.361,30.996,2.999c5.011-0.654,3.124-8.208,9.999-6.999c-2.561,11.432,1.48,15.614,8.999,18.998
			c3.426-1.643,0.588-3.344,2-6.999c6.619,0.032,13.747-2.762,18.998-1c-0.058,4.615,0.155,10.81,6,11.998
			c-1.118,8.853,4.669,15.218-1,21.997c-0.396,2.396,4.554-0.555,3,3c-1.258,13.073-13.97,14.693-17.998,24.997
			c-9.312,4.687-13.878,14.118-22.997,18.997c-9.595-3.824-15.45,4.354-20.998,4c-0.929-17.776,2.23-36.935,8.999-49.994l1.167,1.5
			l1.833-0.5c0,1,0,2,0,3c5.269,3.396,13.236,4.095,16.998,8.999c-4.874,4.118-11.72-2.786-16.998-2
			c2.293,5.706,9.032,6.966,13.998,9.999c6.79-8.543,16.13-14.533,18.998-26.997c-6.625,1.708-12.426,4.238-19.998,4.999
			c-1.606-3.06-3.529-5.803-7.999-5.999c-0.068,2.932-2.286,3.714-4,4.999l-1.167-1.499l-1.833,0.5
			c-0.988-3.988,2.989-3.012,2-6.999c-10.5-4.499-20.068-9.928-23.997-20.998c-5.096-1.57-6.943-6.389-9.999-9.999
			c0.105-2.561,0.566-4.767,2-5.999L230.164,404.453z M267.992,417.951c-8.312-2.144-16.398,0.558-23.997,2
			c2.19,3.003,8.608,10.119,11.999,11.999c1.771,0.98,4.844,0.175,6.999,0.999c3.391,1.298,6.16,3.838,8.999,5
			c10.674,4.366,17.198,3.35,21.998-5C285.843,427.431,271.472,428.137,267.992,417.951z M293.989,425.95
			c0.147-2.479,0.186-4.852-2-4.999c-0.272,2.062-4.428,0.238-4,3c6,1.999,6.499,3.499,6.499,3.499l1.5-0.5
			c-2.937,2.937,6.609,3.609,3,0c-3,0-3.5-1.5-3.5-1.5L293.989,425.95z M274.991,476.944c1.137,3.766-0.957,4.554,2,5.999
			c5.865-5.8,11.22-12.11,17.998-16.998c-1.168-2.614,3.085-4.301-1-3.999C287.379,466.668,281.549,472.17,274.991,476.944z
			 M256.994,489.942c1.425-2.241,5.424-1.908,6.999-3.999c-2.687-7.245,3.439-7.526,5-12.999c-6.228,0.562-6.063-5.269-11.999-4.999
			C256.642,475.943,251.435,484.484,256.994,489.942z"/>
		<path fill-rule="evenodd" clip-rule="evenodd" d="M357.148,111.49l1.833-0.5c-1.877,6.955,3.911,16.195-2,17.998
			c-6.122-1.689-2.205-15.097-1-18.998L357.148,111.49z"/>
		<path fill-rule="evenodd" clip-rule="evenodd" d="M290.823,165.483l-1.833,0.5c1.797-4.78,0.299-7.019-2-9.999
			c2.903-0.763,2.594-4.739,7-4l1.166,1.5l1.833-0.5c-1.821,7.053,0.982,7.936,3,12.999l-1.786-0.357l-1.214,1.357
			c-3.235,1.236-0.764-3.235-4-2c0.163,1.163-0.221,1.779-1,2L290.823,165.483z"/>
		<path fill-rule="evenodd" clip-rule="evenodd" d="M290.156,216.477l1.833-0.5c0,0.667,0,1.333,0,2
			c2.981,4.352,9.555,5.11,13.998,7.999c-0.122,2.544-1.455,3.877-4,4c-5.375-0.625-8.108-3.89-12.998-5
			c0.163,1.163-0.221,1.779-1,2l-1.167-1.5l-1.833,0.5c-0.144-5.143,2.483-7.515,4-10.999L290.156,216.477z"/>
		<path fill-rule="evenodd" clip-rule="evenodd" d="M305.987,261.471l-1-1.5c1.955-4.377,8.675-3.99,14.998-4l0.5,1.5l0.5-1.5
			c7.516,4.815,19.422,5.241,23.997,12.999l-1.357,1.214l0.357,1.786c-7.815-4.184-16.514-7.483-24.997-10.999
			c-3.639,1.058-11.344,3.28-13.998,2L305.987,261.471z"/>
		<path fill-rule="evenodd" clip-rule="evenodd" d="M300.488,342.461l-0.5-1.5c8.051,0.053,8.023-7.975,15.998-7.999l-0.5,1.833
			l1.5,1.167c-3.162,4.171-7.731,6.934-10.999,10.998c1.753,0.914,3.474,1.859,3,5l-1.5-0.5l-0.5,1.5
			c-4.99-1.01-5.248-6.751-7.999-9.999L300.488,342.461z"/>
		<g>
			<path fill-rule="evenodd" clip-rule="evenodd" fill="none" stroke="#000000" stroke-width="3.1087" stroke-linecap="round" d="
				M326.485,227.809c-1-0.214-2-0.406-3-0.667"/>
			<path fill-rule="evenodd" clip-rule="evenodd" fill="none" stroke="#000000" stroke-width="3.2256" stroke-linecap="round" d="
				M326.152,213.477c2.345-6.703,3.868-13.619,7.532-19.797"/>
			<path fill-rule="evenodd" clip-rule="evenodd" fill="none" stroke="#000000" stroke-width="3.37" stroke-linecap="round" d="
				M333.817,218.477c-0.143-6.23,3.335-12.295,5.999-17.998"/>
			<path fill-rule="evenodd" clip-rule="evenodd" fill="none" stroke="#000000" stroke-width="2.2489" stroke-linecap="round" d="
				M347.482,235.474c0.431-9.373,4.59-18.782,6.999-27.997"/>
			<path fill-rule="evenodd" clip-rule="evenodd" fill="none" stroke="#000000" stroke-width="3.9178" stroke-linecap="round" d="
				M305.688,496.642c2.769-4.503,7.836-6.202,11.999-8.999"/>
			<path fill-rule="evenodd" clip-rule="evenodd" fill="none" stroke="#000000" stroke-width="3.2245" stroke-linecap="round" d="
				M259.16,451.447c1.01-2.036,1.203-3.269,1.667-4.999"/>
			<path fill-rule="evenodd" clip-rule="evenodd" fill="none" stroke="#000000" stroke-width="3.1087" stroke-linecap="round" d="
				M230.164,404.453c0.214-1,0.407-2,0.667-3"/>
			<path fill-rule="evenodd" clip-rule="evenodd" fill="none" stroke="#000000" stroke-width="3.0063" stroke-linecap="round" d="
				M231.164,387.455c1.113-6.526,6.859-11.135,9.132-17.197"/>
			<path fill-rule="evenodd" clip-rule="evenodd" fill="none" stroke="#000000" stroke-width="3.3329" stroke-linecap="round" d="
				M251.161,288.468c0.983-2.238,1.265-4.625,1.667-6.999"/>
			<path fill-rule="evenodd" clip-rule="evenodd" fill="none" stroke="#000000" stroke-width="3.0452" stroke-linecap="round" d="
				M256.16,268.47c7.322-19.34,11.727-39.506,18.665-58.993"/>
			<path fill-rule="evenodd" clip-rule="evenodd" fill="none" stroke="#000000" stroke-width="2.6454" stroke-linecap="round" d="
				M375.146,74.495c5.694-6.179,6.862-14.675,12.618-20.855"/>
			<path fill-rule="evenodd" clip-rule="evenodd" fill="none" stroke="#000000" stroke-width="3.4855" stroke-linecap="round" d="
				M382.145,86.493c5.029-7.717,8.782-16.37,15.131-23.197"/>
			<path fill-rule="evenodd" clip-rule="evenodd" fill="none" stroke="#000000" stroke-width="3.4274" stroke-linecap="round" d="
				M368.146,88.493c0.121-2.638,1.684-4.676,2.666-6.999"/>
			<path fill-rule="evenodd" clip-rule="evenodd" fill="none" stroke="#000000" stroke-width="3.5351" stroke-linecap="round" d="
				M357.148,111.49c0.447-2.213,1.905-3.922,2.666-5.999"/>
			<path fill-rule="evenodd" clip-rule="evenodd" fill="none" stroke="#000000" stroke-width="3.3989" stroke-linecap="round" d="
				M278.205,201.336c1.346-2.454,1.537-5.289,2.619-7.856"/>
			<path fill-rule="evenodd" clip-rule="evenodd" fill="none" stroke="#000000" stroke-width="3.3162" stroke-linecap="round" d="
				M289.204,169.34c0.785-1.771,1.207-2.767,1.619-3.857"/>
			<path fill-rule="evenodd" clip-rule="evenodd" fill="none" stroke="#000000" stroke-width="3.6051" stroke-linecap="round" d="
				M295.155,153.484c0.879-1.809,1.681-3.772,3.133-5.199"/>
			<path fill-rule="evenodd" clip-rule="evenodd" fill="none" stroke="#000000" stroke-width="3.3907" stroke-linecap="round" d="
				M369.28,146.286c-0.538,0.785-0.783,1.475-1.133,2.2"/>
			<path fill-rule="evenodd" clip-rule="evenodd" fill="none" stroke="#000000" stroke-width="3.7775" stroke-linecap="round" d="
				M358.481,263.138c3.07,1.374,5.757,3.799,8.199,6.132"/>
			<path fill-rule="evenodd" clip-rule="evenodd" fill="none" stroke="#000000" stroke-width="3.54" stroke-linecap="round" d="
				M275.691,255.672c4.182-9.686,6.632-20.223,11.132-30.196"/>
			<path fill-rule="evenodd" clip-rule="evenodd" fill="none" stroke="#000000" stroke-width="3.3462" stroke-linecap="round" d="
				M290.156,216.477c0.374-2.987,2.435-5.327,3.666-7.999"/>
			<path fill-rule="evenodd" clip-rule="evenodd" fill="none" stroke="#000000" stroke-width="3.5351" stroke-linecap="round" d="
				M301.288,169.683c-1.284-1.124-2.685-2.297-3.085-4.057"/>
			<path fill-rule="evenodd" clip-rule="evenodd" fill="none" stroke="#000000" stroke-width="1.2908" stroke-linecap="round" d="
				M383.978,178.981c0.65,0.292,1.619,0.838,2.5,1.5"/>
			<path fill-rule="evenodd" clip-rule="evenodd" fill="none" stroke="#000000" stroke-width="1.2908" stroke-linecap="round" d="
				M385.478,193.479c1-0.642,2-1.22,3-2"/>
			<path fill-rule="evenodd" clip-rule="evenodd" fill="none" stroke="#000000" stroke-width="3.0818" stroke-linecap="round" d="
				M302.488,261.804c0.971-0.233,2.228-0.254,3.5-0.333"/>
			<path fill-rule="evenodd" clip-rule="evenodd" fill="none" stroke="#000000" stroke-width="1.2246" stroke-linecap="round" d="
				M320.486,257.472c-0.147-1.013,0.168-2.552,1-4"/>
			<path fill-rule="evenodd" clip-rule="evenodd" fill="none" stroke="#000000" stroke-width="3.0531" stroke-linecap="round" d="
				M297.155,305.466c1.325-8.118,8.189-13.866,9.332-21.998"/>
			<path fill-rule="evenodd" clip-rule="evenodd" fill="none" stroke="#000000" stroke-width="3.5114" stroke-linecap="round" d="
				M312.153,303.466c1.005-3.712,2.531-7.269,3.333-10.999"/>
			<path fill-rule="evenodd" clip-rule="evenodd" fill="none" stroke="#000000" stroke-width="3.1619" stroke-linecap="round" d="
				M325.152,298.466c0.618-1.948,0.237-3.995,0.333-5.999"/>
			<path fill-rule="evenodd" clip-rule="evenodd" fill="none" stroke="#000000" stroke-width="3.369" stroke-linecap="round" d="
				M337.817,313.465c-1.88-6.519-0.169-13.32-0.333-19.998"/>
			<path fill-rule="evenodd" clip-rule="evenodd" fill="none" stroke="#000000" stroke-width="3.3907" stroke-linecap="round" d="
				M345.683,271.27c-0.393-0.35-1.215-0.717-2.057-1.086"/>
			<path fill-rule="evenodd" clip-rule="evenodd" fill="none" stroke="#000000" stroke-width="2.1445" stroke-linecap="round" d="
				M297.489,341.961c1-0.029,2,0.229,3,0.5"/>
			<path fill-rule="evenodd" clip-rule="evenodd" fill="none" stroke="#000000" stroke-width="2.6454" stroke-linecap="round" d="
				M319.986,331.962c-1.205,0.958-2.765,2.117-4.5,2.833"/>
			<path fill-rule="evenodd" clip-rule="evenodd" fill="none" stroke="#000000" stroke-width="3.3334" stroke-linecap="round" d="
				M286.157,365.458c-0.402-6.583,0.97-13.335,0-19.997"/>
			<path fill-rule="evenodd" clip-rule="evenodd" fill="none" stroke="#000000" stroke-width="3.2451" stroke-linecap="round" d="
				M314.344,361.744c-4.087-1.949-4.984-6.622-6.856-10.284"/>
			<path fill-rule="evenodd" clip-rule="evenodd" fill="none" stroke="#000000" stroke-width="3.4274" stroke-linecap="round" d="
				M257.494,364.125c4.939,5.415,11.651,10.209,13.998,17.331"/>
			<path fill-rule="evenodd" clip-rule="evenodd" fill="none" stroke="#000000" stroke-width="3.5618" stroke-linecap="round" d="
				M276.291,371.657c-5.23-7.249-11.01-14.224-15.083-22.055"/>
			<path fill-rule="evenodd" clip-rule="evenodd" fill="none" stroke="#000000" stroke-width="2.2358" stroke-linecap="round" d="
				M295.489,425.45c-0.333,0.667-0.667,1.334-1,2"/>
			<path fill-rule="evenodd" clip-rule="evenodd" fill="none" stroke="#000000" stroke-width="2.7383" stroke-linecap="round" d="
				M365.48,535.437c-0.418-0.744-1.11-1.525-2-2.333"/>
		</g>
	</g>
</g>
</svg>
