<?xml version="1.0" encoding="UTF-8" standalone="no"?>
<!-- Generator: Adobe Illustrator 15.1.0, SVG Export Plug-In . SVG Version: 6.00 Build 0)  -->

<svg
   xmlns:dc="http://purl.org/dc/elements/1.1/"
   xmlns:cc="http://creativecommons.org/ns#"
   xmlns:rdf="http://www.w3.org/1999/02/22-rdf-syntax-ns#"
   xmlns:svg="http://www.w3.org/2000/svg"
   xmlns="http://www.w3.org/2000/svg"
   xmlns:sodipodi="http://sodipodi.sourceforge.net/DTD/sodipodi-0.dtd"
   xmlns:inkscape="http://www.inkscape.org/namespaces/inkscape"
   version="1.1"
   id="Layer_1"
   x="0px"
   y="0px"
   width="800px"
   height="600px"
   viewBox="0 0 800 600"
   enable-background="new 0 0 800 600"
   xml:space="preserve"
   inkscape:version="0.48.5 r10040"
   sodipodi:docname="threerobs.svg"><metadata
     id="metadata123"><rdf:RDF><cc:Work
         rdf:about=""><dc:format>image/svg+xml</dc:format><dc:type
           rdf:resource="http://purl.org/dc/dcmitype/StillImage" /></cc:Work></rdf:RDF></metadata><defs
     id="defs121" /><sodipodi:namedview
     pagecolor="#ffffff"
     bordercolor="#666666"
     borderopacity="1"
     objecttolerance="10"
     gridtolerance="10"
     guidetolerance="10"
     inkscape:pageopacity="0"
     inkscape:pageshadow="2"
     inkscape:window-width="1366"
     inkscape:window-height="720"
     id="namedview119"
     showgrid="false"
     inkscape:zoom="0.73952369"
     inkscape:cx="400"
     inkscape:cy="280.02955"
     inkscape:window-x="0"
     inkscape:window-y="0"
     inkscape:window-maximized="1"
     inkscape:current-layer="Layer_1" /><g
     id="g3"><g
       id="g5"><path
         d="M103.121,221.86c1.671-2.422,2.655-5.545,4.685-7.604c4.595,2.566,8.93,11.962,3.748,16.159l-1.093-1.425l-1.718,0.475    c-2.043-1.987,0.469-2.713,0-5.703c-0.937,0-1.874,0-2.811,0l-1.219-1.236L103.121,221.86z"
         id="path7" /><path
         d="M104.838,246.1l1.094-1.426c1.774,2.867-1.633,11.247,0,14.258c-4.746,0.695-6.877-1.263-9.37-2.852l1.405-1.109    l-0.468-1.742c3.089-1.302,4.307-4.501,5.622-7.604L104.838,246.1z"
         id="path9" /><path
         d="M95.157,254.338l0.469,1.742c-2.909-0.099-2.675,2.991-6.559,1.901c0.855-6.857,5.093-10.655,7.496-18.061l1.093,1.426    l1.718-0.475c1.367,6.14-4.786,8.646-2.811,12.358L95.157,254.338z"
         id="path11" /><path
         d="M122.797,236.119c1.753-5.824,0.647-14.552,6.56-16.159c3.342,2.312,3.895,7.454,7.496,9.505    c3.384-0.368,2.354-5.216,7.495-3.803c-1.147,8.343-5.077,14.938-8.432,23.764c-0.991,2.604-3.243,5.602-3.748,7.604    c-1.546,6.125-0.458,11.45-5.623,15.208c-4.997-0.635-7.083-4.221-12.18-4.753c0.014-2.521-0.521-5.597,1.875-5.703l1.406,0.476    l0.468-1.426c1.732,0.143,0.574,3.218,1.874,3.803c1.562,0,3.124,0,4.686,0c2.152-8.906,6.18-15.911,8.433-24.714    c-3.006-1.069-3.381-4.808-7.496-4.752c0.152,1.106-0.208,1.691-0.937,1.901l-0.469-1.426L122.797,236.119z"
         id="path13" /><path
         d="m 153.718,89.737 c 9.46898,-20.758874 34.29776,-5.188368 45.5895,0.444719 25.7229,14.633781 7.58917,40.713411 12.83599,62.735021 5.24412,14.3315 -17.65161,38.44031 7.62833,32.56926 22.06828,-4.21042 25.8625,-32.69004 43.10727,-45.36923 19.22514,-7.54811 -6.14517,-31.5843 16.39391,-35.17277 9.3544,5.32033 5.02031,24.68645 20.51326,13.4146 12.00202,-8.67046 39.22221,-11.45624 30.42144,10.21484 -3.22529,24.96368 -34.03948,15.57506 -49.14896,22.8555 -15.91218,13.89985 -30.60892,31.62948 -31.51558,52.4629 -14.72581,7.26517 -48.93466,-4.62336 -44.80603,23.63178 3.21245,21.46564 -17.99208,39.7704 -35.5881,45.45673 -32.05069,-8.26129 -6.25259,40.55717 -32.07791,46.2956 -24.1779,-3.45202 -13.3519,23.45879 -8.89878,37.33369 15.629,14.12799 13.13954,35.20818 -2.56634,48.70336 8.84687,19.61451 -7.93595,38.54671 -4.82565,58.4834 -3.46902,21.10536 1.70533,37.78676 17.0993,51.99469 7.04649,13.73871 21.56642,37.02044 4.61891,47.14461 -18.08103,-5.47285 -34.51682,-16.33609 -53.255701,-21.32018 -10.83285,-8.05672 -29.376925,-11.87633 -15.371156,-28.36097 12.946449,-11.78616 -6.241374,15.40631 10.455453,11.34632 17.167554,5.78681 36.666554,6.97789 49.712844,19.49013 -8.1075,8.98173 -25.12257,-12.51758 -38.698281,-10.05686 -25.947571,-5.39827 16.814961,9.50665 24.223701,12.50336 4.95704,7.99547 31.57843,14.8789 22.20377,3.72936 -22.38872,0.91194 10.39675,-7.23639 -0.74936,-17.77086 -1.37233,-4.94527 -20.88527,7.09822 -9.42608,-5.14487 18.07905,-17.15043 -30.69382,12.30098 -10.64509,-6.16479 19.35352,-2.99075 -2.24126,-27.57413 -7.0085,-7.86051 -9.54216,12.54048 -19.877825,0.6266 -17.38016,-11.05883 -20.726049,1.18085 13.33428,-7.81909 5.24963,-20.46837 2.49454,-18.5773 -8.97596,-31.56594 -20.24363,-44.16863 8.316794,-17.96436 -14.13287,-44.04064 16.674938,-48.30988 9.477852,1.0919 29.167152,-5.03369 9.366642,-7.41902 -18.90284,-3.63102 -26.416281,28.08222 -41.611971,17.11957 -17.410778,2.13671 -26.272276,31.06626 -49.949408,18.17778 -6.9130064,-0.55807 -9.7989491,9.52576 -9.695451,-5.18433 -0.69524,-15.46002 17.746806,9.57345 29.30325,0.89888 10.434065,-8.13971 13.022334,-17.04657 17.737531,-22.03202 8.318737,8.96989 3.259617,-15.98881 11.297953,-0.29189 18.03789,13.7503 19.087913,-19.89142 39.209526,-14.22699 12.65588,-4.09977 25.36537,10.4106 25.7115,15.18535 13.81229,-15.95988 -6.65458,-28.79182 -18.30917,-38.02458 -4.75668,-3.00128 -10.87654,-9.73586 -8.18234,-0.49187 -9.466201,3.31033 -17.429057,2.2813 -7.496,-4.751 -17.177326,-7.90819 -36.04892,-20.56235 -53.408,-3.802 1.143405,19.06048 15.238223,15.7199 28.578,19.009 -8.705748,7.30449 -18.760953,-1.17102 -27.743125,7.707 3.304837,-4.27122 -6.647993,-28.99673 -7.36275,-9.09437 13.624451,11.78222 -23.720705,13.38968 -3.299156,19.67478 8.664269,5.03273 -20.132418,9.21482 -15.191969,8.61459 2.45416,-8.0887 0.822257,-19.75765 14.71,-22.148 -8.662426,-15.9024 17.703202,-31.64178 -4.299875,-42.18912 -6.967966,-6.873 1.425787,-22.10598 2.426875,-8.18788 9.513603,-4.85701 15.167604,-20.10982 20.928484,-1.93992 8.657954,6.37715 -5.206376,-25.24216 -13.421234,-14.72533 -7.58409,2.13353 -9.641966,11.82712 -11.25625,-2.34575 5.146426,-12.08578 11.866648,3.53074 19.205564,-11.17291 4.695024,-15.49713 5.424983,4.20958 14.15067,-7.0181 22.162826,-9.43481 49.866046,-7.00468 69.713766,6.78401 -8.43452,7.68647 -23.57223,-11.94891 -36.543,-6.655 -9.71585,-1.36307 -36.676443,-0.25236 -41.550027,15.78768 0.709634,17.32588 16.789633,13.66581 11.566027,-3.43068 4.73989,-11.64842 23.122125,-5.59573 7.960152,0.24998 -4.07021,10.63504 -8.148386,31.43616 -9.219355,36.49518 9.15417,-4.3946 16.611277,3.17162 24.09397,-3.31273 -2.896023,8.82277 13.208569,11.16266 8.387999,-2.94659 8.174254,-10.81008 -1.277855,27.02823 12.800484,15.59878 2.53004,-15.44064 12.52321,28.54556 13.09409,7.60987 -6.54223,-16.4616 3.04687,-37.53332 -4.50226,-50.34082 16.95754,-5.18662 0.99102,28.14663 18.90926,17.32839 12.91561,-4.05767 -7.3872,-31.54944 8.40633,-14.55176 5.81137,-5.3878 4.82892,-29.77127 7.38595,-40.99918 -2.11679,-5.73983 5.05173,-7.23315 -0.17362,-13.60712 7.397,5.82224 12.04742,-6.49773 1.873,-5.704 -2.94642,-9.88728 -6.00784,-29.03998 -10.75227,-32.42645 -14.09967,8.26614 -30.88723,-13.21378 -36.8324,-9.35377 5.09771,20.19369 -45.116601,22.2209 -17.033064,35.56639 4.698113,9.26232 -12.730124,24.77998 -14.849688,6.74677 -19.020151,-6.00217 13.139333,-25.47661 1.578828,-39.3878 3.045817,-4.33865 8.241846,10.03197 10.614924,-3.2518 7.543733,-18.70509 -2.949617,-21.18322 -14.24433,-18.72734 8.591771,-16.69098 33.07894,7.20988 29.145535,-18.83188 9.515715,-17.46514 -21.414021,2.24107 -29.74099,3.54672 -9.631398,9.96232 -19.956959,37.38969 -12.093561,42.33877 11.563445,-21.32819 2.46174,19.71933 -4.177984,17.62439 -8.116143,-19.88422 -3.205559,-41.79737 8.433,-58.933 10.303886,-16.59922 39.86731,-7.79354 43.65502,-28.56484 -14.721911,0.60081 -38.76909,17.70642 -51.621192,31.30979 C 40.897307,181.5381 34.444632,204.96506 43.153,221.861 c 8.646572,3.89787 15.870603,14.6443 4.684,16.159 C 40.199889,226.84153 30.424741,212.1117 34.040064,195.86981 37.411,173.25964 56.545114,158.52871 71.261,142.967 c 19.14338,-8.0988 37.10393,-19.89584 54.18279,-31.77101 11.39115,-9.49635 28.39821,1.28435 12.34321,5.15401 -12.25764,-11.29522 -38.972744,28.74412 -18.48593,16.05854 10.42174,-13.19724 21.65548,-6.5683 30.44309,-12.28256 5.48249,7.48226 -26.86585,41.63934 0.0862,40.33424 11.11089,0.39896 12.55093,23.94346 19.81764,8.16678 23.90311,-5.39906 -5.99166,-21.41238 -8.56781,-28.95081 4.77262,-18.50655 23.96653,-46.844896 38.43989,-22.79141 5.10326,14.66717 5.38988,-7.57508 -0.86696,-12.28528 -2.45433,-22.787233 -30.46715,-6.397459 -35.56412,-7.2635 -0.70937,-6.728404 15.67828,-14.012987 -0.0418,-9.54875 -4.14538,1.949718 -5.72169,2.571368 -9.32925,1.94975 z m 36.542,27.565 c -11.56067,-12.55293 -31.5663,23.77267 -15.81408,27.92512 6.38462,0.45612 15.29641,-19.65197 15.81408,-27.92512 z m 109.626,8.555 c 8.39855,-3.43344 30.75711,2.45967 12.88432,6.93396 -15.45509,3.02036 -27.91243,-4.5474 -37.24632,-14.53796 1.1789,22.68826 25.85129,28.89277 43.28306,18.94197 3.97487,-6.11666 10.47555,-27.47591 -4.18804,-18.02494 -5.24771,1.38365 -10.15142,3.81442 -14.73302,6.68697 z m -172.404,13.308 c -0.16569,-16.53181 -27.18407,22.96386 -7.28888,21.49962 11.44839,13.59779 22.35612,-27.71109 19.09956,-31.38152 -8.04703,-0.1927 -5.16394,12.20432 -11.81068,9.8819 z m 68.399,-1.901 c 7.1581,-0.56642 1.85546,-12.47443 0,0 z m 78.706,-0.951 c -10.49015,12.44267 -35.27773,30.11096 -28.71278,45.28806 9.9319,-8.9057 27.66753,-28.10453 33.91478,-40.44311 -1.11205,-2.00004 -2.43861,-4.856 -5.202,-4.84495 z m -73.084,3.802 c 2.00849,9.09336 1.78152,29.93502 -3.8083,41.91523 4.1396,3.80367 14.28543,-21.2591 9.07825,-30.99925 -1.32077,-2.58917 1.12404,-14.95628 -5.26995,-10.91598 z m -14.054,24.714 c 1.6518,9.0879 -3.18798,17.70059 -5.622,5.703 -12.78774,5.6776 -20.05617,28.57713 -8.76789,42.03877 13.75574,3.59695 17.15804,-30.62173 -0.839,-19.15105 -9.53262,-10.89882 22.10754,-2.68703 19.99064,-14.97185 6.00373,-5.54653 9.68683,-29.78684 -4.76175,-13.61887 z m -75.895,7.604 c 7.77665,1.90016 -6.786,7.03087 -7.496,4.753 4.28085,25.10311 41.85962,32.0088 55.60812,11.7365 12.00486,-17.12322 -22.52005,19.29495 -32.18212,-0.3295 -11.826,-4.90526 -8.60719,-34.09585 -15.93,-16.16 z m 24.362,15.209 c 17.10872,7.38939 21.88447,-27.63838 6.54844,-14.993 -2.83191,12.27744 -15.64189,-11.09932 -17.19819,3.80487 2.72345,13.29921 19.09045,-7.22519 10.64975,11.18813 l 0,0 z M 99.374,180.037 C 82.625432,177.64485 99.631162,202.32424 84.124516,207.10377 82.611994,225.76219 110.1198,186.78563 99.374,180.037 z m 134.924,17.11 c 3.59545,6.44216 16.87777,1.94348 7.57218,-0.95665 4.57314,-18.6991 -12.29532,-13.72082 -7.57218,0.95665 z m -42.164,-4.753 c -14.48669,24.10515 25.87909,12.32306 36.12923,4.97445 -2.91473,-10.91306 -26.86861,-2.68483 -36.12923,-4.97445 z m -38.416,16.159 c 8.2027,-10.59611 8.45629,28.22155 11.49987,4.64487 -0.13449,-12.66045 -3.85396,-16.8049 -14.30987,-7.49587 1.07241,10.05995 1.4887,19.97577 9.371,29.467 -1.63919,-10.78016 -8.43218,-18.64054 -6.561,-26.616 z m 20.614,12.357 c -5.86005,8.96134 -20.93422,37.15635 -2.812,17.11 0.65467,-8.53762 20.50632,-30.60522 12.31198,-11.86819 -1.83278,9.23876 -21.17996,24.57462 -15.8491,26.63635 13.61091,-6.05504 27.82362,-30.39292 24.06918,-38.97586 -6.22867,1.23096 -12.83599,2.77035 -17.72006,7.0977 z m -8.434,38.022 c -9.09479,-8.88908 -17.36896,13.50201 -2.89525,7.38 15.21718,0.2577 44.30829,-20.48089 31.00225,-35.897 -6.04319,11.86932 -14.16506,25.27211 -28.107,28.517 z M 76.885,237.07 c 4.953518,-3.88821 -5.624729,-6.70238 0,0 z m -43.1,88.399 c 6.205598,11.54644 29.679837,9.42185 15.058125,-4.34437 C 41.48143,310.22813 38.990799,318.63819 33.785,325.469 z m 89.949,72.24 c 5.24402,-8.12655 -2.70513,-4.71921 0,0 z m -34.668,16.16 c 14.86192,1.98084 43.06152,-4.92658 23.70563,-19.996 -10.51773,-0.0902 -31.998775,4.95852 -23.70563,19.996 z m 4.685,4.752 c -11.78445,11.06091 -1.841367,37.17243 15.69179,25.45272 15.66758,0.66686 19.19848,-38.51474 -2.89551,-25.41039 -4.16762,1.05131 -8.666087,1.31379 -12.79628,-0.0423 z m 7.496,34.219 c 8.00372,5.44632 13.54421,6.44729 3.749,12.79471 9.96403,9.87692 18.90317,-28.53936 -3.749,-12.79471 z m 4.686,24.715 c 16.21387,1.88189 5.98505,-14.88377 0,0 z m 0.937,6.654 c -0.96081,21.66244 23.51554,-9.18792 0,0 z m 6.558,10.455 c -11.7474,-0.95337 -13.00553,25.68573 -0.31313,8.979 1.79849,-2.31413 4.07878,-7.12461 0.31313,-8.979 z"
         id="path15"
         inkscape:connector-curvature="0" /><path
         d="M7.706,422.898l1.718-0.475c0,1.268,0,2.533,0,3.801c6.668,7.68,19.839,3.197,29.046,2.852    c4.695-0.621,2.927-7.803,9.37-6.652c-2.4,10.867,1.387,14.844,8.433,18.061c3.21-1.562,0.551-3.18,1.875-6.654    c6.202,0.031,12.881-2.625,17.802-0.951c-0.054,4.389,0.146,10.277,5.623,11.406c-1.048,8.416,4.375,14.467-0.937,20.912    c-0.372,2.277,4.267-0.529,2.812,2.852c-1.18,12.428-13.092,13.967-16.866,23.764c-8.727,4.455-13.005,13.422-21.55,18.059    c-8.992-3.635-14.479,4.139-19.677,3.803c-0.871-16.898,2.09-35.111,8.433-47.527l1.094,1.428l1.718-0.475c0,0.949,0,1.9,0,2.85    c4.937,3.229,12.403,3.895,15.928,8.557c-4.567,3.914-10.983-2.65-15.928-1.902c2.148,5.426,8.463,6.623,13.117,9.506    c6.363-8.121,15.115-13.816,17.802-25.664c-6.208,1.623-11.644,4.027-18.739,4.752c-1.506-2.91-3.307-5.518-7.496-5.703    c-0.064,2.787-2.143,3.529-3.748,4.752l-1.094-1.424l-1.718,0.475c-0.926-3.791,2.801-2.863,1.875-6.654    c-9.84-4.277-18.806-9.438-22.488-19.961c-4.776-1.492-6.506-6.074-9.37-9.506c0.098-2.436,0.53-4.531,1.874-5.703L7.706,422.898z     M43.154,435.73c-7.789-2.039-15.366,0.531-22.487,1.902c2.052,2.854,8.066,9.619,11.244,11.406c1.66,0.93,4.54,0.166,6.559,0.949    c3.177,1.234,5.772,3.648,8.433,4.754c10.002,4.15,16.116,3.184,20.614-4.754C59.882,444.742,46.415,445.412,43.154,435.73z     M67.516,443.334c0.138-2.355,0.174-4.613-1.874-4.752c-0.255,1.961-4.149,0.227-3.748,2.854c5.622,1.898,6.09,3.326,6.09,3.326    l1.406-0.477c-2.753,2.791,6.193,3.432,2.811,0c-2.811,0-3.28-1.426-3.28-1.426L67.516,443.334z M49.713,491.812    c1.065,3.58-0.897,4.328,1.874,5.703c5.496-5.514,10.514-11.512,16.865-16.16c-1.094-2.484,2.892-4.09-0.937-3.801    C61.321,482.043,55.858,487.273,49.713,491.812z M32.848,504.17c1.335-2.131,5.083-1.814,6.559-3.803    c-2.518-6.887,3.223-7.154,4.686-12.357c-5.836,0.533-5.682-5.01-11.245-4.752C32.518,490.861,27.639,498.98,32.848,504.17z"
         id="path17" /><path
         d="M126.702,144.393l1.718-0.475c-1.76,6.611,3.664,15.396-1.875,17.11c-5.737-1.606-2.066-14.352-0.937-18.06    L126.702,144.393z"
         id="path19" /><path
         d="M64.549,195.721l-1.718,0.476c1.684-4.544,0.28-6.673-1.874-9.506c2.72-0.725,2.43-4.505,6.559-3.803l1.093,1.426    l1.718-0.475c-1.707,6.706,0.92,7.544,2.811,12.358l-1.673-0.339l-1.138,1.29c-3.032,1.175-0.716-3.075-3.749-1.901    c0.153,1.106-0.207,1.692-0.937,1.901L64.549,195.721z"
         id="path21" /><path
         d="M63.924,244.199l1.718-0.475c0,0.634,0,1.267,0,1.901c2.793,4.137,8.954,4.857,13.117,7.604    c-0.114,2.418-1.363,3.686-3.749,3.802c-5.037-0.594-7.598-3.698-12.18-4.753c0.152,1.106-0.208,1.691-0.937,1.901l-1.094-1.426    l-1.718,0.476c-0.135-4.89,2.327-7.145,3.749-10.457L63.924,244.199z"
         id="path23" /><path
         d="M78.759,286.973l-0.937-1.426c1.833-4.161,8.13-3.793,14.055-3.802l0.469,1.426l0.468-1.426    c7.043,4.577,18.2,4.982,22.488,12.357l-1.272,1.154l0.335,1.698c-7.324-3.978-15.476-7.114-23.425-10.456    c-3.41,1.005-10.631,3.118-13.118,1.901L78.759,286.973z"
         id="path25" /><path
         d="M73.606,363.965l-0.469-1.426c7.544,0.051,7.519-7.58,14.992-7.604l-0.469,1.742l1.406,1.109    c-2.963,3.965-7.245,6.594-10.308,10.455c1.643,0.869,3.256,1.768,2.812,4.754l-1.406-0.477l-0.469,1.428    c-4.676-0.961-4.918-6.418-7.496-9.506L73.606,363.965z"
         id="path27" /><g
         id="g29"><path
           fill="none"
           stroke="#000000"
           stroke-width="3.1087"
           stroke-linecap="round"
           d="M97.968,254.972     c-0.937-0.204-1.874-0.386-2.811-0.634"
           id="path31" /><path
           fill="none"
           stroke="#000000"
           stroke-width="3.2256"
           stroke-linecap="round"
           d="M97.656,241.347     c2.197-6.372,3.624-12.947,7.058-18.82"
           id="path33" /><path
           fill="none"
           stroke="#000000"
           stroke-width="3.37"
           stroke-linecap="round"
           d="M104.838,246.1     c-0.134-5.923,3.125-11.688,5.622-17.109"
           id="path35" /><path
           fill="none"
           stroke="#000000"
           stroke-width="2.2489"
           stroke-linecap="round"
           d="M117.645,262.259     c0.403-8.911,4.301-17.855,6.558-26.616"
           id="path37" /><path
           fill="none"
           stroke="#000000"
           stroke-width="3.9178"
           stroke-linecap="round"
           d="M78.479,510.537     c2.595-4.279,7.343-5.895,11.244-8.555"
           id="path39" /><path
           fill="none"
           stroke="#000000"
           stroke-width="3.2245"
           stroke-linecap="round"
           d="M34.878,467.574     c0.946-1.936,1.126-3.109,1.562-4.752"
           id="path41" /><path
           fill="none"
           stroke="#000000"
           stroke-width="3.1087"
           stroke-linecap="round"
           d="M7.706,422.898     c0.2-0.951,0.381-1.9,0.625-2.852"
           id="path43" /><path
           fill="none"
           stroke="#000000"
           stroke-width="3.0063"
           stroke-linecap="round"
           d="M8.643,406.74     c1.042-6.203,6.427-10.586,8.557-16.35"
           id="path45" /><path
           fill="none"
           stroke="#000000"
           stroke-width="3.3329"
           stroke-linecap="round"
           d="M27.382,312.637     c0.921-2.127,1.185-4.396,1.562-6.654"
           id="path47" /><path
           fill="none"
           stroke="#000000"
           stroke-width="3.0452"
           stroke-linecap="round"
           d="M32.066,293.626     c6.861-18.386,10.989-37.557,17.491-56.082"
           id="path49" /><path
           fill="none"
           stroke="#000000"
           stroke-width="2.6454"
           stroke-linecap="round"
           d="M143.568,109.223     c5.335-5.874,6.43-13.951,11.823-19.825"
           id="path51" /><path
           fill="none"
           stroke="#000000"
           stroke-width="3.4855"
           stroke-linecap="round"
           d="M150.126,120.629     c4.713-7.336,8.229-15.562,14.18-22.053"
           id="path53" /><path
           fill="none"
           stroke="#000000"
           stroke-width="3.4274"
           stroke-linecap="round"
           d="M137.008,122.531     c0.113-2.508,1.578-4.446,2.497-6.654"
           id="path55" /><path
           fill="none"
           stroke="#000000"
           stroke-width="3.5351"
           stroke-linecap="round"
           d="M126.702,144.393     c0.418-2.104,1.785-3.729,2.498-5.703"
           id="path57" /><path
           fill="none"
           stroke="#000000"
           stroke-width="3.3989"
           stroke-linecap="round"
           d="M52.725,229.805     c1.26-2.333,1.44-5.028,2.454-7.468"
           id="path59" /><path
           fill="none"
           stroke="#000000"
           stroke-width="3.3162"
           stroke-linecap="round"
           d="M63.032,199.388     c0.736-1.683,1.131-2.63,1.518-3.667"
           id="path61" /><path
           fill="none"
           stroke="#000000"
           stroke-width="3.6051"
           stroke-linecap="round"
           d="M68.608,184.314     c0.824-1.719,1.575-3.585,2.936-4.942"
           id="path63" /><path
           fill="none"
           stroke="#000000"
           stroke-width="3.3907"
           stroke-linecap="round"
           d="M138.071,177.472     c-0.504,0.746-0.734,1.402-1.062,2.091"
           id="path65" /><path
           fill="none"
           stroke="#000000"
           stroke-width="3.7775"
           stroke-linecap="round"
           d="M127.952,288.557     c2.876,1.306,5.395,3.611,7.682,5.83"
           id="path67" /><path
           fill="none"
           stroke="#000000"
           stroke-width="3.54"
           stroke-linecap="round"
           d="M50.369,281.459     c3.919-9.208,6.215-19.225,10.432-28.706"
           id="path69" /><path
           fill="none"
           stroke="#000000"
           stroke-width="3.3462"
           stroke-linecap="round"
           d="M63.924,244.199     c0.35-2.839,2.282-5.064,3.435-7.604"
           id="path71" /><path
           fill="none"
           stroke="#000000"
           stroke-width="3.5351"
           stroke-linecap="round"
           d="M74.355,199.714     c-1.203-1.069-2.516-2.184-2.891-3.857"
           id="path73" /><path
           fill="none"
           stroke="#000000"
           stroke-width="1.2908"
           stroke-linecap="round"
           d="M151.844,208.553     c0.609,0.278,1.517,0.797,2.343,1.426"
           id="path75" /><path
           fill="none"
           stroke="#000000"
           stroke-width="1.2908"
           stroke-linecap="round"
           d="M153.25,222.336     c0.937-0.611,1.874-1.16,2.811-1.901"
           id="path77" /><path
           fill="none"
           stroke="#000000"
           stroke-width="3.0818"
           stroke-linecap="round"
           d="M75.48,287.289     c0.91-0.222,2.088-0.242,3.28-0.316"
           id="path79" /><path
           fill="none"
           stroke="#000000"
           stroke-width="1.2246"
           stroke-linecap="round"
           d="M92.346,283.171     c-0.138-0.963,0.158-2.426,0.938-3.803"
           id="path81" /><path
           fill="none"
           stroke="#000000"
           stroke-width="3.0531"
           stroke-linecap="round"
           d="M70.482,328.795     c1.242-7.717,7.674-13.18,8.745-20.91"
           id="path83" /><path
           fill="none"
           stroke="#000000"
           stroke-width="3.5114"
           stroke-linecap="round"
           d="M84.537,326.895     c0.942-3.529,2.372-6.908,3.124-10.455"
           id="path85" /><path
           fill="none"
           stroke="#000000"
           stroke-width="3.1619"
           stroke-linecap="round"
           d="M96.719,322.143     c0.579-1.854,0.222-3.799,0.312-5.703"
           id="path87" /><path
           fill="none"
           stroke="#000000"
           stroke-width="3.369"
           stroke-linecap="round"
           d="M108.587,336.4     c-1.763-6.197-0.159-12.662-0.312-19.012"
           id="path89" /><path
           fill="none"
           stroke="#000000"
           stroke-width="3.3907"
           stroke-linecap="round"
           d="M115.958,296.288     c-0.368-0.333-1.138-0.682-1.927-1.033"
           id="path91" /><path
           fill="none"
           stroke="#000000"
           stroke-width="2.1445"
           stroke-linecap="round"
           d="M70.796,363.49     c0.937-0.027,1.874,0.219,2.811,0.475"
           id="path93" /><path
           fill="none"
           stroke="#000000"
           stroke-width="2.6454"
           stroke-linecap="round"
           d="M91.877,353.984     c-1.129,0.912-2.591,2.014-4.217,2.693"
           id="path95" /><path
           fill="none"
           stroke="#000000"
           stroke-width="3.3334"
           stroke-linecap="round"
           d="M60.177,385.828     c-0.377-6.258,0.909-12.678,0-19.01"
           id="path97" /><path
           fill="none"
           stroke="#000000"
           stroke-width="3.2451"
           stroke-linecap="round"
           d="M86.59,382.297     c-3.83-1.852-4.67-6.295-6.425-9.777"
           id="path99" /><path
           fill="none"
           stroke="#000000"
           stroke-width="3.4274"
           stroke-linecap="round"
           d="M33.316,384.561     c4.628,5.148,10.918,9.705,13.118,16.477"
           id="path101" /><path
           fill="none"
           stroke="#000000"
           stroke-width="3.5618"
           stroke-linecap="round"
           d="M50.931,391.721     c-4.901-6.891-10.317-13.521-14.134-20.967"
           id="path103" /><path
           fill="none"
           stroke="#000000"
           stroke-width="2.2358"
           stroke-linecap="round"
           d="M68.921,442.859     c-0.312,0.635-0.625,1.268-0.937,1.902"
           id="path105" /><path
           fill="none"
           stroke="#000000"
           stroke-width="2.7383"
           stroke-linecap="round"
           d="M134.51,547.42     c-0.392-0.709-1.041-1.451-1.875-2.219"
           id="path107" /></g></g></g><g
     id="Layer_2"><path
       d="M752.244,349.197l-0.645-1.746c0-1.516,0.485-2.642,1.457-3.382c0.897-0.665,1.981-0.887,3.25-0.665   c3.101,0.591,4.65,2.551,4.65,5.877c0,0.442-0.129,0.941-0.392,1.496c-0.219,0.379-0.359,0.776-0.421,1.192   c-0.367,0.242-1.011,0.64-1.935,1.192c-0.223,0.136-0.418,0.264-0.587,0.388c-0.065,0-0.131,0-0.197,0   c-1.071,0-2.024-0.297-2.858-0.888c-0.075-0.018-0.151-0.037-0.224-0.055c-1.195,1.473-2.914,3.541-5.155,6.209   c-0.228,0-0.414-0.047-0.561-0.139c-0.065,0.094-0.131,0.187-0.197,0.276c0.058,0.057,0.085,0.195,0.085,0.416   c0,0.297-0.953,1.571-2.859,3.825c-0.163,0.189-0.32,0.375-0.476,0.555c1.363,2.219,2.044,4.38,2.044,6.486   c-3.362,8.279-6.22,12.418-8.573,12.418c-0.971,0-1.568-0.314-1.794-0.942l-0.027-0.166c-0.044,0-0.09,0-0.14,0   c-0.784,0-1.569-1.294-2.354-3.881c-0.821-3.068-1.382-5.063-1.682-5.988c-0.243-0.74-0.523-1.461-0.841-2.161   c0.118,0.074,0.25,0.11,0.394,0.11c0.299,0,0.504-0.073,0.617-0.222c0.037-0.072,0.073-0.186,0.112-0.332   c-0.15-0.333-0.617-0.869-1.4-1.608c-0.749-0.627-1.121-1.108-1.121-1.441c0-0.222,0.092-0.406,0.28-0.554   c0.186-0.147,0.28-0.333,0.28-0.555s-0.151-0.407-0.449-0.555c-0.373-0.146-0.598-0.296-0.672-0.443c0.423,0,0.852,0,1.288,0   c1.383,1.802,2.578,3.889,3.586,6.265c0.418,1.062,1.034,2.891,1.849,5.488c0,0.095,0,0.188,0,0.277   c0,0.131,0.151,0.502,0.449,1.109c0.072,0.231,0.146,0.472,0.223,0.72l0.169,0.057v-0.028c0.28,0.462,0.504,0.692,0.672,0.692   c0.276,0,0.603-0.11,0.98-0.332c0.136-0.01,0.24-0.028,0.309-0.056c0.036-0.036,0.093-0.056,0.168-0.056   c0.049-0.024,0.088-0.108,0.112-0.249c0.586-0.436,1.276-1.071,2.073-1.912c1.25-1.323,2.017-2.322,2.299-2.994   c0.635-1.148,0.952-2.312,0.952-3.493c0-0.924-0.037-1.478-0.111-1.663c-0.097-0.229-0.245-0.415-0.449-0.555v-1.44   c-0.729-1.739-1.692-3.116-2.885-4.13c0.24-0.24,0.492-0.49,0.756-0.749c0.084,0.211,0.234,0.358,0.448,0.443   c0.25-0.227,0.585-0.549,1.009-0.97c0.072,0.062,0.206,0.108,0.392,0.139c1.31-1.183,2.896-2.681,4.764-4.49   c2.616-2.551,3.923-4.011,3.923-4.38c0-0.297-0.037-0.463-0.111-0.499l-0.169,0.055c-0.073-0.027-0.148-0.045-0.224-0.055   c0.15-0.188,0.224-0.298,0.224-0.333c0-0.297-0.056-0.518-0.168-0.665c-0.034-0.034-0.156-0.091-0.363-0.166   c0.096-0.082,0.18-0.156,0.253-0.223l-0.112-0.471C752.189,349.229,752.218,349.211,752.244,349.197z M726.269,364.554   c0.161,0.337,0.329,0.698,0.506,1.081c1.004,1.91,1.882,3.178,2.634,3.798c0.168,0.42,0.302,0.817,0.394,1.192   c1.692,2.942,3.244,6.64,4.65,11.087c0.56,2.291,1.308,5.045,2.241,8.26c0.674,2.624,1.009,5.192,1.009,7.706   c0,2.032-0.505,4.86-1.514,8.482c-0.754,2.607-1.237,4.334-1.458,5.183c1.608,0.748,2.409,1.497,2.409,2.246   c0,0.48-0.037,0.665-0.111,0.555l-0.169,0.221c-0.03,0.031-0.068,0.059-0.111,0.083c-0.013,1.351-0.351,2.024-1.009,2.024h-0.055   c-0.405,1.271-2.553,3.766-6.445,7.483c-4.001,3.586-6.206,5.563-6.613,5.932c1.09,1.386,2.135,2.993,3.139,4.824   c0.075,0.11,1.008,1.976,2.802,5.599c1.259,2.489,2.312,5.732,3.166,9.729c0.097-0.155,0.199-0.294,0.31-0.416   c0.783-0.888,1.175,0.812,1.175,5.101c0.151,2.439,0.449,4.343,0.897,5.71c0.336,1.146,0.504,2.532,0.504,4.158   c0,0.731-0.027,1.444-0.083,2.134c-0.09,0.229-0.155,0.479-0.197,0.748l-0.841,6.653c-0.101,0.504-0.204,1.207-0.308,2.106   c-0.594,1.106-1.144,2.399-1.653,3.881c-0.335,0.816-0.689,1.724-1.064,2.716c-1.458,3.807-2.186,6.042-2.186,6.709   c0,0.025,0,0.054,0,0.082c-0.47,0.636-0.974,1.312-1.514,2.022c-0.416,1.003-0.845,2.055-1.288,3.162   c-0.038,0.093-0.095,0.213-0.168,0.359c-0.938,1.299-2.21,2.999-3.811,5.101c0.131-0.209,0.26-0.421,0.394-0.638   c2.207-3.518,3.439-6.29,3.699-8.315c0.896-1.7,1.625-3.03,2.186-3.991c0.446-0.741,0.971-2.367,1.567-4.879   c0.678-1.858,1.201-4.889,1.569-9.092c0.41-2.91,0.617-5.22,0.617-6.93c0-1.45-0.188-2.946-0.561-4.49   c-0.119-7.437-1.801-14.607-5.044-21.511c-0.337,0-1.737-1.94-4.202-5.821c-2.128-3.374-3.755-5.748-4.877-7.123   c-1.384-1.159-2.824-2.065-4.315-2.717c-1.723-1.576-3.965-2.897-6.725-3.963c-2.817-1.104-4.63-1.3-5.436-0.583   c-2.294-0.573-5.039-0.859-8.24-0.859l-0.672-0.11H666.81c-0.295,0.114-0.575,0.214-0.841,0.306l-4.764,0.139   c-13.338,4.989-23.388,14.21-30.15,27.662c-1.91,3.823-3.461,7.687-4.651,11.587c-0.138,0.837-0.305,1.834-0.504,2.994   c-0.748,4.065-1.157,6.744-1.233,8.038c-0.082,1.344-0.146,2.821-0.195,4.435c-0.169,0.254-0.252,0.661-0.252,1.22   c0,0.443,0.167,1.885,0.503,4.324c0.374,2.476,0.636,4.084,0.785,4.823c0.323,1.278,0.875,2.479,1.654,3.604   c0.019,0.111,0.027,0.184,0.027,0.222c0,0.443-0.188,0.961-0.561,1.553c-0.142,0.224-0.281,0.408-0.421,0.554   c0.087,0.017,0.17,0.034,0.253,0.056c1.606,0.406,3.287,0.942,5.044,1.608c0.625,0.251,1.512,0.603,2.662,1.053   c0.099,0.039,0.202,0.076,0.308,0.11c0.019,0.013,0.037,0.022,0.056,0.028c0.975,0.598,1.843,1.096,2.605,1.497   c0.049,0.092,0.133,0.138,0.253,0.138h0.027c0.117-0.023,0.192,0.016,0.225,0.111c0.02,0.05,0.028,0.104,0.028,0.166   c0,0.254-0.085,0.624-0.253,1.109c-2.765-0.722-4.903-1.312-6.417-1.773c-3.281-2.282-5.262-3.408-5.938-3.383v0.775   c0,0.026,0,0.054,0,0.083c-2.735-1.632-4.175-3.507-4.316-5.627c-0.099-0.331-0.191-0.683-0.28-1.053   c-0.233-0.973-0.393-2.154-0.476-3.547c-0.055-0.286-0.104-0.6-0.141-0.944c-0.074-1.995-0.111-3.013-0.111-3.049   c0-1.714,0.552-5.05,1.652-10.005c0.231-3.129,0.764-6.317,1.598-9.563c0.79-3.087,1.743-5.685,2.857-7.789   c0.908-3.964,3.047-8.399,6.416-13.305c2.543-4.589,4.196-7.352,4.961-8.288c3.662-4.398,6.613-7.373,8.854-8.926   c1.229-0.846,2.451-1.622,3.67-2.328c-0.778-0.524-1.759-1.208-2.942-2.051c-3.101-2.255-4.65-3.363-4.65-3.326   c0-0.288,0.046-0.53,0.141-0.722c-0.295-0.502-0.528-1.148-0.701-1.94l-0.277-3.216c0-0.227,0-0.448,0-0.664   c-0.285-0.122-0.511-0.326-0.674-0.61c-0.112-0.259-0.167-0.554-0.167-0.887c0-0.186,1.605-3.881,4.818-11.087   c3.512-7.835,5.772-13.619,6.781-17.353v-0.028c-0.128,0.02-0.258,0.028-0.392,0.028c-0.894,0-1.622-0.119-2.187-0.361   l-0.055,0.084c-0.485,0-0.812-0.24-0.981-0.722c-0.044,0-0.09,0-0.14,0c-1.27,0-2.056-0.868-2.354-2.604l-0.056-2.662   c0.223-2.955,0.336-5.21,0.336-6.763c0-0.712,0.317-1.562,0.953-2.55c-0.668-0.641-1.508-1.5-2.521-2.578   c-0.356-0.226-0.729-0.475-1.121-0.748c-1.383-0.962-2.69-1.959-3.923-2.994c-1.869-1.294-3.195-2.217-3.979-2.771   c-0.678-0.485-1.183-0.955-1.513-1.414c-0.271,0.02-0.552,0.028-0.841,0.028c-2.653,0-4.464-0.74-5.436-2.218l-0.673-2.162   c0-1.479,0.598-2.661,1.794-3.549c0.319-0.231,0.654-0.425,1.008-0.581c0.125,0.129,0.255,0.193,0.393,0.193   c0.261,0,0.485-0.092,0.673-0.276c0.04-0.056,0.076-0.103,0.111-0.139c1.736,0.374,2.951,0.993,3.643,1.856   c0.473,0.535,0.912,1.33,1.317,2.385c-0.023,0.172-0.089,0.339-0.196,0.499c-0.149,0.258-0.224,0.442-0.224,0.554   c0.149,0.037,2.895,1.128,8.237,3.271c4.97,1.96,7.771,2.938,8.406,2.938c0.338,0,0.6-0.064,0.784-0.193   c0.372,0.312,0.67,0.471,0.897,0.471c0.175,0,0.335-0.037,0.476-0.11c0.125,0.07,0.236,0.136,0.336,0.193   c0.975-0.639,1.955-1.175,2.942-1.607c0.657-0.059,1.266-0.115,1.821-0.167c-0.654,0.134-1.393,0.383-2.213,0.749   c-1.791,0.771-2.892,1.696-3.307,2.772c-0.069,0.073-0.145,0.148-0.225,0.221c-0.261,0.233-0.504,0.466-0.729,0.692   c-0.8,0.377-1.473,0.959-2.017,1.747c-0.519,0.718-0.894,1.55-1.121,2.494c-2.056,2.635-3.082,5.591-3.082,8.87   c0,0.999,0.019,1.628,0.055,1.886c0.15,0.923,0.506,1.571,1.066,1.94c0.224-0.11,0.411-0.297,0.561-0.555   c-0.058-0.16-0.113-0.327-0.169-0.499c0.3-0.36,0.589-0.712,0.869-1.054v0.057c0.044-0.073,0.09-0.147,0.141-0.223   c0.767-1.23,1.924-2.709,3.474-4.435c1.12-1.257,2.447-2.644,3.979-4.158c3.199-3.186,5.497-5.016,6.893-5.488   c0.192-0.82,0.864-0.784,2.019,0.11c1.344,1.035,2.017,2.254,2.017,3.66c0,0.034,0,0.071,0,0.11   c0.409-0.059,0.839-0.115,1.288-0.167c1.702-0.178,3.579-0.352,5.633-0.526c0.243,0.277,0.402,0.416,0.478,0.416   c0.411,0,0.783-0.11,1.12-0.332c0.12-0.097,0.224-0.198,0.308-0.306c0.453-0.131,1.378-0.417,2.775-0.858   c1.307-0.407,2.37-0.685,3.193-0.832c1.756-0.297,4.223-1.128,7.399-2.494c2.65-1.146,4.855-1.72,6.61-1.72   c1.832,0,5.381,0.591,10.648,1.774c7.211,1.589,12.309,3.512,15.299,5.766C723.87,361.935,725.103,363.143,726.269,364.554z    M738.431,370.568c0,0.086,0,0.169,0,0.25c-0.058-0.053-0.113-0.107-0.168-0.167c0.046-0.092,0.083-0.155,0.112-0.193   L738.431,370.568z M739.131,363.999c0.768,0.226,1.411,0.521,1.934,0.887c0.343,0.377,0.725,0.793,1.148,1.248   c0.354,0.692,0.533,1.598,0.533,2.716c0,1.046-0.197,2.063-0.589,3.05c-0.224,0.318-0.495,0.688-0.812,1.108   c-0.074-0.41-0.112-0.67-0.112-0.776c-0.021-0.039-0.094-0.066-0.225-0.082c0.141-0.209,0.254-0.459,0.337-0.75   c0.112-0.367,0.168-1.034,0.168-1.995c0-1.911-0.888-3.62-2.662-5.128C738.942,364.185,739.035,364.093,739.131,363.999z    M759.25,347.341c0.02-0.135,0.028-0.301,0.028-0.499c0-1.331-0.786-2.089-2.354-2.272c-1.608-0.223-2.409,0.572-2.409,2.383   c0,0.072,0,0.138,0,0.193v0.195c0,0.082,0,0.155,0,0.221c-0.138,0.009-0.232,0.027-0.28,0.057v0.831   c0.2,0.139,0.425,0.259,0.672,0.359c0.116,0.113,0.263,0.214,0.449,0.306c0.064-0.026,0.129-0.062,0.194-0.11   c0.169,0.073,0.385,0.11,0.646,0.11c0.029,0,0.067-0.009,0.112-0.028c0.141,0.02,0.289,0.028,0.448,0.028   c0.372,0,0.878-0.167,1.513-0.499c0.675-0.369,1.01-0.665,1.01-0.887C759.278,347.552,759.267,347.423,759.25,347.341z    M725.374,368.518c-2.316-3.142-3.868-5.026-4.652-5.654c-1.606-1.22-5.323-2.698-11.151-4.435   c-5.791-1.7-9.863-2.552-12.217-2.552c-1.121,0-3.306,0.628-6.557,1.886c-3.585,1.367-5.566,2.089-5.94,2.162   c-2.466,0.701-4.558,1.256-6.276,1.663c-3.14,0.739-7.809,1.294-14.01,1.663c-3.961,2.957-6.894,6.522-8.8,10.7   c-0.073,0.147-1.308,3.787-3.698,10.921c-0.747,2.327-2.278,5.931-4.595,10.81c-0.337,0.702-1.158,2.698-2.467,5.988   c-0.476,1.108-0.904,2.004-1.288,2.688c0.158,0.418,0.336,0.945,0.532,1.58c0.072,0.103,0.147,0.205,0.224,0.305   c0.561-0.167,1.205-0.324,1.933-0.472c2.348-0.476,4.039-0.585,5.072-0.333c-1.366,0.033-2.85,0.623-4.455,1.775   c-0.233,0.166-0.448,0.333-0.645,0.498c-0.879,0.244-1.562,0.53-2.045,0.859c-0.55-0.09-1.185-0.524-1.905-1.303   c-0.374-0.369-0.561,0.073-0.561,1.331c0,0.738,0.056,1.164,0.168,1.274c0.189,0.219,0.807,0.57,1.849,1.054   c0.104,0.139,0.374,0.369,0.813,0.692l-0.027-0.083c0.053-0.118,0.117-0.229,0.194-0.332c0.097,0,0.217,0,0.366,0   c0.299,0,0.503-0.074,0.615-0.223c0.112-0.147,0.188-0.259,0.225-0.332c0-0.037-0.112-0.092-0.337-0.167   c-0.06-0.015-0.107-0.052-0.14-0.11c1.182-1.026,3.301-1.84,6.361-2.439c3.997-0.813,11.843-1.699,23.537-2.66h13.729   c7.694,0.442,17.147,2.031,28.355,4.768c6.245,1.538,10.804,2.916,13.675,4.129v0.084c0.105,0.104,0.328,0.179,0.672,0.222   c0.146,0.064,0.287,0.129,0.421,0.194c-0.014-0.052-0.022-0.106-0.026-0.167c0.18,0.02,0.385,0.028,0.615,0.028   c0.785,0,1.252-0.02,1.4-0.056c0.188-0.111,0.28-0.369,0.28-0.776c0-0.998-0.561-1.441-1.681-1.331   c-0.358,0.023-0.657,0.089-0.896,0.194l-2.188-1.469c0-0.933,0.859-1.146,2.577-0.638c0.231-1.244,0.698-3.046,1.4-5.404   c1.01-3.475,1.516-5.859,1.516-7.152c0-1.848-0.395-4.287-1.178-7.317c-0.934-3.363-1.567-5.784-1.905-7.263   c-0.411-1.959-1.495-4.916-3.25-8.87c-0.504-1.109-0.936-2.061-1.289-2.854C727.132,370.894,726.348,369.866,725.374,368.518z    M690.629,371.622c-0.063,0.4-0.127,0.788-0.197,1.164c-0.384,1.095-0.805,2.405-1.261,3.937c-1.084,3.584-1.624,5.765-1.624,6.541   c0,0.2,0.073,0.33,0.223,0.389c-0.24,0.705-0.4,1.286-0.476,1.745c-0.163,0.152-0.36,0.309-0.588,0.473   c-0.312,0.231-0.574,0.445-0.786,0.637c-0.392-0.122-0.821-0.243-1.287-0.359c-2.266-0.613-3.993-0.669-5.184-0.167h-6.025   c-0.971,0.138-6.397,1.606-16.279,4.407c-0.469-0.065-1.075-0.037-1.821,0.083c-0.784,0.113-1.42,0.252-1.907,0.416   c-0.02-0.079-0.038-0.164-0.055-0.249c-0.075-0.813-0.112-1.239-0.112-1.275c0-1.22,1.551-3.696,4.65-7.43   c0.92-1.089,1.789-2.087,2.607-2.992c0.088,0.182,0.228,0.312,0.42,0.388c0.187-0.11,0.335-0.24,0.448-0.388   c0.198-0.717,0.664-1.529,1.401-2.439c0.171-0.171,0.34-0.337,0.504-0.499c0.263-0.252,0.523-0.489,0.784-0.722   c0.058-0.039,0.113-0.075,0.168-0.11c0.608-0.408,1.058-0.806,1.346-1.192c2.348-1.899,4.757-3.351,7.229-4.352   c0.089-0.035,0.171-0.071,0.251-0.11c4.541-1.795,8.752-2.294,12.637-1.497c3.289,0.702,4.931,1.682,4.931,2.938   c-0.002,0.065-0.012,0.131-0.027,0.193C690.617,371.293,690.629,371.45,690.629,371.622z M686.706,371.289   c-0.124-0.039-0.245-0.075-0.366-0.11c-0.061,0.021-0.127,0.039-0.194,0.056c-1.233,0.332-3.904,0.499-8.015,0.499l-3.082-0.222   c-4.794,1.469-9.128,4.444-13.001,8.925c-2.129,2.462-3.837,4.975-5.129,7.539c1.129-0.444,2.557-0.926,4.288-1.44   c4.446-1.367,8.369-2.291,11.769-2.772h7.846c0.262,0.058,1.43,0.271,3.503,0.638c-0.095-0.841-0.141-1.275-0.141-1.303   c0-3.399,1.084-6.893,3.25-10.478c0.205-0.343,0.399-0.646,0.588-0.915C687.653,371.586,687.214,371.447,686.706,371.289z    M687.153,378.94c-0.022,0.161-0.043,0.366-0.057,0.609c0.022,0.038,0.04,0.075,0.057,0.11c0.038-0.193,0.075-0.397,0.113-0.609   L687.153,378.94z M703.63,375.17c0.485,2.55,0.729,4.325,0.729,5.322c0,1.922-0.02,3.03-0.057,3.326   c-0.15,0.812-0.598,2.032-1.345,3.658c4.932,0.37,8.854,1.46,11.769,3.271c1.362,0.846,3.043,2.021,5.044,3.52   c0.028,0.157,0.057,0.305,0.083,0.444c-0.644-0.347-1.39-0.724-2.241-1.137c-1.158-0.836-2.456-1.594-3.896-2.272   c-0.059-0.027-0.113-0.056-0.168-0.084c-1.199-0.842-2.274-1.212-3.222-1.108c-1.46-0.3-2.722-0.208-3.783,0.277   c-1.409-0.196-3.165-0.371-5.267-0.526c-0.598-0.037-0.972-0.24-1.121-0.609c-0.074-0.148-0.112-0.482-0.112-0.999   c0-0.406,0.336-1.348,1.008-2.827c0.635-1.516,0.953-3.159,0.953-4.934c0-0.479-0.112-1.571-0.337-3.271   c-0.262-1.7-0.393-2.586-0.393-2.66c0-1.146,0.354-1.755,1.065-1.83c1.007-0.11,2.857,0.739,5.548,2.55   c0.86,0.555,2.95,1.479,6.275,2.772c3.063,1.182,4.989,2.126,5.772,2.828c2.877,2.438,4.315,4.655,4.315,6.652   c0.037,1.293,0.226,2.495,0.56,3.604c0.375,1.035,0.561,1.977,0.561,2.827c0,0.997-0.092,1.698-0.28,2.105   c-0.14,0.354-0.346,0.65-0.614,0.889c-0.139-0.754-0.624-2.493-1.458-5.212c-0.973-3.141-1.775-5.582-2.41-7.318   c-1.682-2.476-4.689-4.749-9.021-6.818c-4.26-2.032-6.39-2.31-6.39-0.831C704.617,376.274,704.095,375.739,703.63,375.17z    M712.876,380.547c1.437,0.693,2.632,1.312,3.586,1.858c-0.199-0.109-0.405-0.211-0.615-0.306c-2.802-1.071-4.914-1.94-6.333-2.604   c-1.187-0.544-2.253-1.154-3.193-1.83C707.653,378.127,709.84,379.089,712.876,380.547z M708.281,396.652   c-0.537-0.142-1.052-0.28-1.541-0.416c-0.141,0.018-0.289,0.053-0.449,0.11c-0.134-0.041-0.274-0.078-0.42-0.11   c0.048-0.062,0.085-0.127,0.114-0.193c-1.391-0.366-2.597-0.681-3.617-0.943c-0.26-0.053-0.549-0.108-0.866-0.166   c0.542,0.173,0.935,0.33,1.176,0.472c-3.588-0.836-6.763-1.298-9.527-1.387c-2.028-0.185-4.084-0.276-6.164-0.276   c-6.276,0-12.049,0.739-17.316,2.217c-4.146,1.479-6.407,2.255-6.781,2.328c-1.605,0.407-4.446,1.572-8.518,3.493   c-1.095,0.509-2.038,0.944-2.831,1.303c1.144-0.288,2.656-0.593,4.541-0.915c-0.133,0.279-0.197,0.667-0.197,1.165   c0,0.332,0.019,0.535,0.055,0.609c0.076,0.201,0.245,0.358,0.506,0.471c-0.042,0.012-0.08,0.022-0.113,0.028   c-0.782,0.176-1.54,0.359-2.269,0.555c-1.745,0.184-3.1,0.277-4.063,0.277c-0.174,0-0.323-0.02-0.448-0.057   c-0.06-0.228-0.265-0.578-0.617-1.053c-0.411-0.554-0.615-0.904-0.615-1.053c-0.007-0.083-0.017-0.166-0.028-0.251   c0.179-0.417,0.337-0.807,0.476-1.163c2.012-1.345,5.935-3.035,11.769-5.073c9.74-3.384,18.464-5.082,26.172-5.1   c0-0.628,3.661-0.333,10.982,0.887c8.146,1.404,15.039,3.418,20.68,6.043c1.331,0.626,2.732,1.384,4.203,2.272   c0.069,0.14,0.163,0.307,0.28,0.499c0.146-0.015,0.278-0.042,0.392-0.083c0.84,0.522,1.699,1.087,2.579,1.691   c0.578,0.397,1.11,0.776,1.598,1.136c0.063,0.013,0.129,0.023,0.195,0.028c0.559,0.11,0.912,0.36,1.066,0.748   c0.783-0.375,1.175,0.632,1.175,3.021c0,0.443-0.167,1.035-0.503,1.774c-0.448,0.923-0.989,1.386-1.626,1.386   c-0.957,0-1.527-0.223-1.708-0.665c-1.992-0.298-4.42-1.046-7.285-2.246c-0.77-0.22-1.592-0.469-2.465-0.748   c-1.747-0.317-5.287-1.001-10.621-2.052c-5.9-1.128-10.074-1.867-12.525-2.218h-0.085c-0.51,0.033-0.976,0.062-1.401,0.084   c-3.037-0.54-6.362-0.846-9.975-0.915c-1.208,0.073-2.508,0.24-3.896,0.499c-1.93-0.036-5.301-0.056-10.114-0.056v0.111   c-0.889,0.075-1.767,0.159-2.635,0.25c0-0.071,0-0.155,0-0.25c-0.225-0.074-0.561-0.111-1.008-0.111   c-1.158,0-2.308,0.333-3.448,0.999c-0.337,0.058-0.672,0.112-1.008,0.165c-0.542-0.921-1.13-1.549-1.766-1.885   c0.238-0.037,0.481-0.072,0.729-0.11c0.237-0.171,0.583-0.265,1.037-0.277h0.196c0.14,0.003,0.269,0.013,0.392,0.028   c0.065-0.009,0.131-0.02,0.196-0.028h4.232c1.605-0.11,5.248-0.609,10.928-1.496h8.237c13.77,1.706,22.923,2.804,27.46,3.298   c1.471,0.628,4.087,1.524,7.846,2.688c3.362,1.036,5.38,1.94,6.053,2.717l0.447-0.277c0.064-0.225,0.102-0.474,0.113-0.748   c0.131,0.019,0.26,0.027,0.392,0.027c0.142,0,0.263-0.027,0.363-0.083c0.258-0.145,0.428-0.45,0.506-0.914   c0.019-0.186,0.027-0.389,0.027-0.61c0-0.628-0.338-1.108-1.009-1.442c-0.031-0.032-0.584-0.225-1.653-0.581   c-0.399-0.491-1.073-0.87-2.019-1.137c-0.822-0.559-1.821-1.168-2.998-1.829c-2.703-1.386-4.711-2.438-6.024-3.16   c-1.178-0.3-2.278-0.586-3.307-0.859c-0.773-0.034-1.286-0.155-1.541-0.36C708.354,396.707,708.318,396.681,708.281,396.652z    M705.927,409.985c-7.323-1.072-12.889-1.811-16.699-2.218l-13.729-0.166c-11.208,0.812-18.868,1.626-22.977,2.439   c-1.905,0.358-3.734,0.958-5.493,1.802c-0.222-0.001-0.446,0.007-0.672,0.026v0.306c-0.168,0.092-0.337,0.186-0.505,0.277   c0.42,0.286,0.906,0.609,1.457,0.97c0.52,0.33,0.985,0.626,1.401,0.887c0.192,0.155,0.398,0.322,0.616,0.499   c1.532,1.294,2.503,1.94,2.915,1.94c0.538-0.255,0.921-0.505,1.147-0.748c0.496-0.225,0.993-0.438,1.485-0.638   c2.104-0.869,3.637-1.221,4.596-1.054c4.399-1.201,8.201-0.933,11.404,0.805c0.088,0.021,0.172,0.039,0.252,0.056   c5.302-0.178,9.654-0.392,13.058-0.638c4.109-0.258,7.006-0.074,8.687,0.554c0.896,0.369,1.98,0.832,3.25,1.387   c1.942,0.887,5.771,1.626,11.488,2.217c1.307,0.147,3.344,0.942,6.107,2.385c2.652,1.404,4.017,2.328,4.09,2.771l-0.111,0.775   c-0.058,0.057-0.123,0.104-0.197,0.139l0.031,0.028c1.532,1.147,2.85,2.423,3.95,3.825c0.14-0.818,1.4-2.37,3.782-4.657   c1.457-1.405,2.896-2.698,4.315-3.881c0.561-0.48,1.401-1.2,2.522-2.162c0.096-0.091,0.188-0.183,0.28-0.277l-13.45-5.321   C717.882,411.906,713.548,411.131,705.927,409.985z M710.074,439.616c-0.215,0.165-0.44,0.361-0.672,0.583   c-0.929,0.844-1.395,1.397-1.401,1.663c0-0.254,0.009-0.493,0.027-0.722c0.141-0.276,0.318-0.573,0.533-0.887   c0.767-1.188,1.27-1.991,1.513-2.411c0.134-0.041,0.273-0.068,0.42-0.083c-0.28,0.268-0.42,0.655-0.42,1.164   C710.074,438.958,710.074,439.188,710.074,439.616z M688.247,387.312c0.09-0.089,0.173-0.172,0.252-0.25   c-0.041,0.105-0.087,0.207-0.141,0.305C688.318,387.347,688.282,387.328,688.247,387.312z M713.325,441.03   c0,0.425-0.086,0.923-0.253,1.497c-0.671,0.292-1.41,0.717-2.215,1.275c-0.639,0.461-1.144,0.85-1.513,1.164   c-0.597-0.281-1.009-0.724-1.234-1.331c-0.037-0.583-0.065-1.027-0.083-1.331c0.007,0.054,0.018,0.089,0.026,0.112   c0.037,0.036,0.114,0.073,0.226,0.111c0.131-0.027,0.282-0.084,0.447-0.166c0.013,0.159,0.029,0.251,0.056,0.277   c0.038,0,0.095,0.019,0.168,0.057l0.225,0.055c-0.021,0.056-0.039,0.11-0.058,0.166c0.113,0.111,0.3,0.221,0.561,0.333   c2.191-1.085,3.312-2.026,3.362-2.828c0.09,0,0.175-0.01,0.253-0.026C713.314,440.598,713.325,440.81,713.325,441.03z    M638.846,349.836c-2.092-1.035-3.137-1.221-3.137-0.555v0.388c1.793,1.071,4.128,2.364,7.005,3.881   c3.886,2.032,6.22,3.049,7.005,3.049c0.261,0,0.43-0.056,0.504-0.167c0.037-0.073,0.057-0.147,0.057-0.221   c-0.112-1.256-1.196-2.218-3.251-2.884c-2.315-0.59-3.754-1.07-4.314-1.44C641.219,351.074,639.931,350.39,638.846,349.836z    M631.338,344.457c0.187,0.112,0.522,0,1.009-0.332c-1.121-1.183-2.019-1.366-2.69-0.555c-0.449,0.592-0.672,1.331-0.672,2.218   c0,0.369,0.28,0.832,0.841,1.386c0.111-0.036,0.242-0.13,0.392-0.277c0-0.518,0.02-0.998,0.056-1.44   c0.075-0.813,0.244-1.221,0.505-1.221C630.964,344.235,631.15,344.311,631.338,344.457z M633.69,340.966   c-0.035-0.016-0.071-0.033-0.111-0.057h0.056C633.653,340.929,633.673,340.947,633.69,340.966z M668.324,353.743   c0.608-0.279,1.122-0.52,1.541-0.72c0.845,0.883,1.639,1.891,2.382,3.021c0.582,0.855,1.076,1.568,1.484,2.134   c-0.097,0.132-0.22,0.251-0.363,0.361c-0.486,0.369-1.084,0.554-1.793,0.554c-0.561,0-0.954-0.24-1.178-0.721   c-0.224-0.665-0.412-1.183-0.561-1.552c-0.064-0.139-0.141-0.269-0.224-0.389C669.585,355.277,669.153,354.38,668.324,353.743z    M667.96,352.136c-0.027-0.016-0.056-0.035-0.085-0.056l-0.111-0.166c0.206,0.037,0.402,0.074,0.589,0.11   c-0.09,0.03-0.184,0.069-0.28,0.111C668.038,352.136,668.001,352.136,667.96,352.136z M666.503,351.637   c-0.155-0.03-0.314-0.058-0.478-0.083c-0.115-0.021-0.227-0.039-0.335-0.055c-0.081-0.067-0.175-0.122-0.28-0.167   C665.739,351.442,666.104,351.542,666.503,351.637z M658.125,355.738c0.016-0.694,0.845-1.277,2.493-1.745   c0.444-0.037,0.904-0.057,1.373-0.057c0.547,0,1.07,0.028,1.569,0.084c-0.314,0.207-0.603,0.399-0.869,0.582   C661.088,354.734,659.565,355.114,658.125,355.738z M655.967,356.876c0.027-0.003,0.055-0.003,0.084,0   c-0.075,0.043-0.149,0.089-0.224,0.139C655.875,356.963,655.921,356.918,655.967,356.876z M662.103,351.471   c-0.339-0.175-0.742-0.267-1.204-0.277c2.025-0.204,3.154-0.306,3.392-0.306h0.055c0.3,0.156,0.646,0.304,1.037,0.444   C664.563,351.062,663.47,351.107,662.103,351.471z M721.338,394.019l-0.057-0.11c-0.073-0.295-0.113-0.72-0.113-1.275   c0.003,0.084,0.04,0.269,0.113,0.555C721.356,393.52,721.376,393.797,721.338,394.019z M720.891,391.247   c0,0.037,0.037,0.186,0.111,0.444c0.074,0.257,0.094,0.442,0.057,0.554C720.945,392.023,720.891,391.691,720.891,391.247z    M649.551,357.597c-0.126,0-0.256,0-0.392,0v0.416C649.286,357.874,649.417,357.735,649.551,357.597z M657.425,404.191   c0.092-0.163,0.14-0.32,0.14-0.471c0.095,0.075,0.234,0.194,0.421,0.36C657.801,404.119,657.613,404.158,657.425,404.191z    M650.56,372.73c0,0.296,0.037,0.482,0.112,0.555c0.025,0.025,0.109,0.072,0.251,0.139l-0.083,0.111   c0.208,0.027,0.433,0.057,0.672,0.082c0.146,0,0.959-0.526,2.438-1.579c1.652-2.736,4.295-6.128,7.931-10.173   c0.453-0.5,1.705-0.944,3.754-1.331c0.103-0.677,0.122-1.065,0.057-1.164c-0.177-0.318-0.466-0.66-0.869-1.025   c-0.635,0.579-1.784,1.53-3.446,2.855c-3.063,2.438-5.117,4.323-6.164,5.654c-0.048,0.064-0.095,0.139-0.141,0.222   c0.355-0.746,0.533-1.28,0.533-1.607c0-0.297-0.057-0.463-0.169-0.499c-0.148,0-0.28-0.019-0.392-0.056   c-0.561,0.518-1.421,1.719-2.579,3.604C651.194,370.588,650.56,371.991,650.56,372.73z M658.237,416.858   c0.727-0.211,1.427-0.404,2.101-0.581c-0.339,0-0.639,0-0.897,0c-0.355,0.143-0.72,0.29-1.092,0.443   C658.32,416.764,658.281,416.809,658.237,416.858z M712.315,454.446c1.168-0.16,2.231-0.316,3.196-0.471   c-0.037,0.314-0.057,0.64-0.057,0.97c0,0.022,0.057,0.17,0.166,0.442c-0.629,0.1-1.245,0.193-1.848,0.277   C713.222,455.2,712.738,454.793,712.315,454.446z M711.055,450.537c-0.164,0.005-0.335,0.005-0.503,0   c0.124-0.022,0.247-0.05,0.363-0.082C710.957,450.484,711.005,450.513,711.055,450.537z M639.379,496.218   c-0.011,0.066-0.021,0.129-0.027,0.194v-0.11L639.379,496.218z M640.753,497.438c0.157-0.436,0.307-0.858,0.447-1.275   c0.203-0.071,0.426-0.185,0.673-0.332c0.005,0.538,0.042,1.083,0.112,1.635c-0.107,0.01-0.182,0.028-0.225,0.055   c-0.034,0.019-0.08,0.055-0.14,0.113C641.322,497.568,641.033,497.504,640.753,497.438z M664.01,502.51   c-0.212,0.021-0.53,0.094-0.954,0.223c-0.116-0.146-0.266-0.255-0.447-0.333c0-0.47,0-0.969,0-1.496   c0.005-0.116,0.005-0.226,0-0.333c2.299,0.643,4.372,1.215,6.219,1.719c-0.036,0.3-0.055,0.577-0.055,0.832   c0,0.53,0.43,1.009,1.289,1.441c-2.129-0.513-4.063-0.976-5.801-1.387c0.021-0.06,0.029-0.115,0.029-0.166   c0-0.259-0.021-0.406-0.058-0.443C664.158,502.604,664.084,502.585,664.01,502.51z M663.141,446.99   c0.252,0.188,0.54,0.4,0.869,0.637c0.864,0.61,1.603,1.018,2.213,1.22c-0.039,0.058-0.087,0.113-0.141,0.166   c2.578,1.404,5.922,2.66,10.031,3.77c2.361,0.629,4.649,1.109,6.864,1.44c0.187,0.249,0.495,0.414,0.926,0.5   c1.232,0.147,3.306,0.442,6.22,0.887c2.541,0.333,4.334,0.499,5.381,0.499c0.752,0,1.742-0.047,2.971-0.139v0.139   c-1.922,0.501-3.763,0.852-5.521,1.054c-0.023-0.024-0.054-0.043-0.083-0.057c-6.464-0.037-10.2-0.334-11.208-0.888   c-0.523-0.296-1.084-0.388-1.682-0.277v0.61c0.125,0.046,0.294,0.102,0.504,0.166c-1.226-0.211-2.29-0.47-3.193-0.776   c-1.83-1.034-3.083-1.625-3.755-1.773c-0.836-0.18-2.676-0.817-5.521-1.912c-0.545-0.801-1.414-1.252-2.605-1.36   c-0.301-0.032-0.59-0.032-0.869,0l-1.092-0.439c-0.239,0-0.565,0.35-0.98,1.053c-0.246,0.265-0.517,0.598-0.813,0.997   c-0.255,0.341-0.498,0.701-0.729,1.081c-0.028-0.184-0.085-0.304-0.168-0.359l-0.392-0.166c-1.154,0.642-2.256,3.588-3.308,8.842   c-1.157,2.853-1.736,4.987-1.736,6.403c0,0.208,0.009,0.363,0.027,0.471c-0.364,0.323-0.654,0.997-0.868,2.023   c-0.096,0.434-0.17,0.83-0.226,1.192c-0.223,0.848-0.335,1.579-0.335,2.189v0.194c-0.094,0.25-0.186,0.498-0.28,0.749v1.884h0.027   c-0.174,0.511-0.341,0.936-0.504,1.275c0.639,0.087,1.525,0.384,2.662,0.887c0.128,0.062,0.259,0.126,0.392,0.194   c-0.085,0.206-0.197,0.438-0.335,0.692c-0.226,0.518-0.355,0.906-0.394,1.165c0.748,0.565,2.188,1.405,4.316,2.522   c-4.79-1.552-7.386-3.013-7.791-4.38c-0.672-0.083-1.008-0.611-1.008-1.58c0-0.96,0.804-3.936,2.408-8.925   c1.121-3.438,1.981-5.988,2.579-7.651c1.606-4.064,2.634-6.837,3.082-8.315C659.879,450.409,661.233,448.442,663.141,446.99z    M664.934,430.746c-0.031,0.014-0.06,0.022-0.084,0.028c-0.104,0.025-0.206,0.054-0.309,0.082c0.271-0.345,0.646-0.548,1.121-0.609   C665.408,430.366,665.167,430.532,664.934,430.746z M667.006,430.414c0.193,0.051,0.389,0.116,0.589,0.193   c2.391,0.962,3.587,2.532,3.587,4.713c0,0.518-0.28,1.054-0.84,1.607c-0.477,0.472-1,0.757-1.569,0.859   c-0.055-1.354-1.307-2.14-3.755-2.356c-0.17-0.016-0.337-0.024-0.505-0.027v-0.028l-0.309-1.469l0.197,0.028   c1.121,0,1.83-0.333,2.13-0.999v0.223c0,0.259,0.28,0.684,0.841,1.275c0.561,0.59,1.026,0.887,1.4,0.887   c0.299,0,0.485-0.056,0.561-0.167c0-0.037,0-0.203,0-0.498c-0.561-0.998-0.972-1.645-1.233-1.94   c-0.393-0.459-0.888-0.578-1.485-0.36c0.002-0.027,0.002-0.056,0-0.083c0.317-0.505,0.478-0.968,0.478-1.387L667.006,430.414z    M715.958,456.303c0.285,0.753,0.695,1.816,1.235,3.188c0.751,1.936,1.329,3.543,1.735,4.823c0.083,0.471,0.138,0.842,0.169,1.108   c0.074,0.628,0.111,1.737,0.111,3.326c0,2.106-0.429,4.972-1.288,8.594c-0.473,2.056-1.015,3.719-1.624,4.989   c-0.463,0.022-1.023,0.069-1.682,0.139c0.593-1.815,1.189-4.041,1.794-6.68c0-0.445-0.121-0.834-0.365-1.164l0.926-5.934   c0-1.334-0.066-2.534-0.197-3.604c0.063-0.032,0.13-0.069,0.197-0.11c-0.074-0.074-0.148-0.139-0.226-0.194   c-0.057-0.401-0.122-0.78-0.194-1.137l0.42-0.055c0.073-0.074,0.111-0.333,0.111-0.776c0-1.848-0.617-3.345-1.848-4.49   c-0.089-0.084-0.184-0.167-0.28-0.249c-0.037-0.257-0.057-0.487-0.057-0.693c0-0.305,0.046-0.555,0.141-0.749   c-0.098-0.071-0.2-0.146-0.309-0.221C715.252,456.36,715.663,456.321,715.958,456.303z M714.726,484.604v-0.056   c0-0.069,0-0.132,0-0.194c0.132-0.046,0.262-0.094,0.393-0.139C714.986,484.358,714.855,484.488,714.726,484.604z M709.457,476.621   c0.284-0.162,0.639-0.272,1.065-0.332c1.308-0.186,1.962,0.129,1.962,0.941c0,0.628-0.317,1.294-0.953,1.996l-2.215,0.056   l-0.194-0.665C709.122,477.772,709.233,477.106,709.457,476.621z M711.812,469.359c1.008,0.295,1.514,1.071,1.514,2.328   c0.031,0.711-0.576,1.108-1.821,1.191c-0.357-0.188-0.648-0.474-0.869-0.859l-0.363-1.108   C710.374,469.648,710.889,469.131,711.812,469.359z M677.935,486.156c-0.069,0.052-0.135,0.105-0.195,0.167   c0.335,0.073,0.896,0.296,1.682,0.664h-4.597c-0.472-0.127-1.872-0.783-4.203-1.966   C672.523,485.429,674.961,485.808,677.935,486.156z M711.363,507.527c1.123,0.277,2.15,0.416,3.082,0.416   c0.476,0,0.914-0.028,1.316-0.083c-1.255,1.693-2.048,2.84-2.382,3.438c-0.261-0.019-0.523-0.027-0.784-0.027   c-1.088,0-1.815,0.536-2.185,1.608c-0.113-0.102-0.206-0.185-0.28-0.251c-0.766-0.041-1.661-0.124-2.69-0.249   c-0.002-0.885-0.021-1.698-0.055-2.439c0.676,0.035,1.33,0.063,1.962,0.083c-0.037-0.134-0.058-0.31-0.058-0.526   C709.969,508.875,710.661,508.219,711.363,507.527z M676.73,506.17c0.757-0.199,1.317-0.651,1.681-1.36   c1.358,0.336,2.684,0.649,3.979,0.944c-0.112,0.234-0.167,0.503-0.167,0.804c0,0.279,0.019,0.594,0.055,0.942   c-0.553-0.128-1.113-0.257-1.682-0.388C679.261,506.788,677.972,506.475,676.73,506.17z"
       id="path110" /></g><g
     id="Layer_3"><path
       d="m 753.113,346.62 c 1.24221,2.837 -4.00575,2.58598 -0.711,0.40938 l 0.711,-0.40938 z m -2.83,4.157 c 3.35531,-4.52582 7.82597,-1.64352 1.904,1.831 -0.12107,-3.88118 -9.47534,10.0901 -11.687,6.097 -3.02768,-2.67752 -15.59077,-3.08742 -14.63437,1.1925 6.38787,3.78368 12.53184,11.69254 12.27937,19.1525 -1.82843,-2.24938 -7.23694,-12.07416 -3.4842,-3.3613 3.18064,3.1466 -2.47047,13.54684 -2.14292,4.64917 2.87188,-7.30901 -5.81146,-13.5208 -9.38888,-17.47687 0.71162,-0.78472 -4.86745,-6.68887 2.075,-7.707 6.95279,-5.28622 13.81493,2.77419 19.082,0.028 1.95086,-1.42731 4.24427,-3.15878 5.997,-4.405 z m 1.036,-0.47 c -0.52476,-0.5293 -1.37321,1.66023 0,0 z m -6.556,7.926 c -3.0464,2.71369 -2.56101,1.77699 0,0 z m 10.844,-6.346 c 3.87441,0.90546 -7.08756,7.6923 -9.26302,10.57111 -1.56238,1.84846 2.26302,7.46384 -0.23898,7.00321 -2.76015,1.21424 -1.92983,-10.13753 2.7605,-11.9167 2.32289,-1.4391 4.4492,-5.3637 6.7415,-5.65762 z m -19.642,4.074 c 3.58754,1.29882 1.11149,-0.41881 0,0 z m 5.801,-0.027 c -0.51768,0.53576 -0.22676,-0.0228 0,0 z m -7.987,12.805 c -1.0736,-2.0678 -0.61486,0.0672 0,0 z m -7.117,-3.326 c 0.65207,1.75381 0.39232,0.0155 0,0 z m -7.426,15.301 c -5.28534,-2.01503 -11.2991,-5.25813 -14.99,-6.153 3.61485,0.43948 -1.95808,10.05551 -0.841,2.771 -4.94526,-8.81037 9.69769,-0.67716 14.488,1.164 6.4793,3.73984 8.36587,11.88755 8.883,18.82332 -1.88111,5.46961 -7.55081,-3.12838 -11.096,-3.91032 -2.59774,-2.36402 -15.78649,-3.13186 -9.78,-5.434 -3.75431,-7.04925 1.38962,-13.29494 7.875,-6.985 5.40539,1.95335 3.29337,8.24099 3.30813,10.20475 3.63716,1.84729 8.72131,8.74263 6.10778,0.66917 1.45294,-3.85789 -1.16271,-7.43421 -3.95491,-11.14992 z m -45.028,-21.898 c 2.92737,2.37784 -0.99773,0.57257 -2.914,2.217 -1.63236,-2.6274 -1.61421,3.83249 -3.98,-1.94 -6.04012,-3.14035 1.4915,-6.29619 4.651,-1.606 -0.38741,-4.78442 -6.60429,-2.69001 -2.914,-4.768 -5.62062,-2.68247 -1.45167,-0.61659 -7.651,-1.024 -6.31975,-0.18827 -9.76705,7.5258 -13.083,8.953 3.57069,-4.69742 5.34773,-11.06623 13.10138,-10.75375 6.42149,-2.19075 10.89383,3.99132 12.78962,8.92175 z m 37.155,39.25 c -6.17995,-2.84392 -13.91392,-2.95021 -19.334,-5.987 7.83612,-0.38888 14.93494,2.08149 22.304,4.879 5.25653,0.85169 7.00283,5.69374 0.49423,2.18909 -1.16327,-0.33834 -2.17544,-1.24789 -3.46423,-1.08109 z m -13.562,4.712 c -7.9451,-0.21601 -15.95796,-3.20722 -23.85196,-2.06758 -4.86447,3.55123 -12.60204,1.871 -19.07504,4.28558 -3.95879,2.83509 -11.28367,2.81029 -13.002,3.604 0.20121,5.70225 11.36312,-2.72837 4.20888,2.99076 -5.25817,4.19943 -9.08101,-7.63154 -0.78351,-5.27876 10.06591,-4.59392 21.03801,-7.56258 31.87963,-9.244 8.40214,1.66622 17.17751,-0.36665 25.301,2.827 8.96344,0.20803 19.08634,2.12874 25.415,8.427 1.93469,0.45963 11.72294,4.18667 5.351,3.269 4.25521,2.90949 -9.32329,-0.43651 -9.948,-3.629 -8.21375,-3.93127 -13.21955,-2.53329 -21.77244,-4.37942 -1.24737,-0.23668 -2.48919,-0.50298 -3.72256,-0.80458 z m 13.282,0.498 c 1.87133,1.00014 0.62118,-0.14977 0,0 z m -25.471,-6.734 c 6.50887,0.11762 -3.44406,0.14276 0,0 z m 8.21,30.85 c -1.86868,5.11121 -3.24802,15.01672 -6.893,17.462 2.93271,-5.00795 -0.99268,-18.43773 6.893,-17.462 l 0,0 z m 2.523,-10.256 c -0.25839,-0.55227 -9.7316,-0.83843 -1.27464,-0.0951 l 1.27464,0.0951 z m -14.348,9.259 c 7.5712,1.98542 -0.38804,12.34003 0.506,17.684 -3.54562,-1.86533 -2.1661,-14.31134 -2.17225,-17.65713 l 1.66625,-0.0269 0,0 z m 1.458,2.05 c -0.99708,2.14937 1.46318,-1.00102 0,0 z m 12.777,0.445 c 1.08919,-3.85284 7.73755,1.93102 2.94291,3.322 -1.66006,2.68821 -4.1389,14.47327 -6.86591,11.092 1.15151,-4.62612 4.06475,-10.19962 3.923,-14.414 z m -0.085,1.496 c -0.18669,1.7491 -0.42491,-0.29828 0,0 z m 15.832,-8.703 c -12.53732,-3.1017 -25.50194,-5.09687 -38.442,-5.211 -3.05951,0.41226 -14.03989,-1.79489 -5.02591,-2.7921 11.48282,-1.59347 23.17682,2.85078 34.35844,2.20271 5.70328,1.15372 18.70435,9.42474 16.93554,11.63618 -2.12864,-2.5678 -4.53052,-4.87764 -7.82607,-5.83579 z m -0.055,15.91 c 6.81565,5.87226 2.54215,-6.31334 -0.28,-0.886 l 0.366,0.831 -0.086,0.055 0,0 z m -1.767,-2.328 c 6.22976,-5.5437 11.60604,7.43148 3.12275,7.18112 -2.69446,3.16127 -5.49909,4.15817 -2.02875,-0.69412 1.8363,-3.53051 -4.18979,4.94303 -3.616,0.39 1.90436,-2.04376 1.72697,-5.20348 2.522,-6.877 z m 6.417,1.69 c -0.51464,0.18531 1.0152,1.30085 0,0 z m 7.819,-40.248 c 0.05,0.1219 0.0926,-0.19991 0,0 z m 6.136,37.394 c -2.82536,-2.87328 -5.6337,2.35052 -8.126,-0.86012 -0.21956,-4.5546 12.08686,-5.65145 10.621,2.18912 5.14695,6.09526 12.41777,-11.15063 15.887,-5.876 -0.11343,7.21183 2.20194,13.52778 7.692,19.20925 0.6756,7.31068 -0.65714,15.38616 -3.27775,22.0235 -4.58266,-1.19351 -5.46456,0.72487 -9.68325,1.78825 -0.28634,7.36034 1.32936,14.54001 -0.141,21.871 5.40006,6.85354 7.06964,15.99061 7.37025,24.40537 -3.20733,-0.10133 -6.83043,-15.32889 -9.52625,-10.74237 1.43787,3.50874 1.61071,18.49707 -2.39634,8.54423 -0.44419,-6.7183 -4.94157,-9.07354 -5.50566,-1.44823 -0.74652,5.89487 -3.82139,9.99243 -5.91942,2.55292 -5.17757,-6.86926 2.0043,-13.29761 1.82742,-19.51792 -5.53915,2.3249 -5.85378,11.96415 -12.83,13.581 -7.04686,-2.24255 -6.65606,0.44492 -6.275,6.23732 2.75401,5.11113 15.08798,3.91315 20.97675,7.776 7.88069,1.72797 13.75039,8.92071 17.57725,15.08968 -7.01321,3.45514 -13.1152,5.01205 -20.4246,2.25678 -11.60176,-3.12177 -23.27582,-6.65482 -35.38574,-6.8295 -5.94471,-1.82284 -17.17297,-3.13756 -11.48178,-11.83478 -0.90641,-4.78631 -3.2124,-8.71526 -2.36888,-13.99145 -4.15619,-0.13985 -15.4995,-6.45666 -12.44,3.18195 8.18269,6.26334 0.61302,14.96518 -7.73296,12.807 -6.75361,0.17077 -13.23975,-0.70998 -19.95729,-0.69388 -7.50845,0.0107 -14.89884,-1.60147 -22.42544,-1.33928 -5.11203,-0.98378 -18.97137,-6.77937 -9.49175,-11.0045 5.62117,-4.02263 11.21298,-9.09548 18.60573,-8.02834 3.79658,-0.86761 7.9563,-0.90444 11.69471,-0.722 -0.30786,-6.73567 -15.71315,-6.68904 -15.244,-15.99432 2.97276,-5.83429 9.3151,6.02803 15.50187,6.57869 2.25886,1.79096 5.09223,-7.65341 6.77152,-0.61092 5.20419,2.75541 14.22717,6.21296 18.75061,3.09655 -3.91535,-0.26102 -14.92572,-5.00163 -13.04261,-6.46227 5.07251,5.70407 20.36831,0.53982 18.53361,10.23327 -0.0485,5.19135 10.31289,6.13296 11.15262,0.85975 8.59058,-4.17979 17.15506,-1.8921 25.78654,-0.0202 5.0035,0.0811 4.02553,0.75579 3.46784,5.28845 4.06273,-1.38004 3.26319,2.79145 6.73342,0.159 6.72794,-4.90053 8.60098,-15.05934 12.7097,-22.306 1.6638,-7.11669 3.85378,-14.51436 2.94088,-20.731 2.48868,-3.85738 3.22871,-0.80557 7.481,-4.933 6.57361,-4.82183 14.29317,13.75904 14.73945,0.62594 4.688,-9.60201 -4.70065,-15.70057 -6.94136,-23.86647 3.3312,-9.9317 -6.04609,1.56529 -10.42484,2.22745 -2.76946,1.69806 5.88695,15.89857 -3.36625,15.24608 -2.2318,-3.17122 -5.87884,-18.95214 -1.41812,-9.38254 -0.47237,4.4772 5.98858,8.10323 3.04635,2.0297 -2.18564,-3.95751 -2.32838,-8.56291 -4.04123,-12.66316 z m -5.435,-25.391 c 1.08067,-0.24031 -1.36141,-0.62739 0,0 z m 3.754,23.284 c -1.07566,-0.0712 0.78243,0.84641 0,0 z m -70.696,-80.662 c -1.28357,0.44468 -0.004,0.20288 0,0 z m -4.791,2.661 c -0.91912,0.28297 0.61083,0.48898 0,0 z m 13.505,-2.273 c 0.40643,0.10063 -0.55272,-0.10603 0,0 z m -16.867,21.787 c 0.51603,-5.17711 8.93063,-14.57985 6.42622,-4.64853 -0.79513,2.90693 -2.99528,9.29994 -3.90522,4.09653 -0.16983,1.08615 -2.76311,2.91851 -2.521,0.552 z m 22.977,-14.027 c 0.223,0.41082 0.15034,-0.0625 0,0 z m -15.692,23.895 c 1.13266,-2.85247 10.60013,-12.65387 9.14363,-8.91488 -5.33922,3.09874 7.18712,0.82657 5.98537,7.86188 -2.8466,3.74357 -11.96712,6.42057 -9.247,-1.775 0.0469,-5.50647 -4.3113,5.84792 -5.882,2.828 z m -34.072,31.987 c 6.45056,2.07314 9.57892,11.99638 15.046,2.96612 2.74179,-4.53004 11.11939,-3.39251 9.554,2.35588 -6.29576,-1.26897 -2.65995,7.64228 -7.56431,5.45625 -5.57974,3.50159 2.66435,2.60697 -2.46569,5.82475 -1.16366,6.77784 -6.26903,-0.98454 -7.173,-4.518 1.31573,-3.42301 -8.49705,-13.53035 -10.87457,-4.13179 -4.31864,5.68739 -10.2567,11.75209 -13.27943,17.38179 4.02733,0.0641 10.87389,-6.90001 16.7285,-3.93662 5.26198,0.628 8.43103,8.55872 4.9605,8.6366 2.30023,6.26234 -3.19516,4.18324 -7.67813,4.19777 -5.97295,1.47577 -4.43386,5.24113 0.89713,3.13325 4.49577,-0.41 5.10364,6.97547 1.247,1.60738 -5.85413,-3.6969 -11.58139,9.73401 -3.824,3.76962 4.26944,-1.75057 6.37627,8.05151 2.31212,1.99625 -5.89716,-2.37373 -11.80534,7.16384 -3.20912,3.49275 5.31769,-1.25143 6.74364,8.9026 2.256,1.89887 -6.12603,-4.62132 -13.65936,11.53273 -5.89831,4.42035 6.26587,-4.89742 8.30606,10.05223 3.92331,0.61078 -6.99123,-2.22337 -13.17204,14.77094 -5.87038,4.822 11.38897,-2.63416 9.76213,9.20645 7.13263,16.65887 -1.10173,5.70332 -8.63965,13.47217 -12.86125,13.49813 0.87085,-3.55203 9.41657,-10.85551 6.04135,-12.30207 -2.83103,3.52457 -15.33325,12.45338 -8.37102,2.82345 6.44192,-9.75963 -13.57994,10.55295 -9.33306,-0.0964 1.63415,-7.17446 11.60376,-10.95147 11.94373,-17.47603 0.49754,-8.50571 6.17707,-16.03423 6.038,-24.476 0.40655,-7.51773 -6.9535,-6.7665 -9.96,-10.341 2.94653,-9.51703 11.80129,-15.67032 15.97,-24.614 1.04949,-1.49897 2.27674,-3.47828 4.312,-3.659 z m -11.18,22.009 c 0.0744,-0.031 -0.0316,0.0767 0,0 z m -0.225,3.382 c -7.53191,3.30343 -1.47908,5.6847 3.531,3.243 4.42202,-2.43092 16.28834,2.30863 7.396,-2.8035 -3.56061,-0.58089 -7.33961,-1.10902 -10.927,-0.4395 z m 48.84,-37.919 c 0.93116,0.30108 0.15683,-0.56372 0,0 z m -16.812,15.078 c -3.44449,2.33689 -9.39539,5.42985 -11.095,9.48 1.72927,5.00441 15.30288,-8.4046 11.095,-9.48 l 0,0 z m 13.169,2.052 c -8.73654,-1.99031 12.65504,-8.57937 5.212,-1.607 -1.10917,-0.73981 -6.45424,4.48409 -5.212,1.607 z m 4.483,14.802 c -3.87885,-7.71529 11.37021,-10.06282 7.003,-1.525 -3.72309,-0.0647 3.39751,8.1701 -2.94,2.247 -1.60432,-0.024 -2.80496,0.36685 -4.063,-0.722 z m 5.519,-4.491 c -3.67868,-1.10347 -5.67253,6.17632 -0.9805,1.2845 l 0.9805,-1.2845 0,0 z m -4.117,17.519 c 7.42851,-1.25646 14.78488,6.00423 22.7384,6.39112 9.06233,2.38256 20.18417,1.29216 28.2586,0.0369 5.65973,1.58367 7.25772,12.1437 6.724,18.377 -0.93768,7.51928 -3.86409,16.90182 -9.247,21.204 -5.93078,3.25723 -12.98254,1.22005 -19.36125,2.47307 -9.87894,-0.42071 -19.60769,-2.05924 -28.36872,-6.64302 -7.97378,-2.80525 -17.29905,-8.25063 -12.68961,-17.97697 2.81212,-8.32334 4.00104,-19.23801 10.99376,-24.77372 2.46836,1.24221 -2.42497,6.41712 1.70682,1.57564 -0.8804,0.16245 -0.74083,-0.29769 -0.755,-0.664 z m 4.203,2.494 c -1.50262,5.31468 10.86503,7.79695 15.131,8.594 9.15825,3.12176 19.18407,3.13158 28.858,3.049 10.24881,-2.06669 -0.99949,-5.57424 -5.099,-2.855 -4.12301,-0.14723 -7.83559,1.2344 -12.028,0.50138 -7.43789,-0.91463 -15.87064,-1.65922 -22.00163,-7.055 -1.10171,-1.10827 -3.97277,-2.46555 -4.86037,-2.23438 z m -2.691,-0.887 c -0.82641,2.05002 4.33473,-0.0699 0.169,-0.527 l -0.169,0.527 z m -0.672,1.774 c -5.3136,3.61875 -8.06982,14.09264 -9.04463,21.05113 -3.61042,6.08967 2.88865,6.08424 1.9545,-0.35163 0.78605,-5.50517 3.37022,-10.51855 3.86813,-15.4325 0.88635,-1.86105 1.94682,-3.64485 3.222,-5.267 z m 3.194,8.15 c -4.92029,6.61015 -7.21085,14.56799 -6.22,22.784 2.34568,6.17952 12.792,7.07177 19.34012,9.3505 8.62776,1.48883 17.59283,1.51518 26.24788,0.2145 -1.12684,1.39603 6.30675,-1.3425 5.833,-5.875 0.80841,-5.53395 6.97762,-18.74881 -0.7,-19.182 -8.70061,1.1012 -17.38155,-1.43491 -26.22955,-2.63167 -6.00184,0.78812 -14.25832,-7.16508 -18.27145,-4.66033 z m -26.816,34.869 c -0.5298,-0.33333 0.87853,-0.69931 0,0 z m 24.463,-12.971 c 11.57047,4.30262 23.79691,8.60674 36.256,7.481 -0.66964,-4.23616 6.41292,1.42507 -0.0809,1.54713 -5.91979,-0.027 -12.94508,0.34881 -18.71921,-1.78558 C 676.2656,486.7155 668.5559,485.5153 664.57,481.223 z m 5.324,-2.939 c 7.48308,2.29492 15.10424,4.46069 22.94351,4.39404 4.2735,-0.94602 18.46529,1.17693 7.12718,2.50652 -8.78222,-0.08 -17.56155,-1.86458 -26.06569,-3.85256 -0.86396,-0.49383 -5.29051,-1.73582 -4.005,-3.048 z m -16.365,-5.072 c -1.70551,5.54274 0.48639,3.12659 0,0 l 0,0 z m 5.772,10.256 c 0.16625,-0.65044 -0.56091,-0.0167 0,0 z m -35.558,-36.035 c -3.28274,-3.92593 -12.10677,2.05894 -6.92288,2.52708 1.19882,-1.88686 7.64083,-1.48619 6.92288,-2.52708 z m -25.273,46.18 c 4.43269,-5.09887 21.12483,-8.80742 16.588,2.578 3.22829,-4.70118 6.40803,-16.6738 -0.22498,-18.74 -5.47577,1.93333 -9.8747,8.9997 -14.81975,13.94832 l -0.67627,0.96268 -0.867,1.251 0,0 z m 15.944,-14.386 c 0.51308,-0.21737 -0.0387,0.18127 0,0 z m -6.893,15.689 c 3.6245,-1.87169 5.16539,-6.77171 1.063,-2.051 0.83698,0.58716 -1.85385,1.50485 -1.063,2.051 z m 14.458,12.86 c 2.39892,1.95972 8.42858,3.36917 12.9824,2.81866 3.62272,-0.41296 16.32486,0.47709 6.16047,-2.50016 -4.34576,-2.33803 -9.72801,0.001 -14.63187,-0.3415 -1.50192,-0.0162 -3.01297,-0.12823 -4.511,0.023 z m -2.159,0.5 c -9.9105,-1.64782 6.18829,7.41023 4.83196,2.43871 -1.64512,-0.73869 -3.30712,-1.46728 -4.83196,-2.43871 z m -5.126,1.857 c -4.22096,2.40797 -10.72139,6.12017 -2.327,8.093 3.21193,4.09893 14.61934,-6.2067 6.42362,-6.61164 -1.08743,-0.88307 -3.19761,-0.60628 -4.09662,-1.48136 z m -1.038,11.365 c -3.41062,-2.60548 -13.31803,-7.11416 -4.904,-1.746 1.7091,0.4542 2.83067,2.71439 4.904,1.746 z m 10.733,-7.234 c -0.42395,0.20584 0.32796,0.0807 0,0 z m 0.98,0.499 c -5.02128,1.44257 -12.63881,8.76738 -2.84831,7.17939 1.96753,1.05107 8.24402,-8.65461 2.84831,-7.17939 z m 1.737,-0.998 c 1.09231,0.13545 3.74799,-0.31281 0,0 z m 0.757,8.425 c 1.79316,-0.19905 2.76403,0.21726 0,0 z m -9.332,-0.997 c 0.39487,0.0725 -0.73103,0.0785 0,0 z m 8.604,-7.539 c -0.0576,-0.16464 -2.62116,0.39497 0,0 z m 41.329,-10.81 c 0.44601,0.20039 -0.0383,-0.16622 0,0 z m -4.454,-0.334 c -7.20787,1.74831 -16.62093,-6.9126 -22.109,-4.019 6.03334,4.09999 15.74607,9.91731 22.39,4.519 l -0.058,-0.443 -0.223,-0.057 0,0 z m 2.549,0.195 c 1.08744,0.2014 -0.49757,-1.5767 0,0 z m -3.503,6.68 c 1.00633,-3.806 -9.79396,1.44182 -12.43038,-3.22148 -2.66957,-2.72674 -15.51996,-7.09198 -8.21835,-0.89624 5.23396,4.83155 13.05105,6.80232 19.5706,4.90784 l 1.07813,-0.79012 0,0 z m -3.195,3.437 c -7.87069,0.85431 -15.71007,-1.82654 -23.47075,0.29336 -6.49951,-1.2168 -13.78977,12.57237 -3.2658,9.90545 6.74936,1.0239 13.64577,0.0169 20.34755,1.27819 6.87495,2.18271 20.4777,-0.87923 11.069,-9.424 -2.70478,-1.25976 -0.26181,-3.93103 -4.68,-2.053 z m 0.393,1.22 c 9.9261,1.32997 1.77807,15.45169 -4.37,7.153 -1.00217,-3.17172 0.3325,-7.38967 4.37,-7.153 z m -3.138,4.712 c 2.34369,6.56697 6.31365,-0.3797 0.45,-1.107 l 0.448,1.302 -0.898,-0.195 0,0 z m 4.904,2.218 c 1.84951,-5.24687 -5.63572,-5.10393 0,0 l 0,0 z m -29.534,-13.196 c -0.19281,0.36406 -0.46215,-0.3108 0,0 z m 10.535,-0.636 c -2.59037,-0.66385 6.06033,2.3165 0,0 l 0,0 z m -11.067,4.684 c -0.5524,0.64899 1.31012,-0.35268 0,0 z M 748.91,465.645 c -4.71948,-6.64212 -14.72826,-2.90009 -15.973,3.935 2.59091,0.68193 12.74445,0.0501 15.354,-2.772 l 0.619,-1.163 0,0 z m -7.342,5.044 c 0.0763,-0.0846 -0.12344,-0.0701 0,0 z m -3.811,0.86 c -5.23547,1.699 -4.69032,6.9145 1.09205,3.71744 4.73095,2.83479 2.76744,-5.72175 -1.09205,-3.71744 z m -4.343,8.37 c -3.59288,5.16042 14.57343,-0.89792 5.744,-2.659 -2.10926,0.43209 -3.78639,2.03745 -5.744,2.659 z m -5.799,15.606 c -0.87116,1.03668 0.50528,0.40977 0,0 z m 2.129,-1.469 c 0.84728,2.57583 8.08737,-6.06193 11.656,-1.053 0.33259,-8.3231 -9.85067,-3.86512 -11.656,1.053 z m 11.208,-11.004 c -5.35318,-5.99064 -15.70275,10.14826 -4.763,3.88 4.39436,0.43976 7.75597,1.44539 4.763,-3.88 z m -7.173,12.39 c -0.49216,5.2709 -8.94345,10.9607 -1.233,12.556 -3.6489,-2.46405 -9.00093,2.64911 -2.52878,1.96831 4.81887,0.78599 -5.97075,2.06471 -2.43222,2.35669 1.71784,10.30174 4.51317,-0.57133 6.02388,-3.31325 1.38676,-7.31622 12.81776,-4.96141 13.89712,-0.34475 -0.41043,-5.80581 -7.54734,-17.24171 -13.727,-13.223 z m 15.524,-22.257 c -0.47203,1.10814 -0.70644,-0.67119 0,0 z m -5.857,-2.662 c -0.34976,-0.22528 -0.0553,0.43999 0,0 z m -42.619,-9.979 c 3.39224,0.17912 -1.32193,0.1371 0,0 z m 14.907,5.877 c -0.56722,2.90088 1.06333,-0.44991 0,0 z M 681.83,447.294 c 0.68459,0.0846 -0.0767,0.30989 0,0 z m -3.783,34.788 c 0.21155,0.45526 1.94431,0.0994 0,0 z m 34.381,-12.445 c 3.9411,5.60315 -7.181,2.94977 0,0 z m -15.103,27.718 c 3.36555,-0.68385 4.56447,-0.65996 0,0 z m 12.244,5.293 c 0.15654,-0.15205 0.14835,0.19433 0,0 z m 3.67,-10.088 c -0.63806,0.22157 0.74014,-0.95451 0,0 z m -6.135,-5.128 c -2.18386,-7.5812 8.83395,-0.40571 0,0 z m 4.875,-7.179 c 0.37538,-0.30653 0.22552,0.32457 0,0 z m -3.978,1.386 c -0.0375,-0.16616 0.52468,0.0762 0,0 z m 2.213,-5.295 c 6.20814,-0.30355 -3.18278,6.69564 0,0 l 0,0 z m -3.699,26.72 c -8.31066,1.10551 -16.01883,-2.96767 -24.012,0.97 1.83472,5.34584 10.64621,-1.10838 15.82795,0.471 2.3837,-0.67461 7.63671,1.36145 8.20768,-1.02566 L 706.515,503.064 z m -6.247,5.989 c -5.20482,-0.89121 -16.55952,-4.98506 -16.952,2.855 7.19545,-1.1504 14.15737,-1.44691 21.463,-1.579 1.07207,-3.50606 -3.09129,-0.45339 -4.511,-1.276 z m 4.931,5.321 c -8.13862,2.65799 -12.90015,-3.21867 -20.38855,-0.69608 -5.53236,4.36501 7.97563,2.38186 11.19635,2.03142 2.70605,-0.49562 7.52912,0.30708 9.1922,-1.33534 z m -8.632,3.382 c 0.13059,0.17994 0.46086,-0.13411 0,0 z m 0.169,2.855 c 8.46377,1.37684 4.57467,15.44939 -3.50575,10.758 -5.79575,-2.33 -3.03869,-13.99189 3.50575,-10.758 z m 6.809,2.716 c -3.52909,-6.81866 -15.09371,-4.20091 -18.03217,-1.78206 4.36028,5.33817 -6.96711,10.74239 1.52842,10.65131 8.38748,2.54132 17.49939,1.16795 25.86281,4.37868 5.40031,0.97286 14.53233,6.17541 9.98333,-2.58032 0.0144,-6.52226 -7.44519,-7.81845 -12.54201,-9.18567 -2.28059,-0.41158 -4.48513,-1.35456 -6.80038,-1.48194 z m 9.414,-0.471 c 5.36724,3.54246 18.22141,9.1656 20.23949,6.01094 -6.40983,-3.15458 -13.33925,-4.46069 -20.23949,-6.01094 z m -20.481,-19.181 c -0.12761,0.20331 -1.13764,0.0934 0,0 z m -0.281,22.674 c 2.68468,1.8146 6.29733,-6.48215 1.007,-1.774 l -0.75512,0.94212 -0.25188,0.83188 z m 4.035,3.493 c 5.43792,-0.31665 2.73009,-7.82214 -1.18025,-1.99687 -4.258,0.29202 0.14769,2.33475 1.18025,1.99687 z m 41.974,-21.732 c 1.09578,8.05832 3.88884,-4.26442 -0.589,-0.944 l 0.589,0.944 0,0 z m -10.928,-11.06 c -0.22721,-0.21681 -0.23238,0.56162 0,0 z m 2.353,11.199 c -0.4698,-0.011 0.21946,-0.71941 0,0 z m 2.579,27.303 c 2.36295,4.93367 3.62469,9.06716 9.749,5.599 9.45745,1.1222 1.71991,-5.48012 -1.7995,-7.03725 -2.3418,0.62666 -6.70449,0.39986 -7.9495,1.43825 z m 2.802,-2.993 c 11.00744,0.53667 -3.52364,-4.87171 -5.491,-0.445 1.72162,1.12389 8.26426,-0.6271 5.491,0.445 z m -9.918,1.247 c -1.99883,4.70099 7.74752,10.26864 8.53263,7.18775 -2.93942,-2.71768 -4.53409,-6.37778 -8.53263,-7.18775 z"
       id="path113"
       inkscape:connector-curvature="0" /></g><path
     fill-rule="evenodd"
     clip-rule="evenodd"
     fill="#670700"
     d="M368.222,137.733c0.535,0.133,0.846,0.289,0.936,0.467  c-0.178,0.178-0.779,0.201-1.805,0.067c-1.024-0.134-1.537-0.29-1.537-0.468c1.115,0,1.672-0.089,1.672-0.268L368.222,137.733z"
     id="path115" /><path
     style="fill:#242424;fill-rule:evenodd"
     d="m 581.18467,182.42944 c 14.91062,4.84728 16.1891,17.79156 10.32533,28.61819 3.06425,18.77961 2.43955,38.47225 -8.62242,54.64139 -7.09083,20.10639 -27.06666,31.4003 -44.98208,39.76473 -13.57384,0.3288 -25.91342,-2.66847 -25.2625,16.02225 -4.40749,14.17302 -24.04492,0.54368 -29.406,10.159 1.51994,9.34165 22.98604,9.60675 26.266,15.774 20.44088,1.68152 11.5454,25.30112 -4.62939,19.96672 -3.14119,4.56638 21.16416,8.76456 26.55755,16.33056 9.66342,11.05094 31.63313,19.33095 28.2485,36.4882 7.00163,11.77447 7.1107,38.53698 -0.18766,45.30452 0.45576,16.12627 -20.96102,29.72086 -21.251,47.988 -15.15976,7.7924 -10.99759,31.79853 8.80475,32.31325 22.385,18.66069 -26.38031,17.21307 -37.9112,12.11736 -17.94228,-18.55811 17.33268,-36.33952 8.85645,-53.51961 -3.47109,-16.76974 9.87919,-34.35939 14.503,-50.727 2.8445,-17.76122 2.1359,-36.72717 -17.1298,-46.12175 -10.73689,-7.35775 14.23818,18.7816 12.62655,27.4675 -0.34009,17.24029 -10.25803,30.55624 -12.33051,47.58474 -7.67106,19.61006 -23.75949,39.2856 -25.70424,54.51101 -12.05992,4.1643 22.42957,4.7443 13.8,19.3465 -5.78307,16.11378 -46.9691,2.48147 -34.686,-19.646 6.67548,-17.8549 -9.78515,12.96138 -22.44759,3.34073 -9.01579,1.03936 -5.71105,24.68334 -22.59741,22.58927 -8.73362,0.63713 -43.54646,8.94802 -32.11388,-9.4055 11.96722,-5.81376 33.55883,-7.82697 18.41788,-25.04561 -10.23383,-19.22167 -18.4604,-39.23663 -28.542,-58.31289 -12.25515,-10.26167 -17.23138,-32.18445 -6.97076,-49.20008 5.3069,-18.80423 30.54107,-29.96898 17.83076,-45.70392 12.7115,-5.3584 -1.12635,-24.5201 18.24025,-22.53492 10.13975,-1.32757 20.14182,-17.78168 3.16212,-8.5092 -13.51895,7.95955 -24.19397,0.2281 -28.75437,-13.10188 -14.38193,15.66242 -30.01971,31.52749 -49.77945,39.50128 -16.42139,7.50264 -35.50606,12.748 -52.37455,14.76772 -7.37646,10.70519 -28.14187,13.92054 -17.976,-3.176 -10.17805,-15.49835 -27.46121,-12.20511 -39.933,-15.637 6.86603,-20.89369 40.15164,-9.33934 57.043,-11.395 12.56118,-5.55188 31.77989,-12.90601 43.642,-24.295 14.33901,-9.32449 25.86275,-20.45466 23.9698,-39.32947 4.27088,-18.00611 4.11401,-33.36519 -3.1188,-45.28153 0.18725,-19.55802 39.68238,-21.57432 15.237,-40.167 5.02059,-7.01716 1.0564,-26.09839 -1.02127,-27.23516 -16.35513,3.56542 0.39503,-26.73802 -9.2583,-33.18131 -0.60396,-19.09245 -6.0787,-42.42658 4.53557,-58.94953 5.203,12.913033 -4.18121,34.14791 10.16,45.513 8.66108,-9.82599 19.91225,-43.364786 38.9143,-22.55687 13.21361,14.70899 16.73782,1.70882 7.4007,-7.45113 -4.82575,-12.945801 -12.49577,-16.439131 -15.05234,-28.827547 12.67903,8.478318 25.09819,21.535697 37.36386,32.731487 6.91365,14.08582 -2.96268,27.34252 0.61548,34.72406 12.30986,12.80887 13.90269,25.6863 14.704,41.505 4.39695,4.09246 11.2188,25.63457 19.247,10.528 11.75689,-1.58089 30.5043,-5.99893 36.69587,7.964 9.71254,13.73292 21.71733,26.00541 13.19613,43.098 -4.46398,15.45469 11.03804,31.44865 23.291,15.94 14.29173,-10.94649 22.3555,-29.37534 22.389,-46.916 -24.43126,-12.35578 -2.35689,-49.41655 15.99867,-30.37356 z M 576.198,209.866 c -13.96575,2.6597 7.91845,1.08751 0,0 z m 4.77637,-8.319 c 21.88995,5.45594 5.95422,-48.38615 6.30769,-61.9773 -1.27486,-10.20675 -10.41925,-7.77901 -7.81138,21.00402 -0.0518,10.09205 -7.34928,22.03675 -21.81712,17.14711 -9.89609,13.56916 5.72934,38.78723 23.32081,23.82617 z m -0.33037,5.746 c 2.30605,1.71437 0.71068,-1.43766 0,0 z m -12.465,8.656 c -10.91288,11.0648 30.08946,15.30134 13.768,-1.468 -4.64551,0.40848 -9.06097,1.97925 -13.768,1.468 z m -1.404,8.053 c -7.26478,12.88913 14.74768,13.95485 20.784,15.005 13.21599,-9.47905 -20.13555,-8.56694 -20.784,-15.005 z m -7.017,21.721 c 8.8951,0.57969 31.98974,14.11966 18.33425,-1.67287 -5.38608,-1.7283 -18.01231,-9.19052 -18.33425,1.67287 z m -65.463,-53.834 c -5.44663,-0.68277 6.24281,2.70945 0,0 z m -18.146,5.279 c 13.78945,-1.19147 11.87281,20.23686 25.02028,19.7875 26.40257,6.71407 -6.39525,-31.33256 -20.84316,-21.5255 -0.42301,-0.31463 -7.41236,0.17019 -4.17712,1.738 z m 2.139,8.087 c -17.4185,-2.37101 -33.22687,-0.80796 -50.658,2.54 -15.85489,2.66515 -27.37392,19.32838 -45.69005,12.89912 -9.6895,3.00756 -36.71685,21.42672 -28.02695,25.59588 13.64047,-3.56433 20.15315,10.82038 21.05665,25.18341 6.28096,22.01589 10.7164,44.41901 20.91635,65.07759 20.24616,-8.99068 41.63073,-16.67984 63.39195,-20.66777 12.96622,-1.82422 38.41238,-0.58626 45.17669,-4.5339 -9.09807,-13.04432 -16.67247,-27.39366 -21.32495,-47.36297 -0.67346,-19.48775 -12.53567,-25.3257 -20.74269,-38.98036 1.48698,-7.9312 16.89219,-12.4458 15.901,-19.751 z m 1.537,8.087 c -19.17388,1.54341 -6.99217,32.66115 2.40153,11.05123 11.56412,-2.98763 8.60927,-17.92156 -2.40153,-11.05123 z m 9.49,8.554 c -8.81507,4.08941 -19.7617,23.59787 -4.82323,13.73017 8.38045,-3.15415 10.49042,-19.78329 4.82323,-13.73017 z m 8.789,8.021 c -9.25596,6.08638 -16.98706,13.29453 -10.425,24.528 3.58407,-7.41677 16.2877,-18.81978 10.425,-24.528 z m -1.437,-6.082 c 9.29643,2.71902 29.0279,0.79109 9.57352,-1.38231 -2.70793,1.44521 -13.63634,-6.22473 -9.57352,1.38231 z m -15.974,18.245 c -0.13947,-0.0421 0.11008,0.3574 0,0 z m 20.82,4.277 c -0.73086,17.49104 26.37018,4.17205 7.218,-1.67 l -3.83213,0.65687 z m 4.41,-5.346 c 18.53893,1.8766 9.1963,-19.77475 -3.642,-7.218 -2.93524,4.80225 -3.06172,9.3371 3.642,7.218 z m 0.302,29.741 c -9.4229,-17.59482 -16.19524,35.80213 -4.27184,6.09028 2.40057,-2.2661 -0.21563,-7.63369 4.27184,-6.09028 z m 14.101,-6.015 c -1.47162,-16.11334 -22.72695,3.93214 -4.82563,3.43888 7.72353,-0.32767 7.77057,2.11201 4.82563,-3.43888 z m 0.368,7.685 c -12.00786,2.7871 -11.73237,27.10505 -15.172,23.25412 10.4487,6.76336 18.72748,8.08066 13.57764,-7.09967 1.28547,-5.46276 1.50104,-10.66183 1.59436,-16.15445 z m -23.158,-24.059 c -11.51439,5.94217 -6.34289,33.79899 1.137,11.027 2.37837,-2.14282 -3.38262,-7.85567 -1.137,-11.027 z m 6.784,37.359 c -0.51825,7.16773 0.43101,8.47693 0,0 z m 71.979,-21.22 c 3.75018,-18.19967 -37.94528,-15.42233 -17.0715,-3.20245 4.00678,0.6051 16.92495,11.67199 17.0715,3.20245 z m 2.573,-5.446 c -1.48967,4.00562 2.18773,-0.84628 0,0 z m -13.367,10.693 c -9.85981,-9.06819 -20.60124,-10.79625 -24.997,0.099 3.70462,12.01886 35.0036,18.76913 24.997,-0.099 z m -30.576,1.103 c -0.27382,0.11396 0.37492,0.16411 0,0 z m -2.037,8.855 c -5.74028,8.90099 4.30383,25.2009 10.224,14.771 27.02702,5.72441 -9.93172,-24.97466 -10.224,-14.771 z m -0.334,-5.814 c -1.84911,-1.81054 -2.26588,5.36531 0,0 z m -4.379,13.466 c 2.4333,2.88831 -0.63262,-14.04763 0,0 z m 57.376,-96.607 c 0.3556,-0.22052 0.0389,0.41881 0,0 z m -83.441,129.69 c -19.25926,-2.66837 -38.47573,0.14967 -57.22548,4.94054 -10.77482,0.84332 -46.74738,17.23701 -40.76804,15.04735 20.12585,-5.14345 40.34887,-9.93048 60.14252,-15.76814 11.45174,-4.98267 28.93247,3.63264 37.851,-4.21975 z m -10.86,23.359 c -8.34438,-1.73121 -37.21308,12.16232 -15.306,8.688 -21.79078,9.72396 18.31568,-3.48984 15.306,-8.688 z m -4.88,6.348 c -1.27803,1.47627 1.0258,-0.67971 0,0 z m 15.439,57.61 c -4.63348,-8.7856 -40.11837,-33.80345 -27.10643,-10.63578 8.64416,11.49786 25.86456,25.54165 36.33043,25.60878 -2.53769,-5.75896 -7.29347,-8.82082 -9.224,-14.973 z m 10.694,-17.81 c 5.20788,10.43018 27.62816,28.49754 35.824,22.322 -4.8887,-10.95948 -30.84977,-35.15049 -37.97925,-24.339 z m -34.888,-25.764 c 13.93572,-0.52727 25.54505,-7.73328 32.949,-0.101 15.7407,-6.12537 -5.73811,-10.71832 -3.10791,-14.83298 -10.41026,0.87066 -44.69876,9.04176 -38.90671,15.40973 2.87077,-1.47435 6.03671,-0.28768 9.06562,-0.47575 z m 12.364,55.672 c -14.2644,-16.28233 -32.71525,-29.76649 -44.42513,-3.4235 -12.12745,10.76483 0.59787,24.75772 -0.89242,36.93078 8.2658,18.25213 21.67145,36.97363 17.58155,55.91572 2.70198,26.32484 30.64185,4.40935 22.01724,-11.64663 1.57741,-20.43205 10.07718,-39.39725 11.24463,-59.63789 3.04023,-6.72831 -0.91043,-13.3777 -5.52587,-18.13848 z m -8.487,120.767 c -10.98832,12.62063 34.11287,13.18562 8.356,0.868 -2.34005,-0.39262 -6.16737,-3.16679 -8.356,-0.868 z m 29.474,-0.467 c 0.48564,12.64582 18.38456,12.58896 27.534,9.689 -4.23412,-4.94933 -26.52797,-17.97562 -27.534,-9.689 z m -4.111,-80.669 c -9.55262,-0.83122 -9.18412,30.45879 -10.67662,30.73922 7.70311,-13.63204 -0.96126,-5.50089 5.15766,-0.19558 8.0283,-3.27327 19.94264,-37.85063 5.51896,-30.54364 z m -3.91,3.142 c -0.81458,-0.90493 1.33183,-0.44452 0,0 z m 41.169,3.342 c -0.38569,-0.34481 0.95528,-0.15705 0,0 z m -7.418,2.74 c -9.8467,10.84124 -4.99474,29.94824 7.29828,15.34511 8.61966,-9.52356 10.51253,-31.325 -6.96528,-19.62211 z m 14.269,-24.495 c 4.82054,-8.28453 10.95362,-16.08362 -4.3265,-17.059 -5.76428,9.9889 -8.94852,30.38482 8.05925,24.99527 5.05078,-0.28269 1.43006,-19.66329 0.74725,-3.96027 l -2.68662,-2.55275 z m -51.294,1.236 c -5.44811,12.3968 28.44755,3.63493 17.14263,-0.9695 -15.51467,12.70357 -9.99901,-13.21789 3.32537,-6.90075 1.56117,-15.69527 -24.93923,-5.56848 -20.468,7.87025 z m -3.944,109.206 c -3.81785,0.0109 1.2967,0.62895 0,0 z m 17.644,0.268 c 2.05142,-0.29665 -4.98249,-0.51256 0,0 z M 426.559,102.933 c -6.11852,-4.497661 -28.97285,-25.75415 -13.1535,-8.428625 13.11121,6.701105 11.83564,27.846265 2.6615,29.613625 9.67437,-0.23195 27.79759,-4.62356 10.492,-21.185 z m 6.115,7.553 c 0.85822,5.83583 3.40186,8.05073 0,0 z m -42.272,2.74 c -5.07656,5.91443 -12.62258,2.06172 0,0 z m 5.281,-6.617 c -16.70103,-1.18415 -21.52767,19.66213 -27.03811,31.74244 -1.02383,4.98931 -8.08639,0.51675 -2.23489,5.41756 -10.1079,3.44776 0.74743,-13.09598 -9.022,-17.778 -4.59345,-18.1022 -3.2559,-21.35126 -3.43652,-2.85962 -0.68254,14.14134 1.59372,38.70217 19.41052,20.90562 18.80591,-5.41011 37.71225,-8.32484 57.075,-7.686 -3.95646,-3.84409 -34.84962,-14.83093 -16.708,-16.106 -7.22093,-2.73391 -11.77434,-9.44872 -18.046,-13.636 z m -2.942,21.788 c -8.2908,6.07834 -27.39165,5.79989 -8.47536,0.81056 2.52958,-0.2035 6.11808,-2.17093 8.47536,-0.81056 z m 1.07,18.58 c -5.13321,16.69898 -33.12323,13.69538 -35.488,22.122 1.10161,12.58037 21.98342,-13.66141 32.47652,-9.81584 11.19408,-2.31459 23.61972,-2.02394 34.05748,-0.60916 6.28873,-1.50766 29.68856,6.31214 7.96983,9.60356 -23.45804,6.2035 -46.21038,17.50611 -63.50783,34.20644 20.24822,-12.05031 42.86797,-19.31823 64.03701,-29.47295 24.54236,5.4486 3.71843,-17.40757 -1.41413,-28.8398 -5.51969,-7.97783 -21.98905,-0.74505 -30.90635,-1.19894 L 397.155,143.636 z m -2.407,-24.394 c -9.66055,6.61761 -19.9067,4.69634 -3.44088,-0.13388 L 390.737,122.048 z m -1.002,-4.679 c -6.77846,7.75426 -17.89315,2.82622 -2.25525,-0.301 l 1.92225,-0.234 z m -17.711,19.048 c 6.09097,-4.6529 27.22092,-5.44312 9.825,-0.267 -3.26478,0.20059 -6.54234,1.99492 -9.825,0.267 z m 16.776,8.153 c -15.09974,-2.78318 -13.26314,19.64126 -28.738,11.028 -3.23081,13.65988 26.23341,-5.24421 28.738,-11.028 z m -13.032,23.792 c -14.56629,2.50797 -2.63242,40.53318 0.802,15.239 0.69322,-5.22119 -1.57444,-10.1793 -0.802,-15.239 z m 2.707,2.674 c 4.91626,-6.95696 -5.62907,-3.20822 0,0 z m 2.439,-0.134 c -3.14827,13.50684 8.79938,16.98568 3.23694,2.37391 4.57914,-11.11487 -6.64399,-10.32122 -3.23694,-2.37391 z m 8.821,9.224 c 9.61456,-1.1525 2.36512,-28.69911 -2.406,-11.897 -0.0681,4.10571 1.52485,7.95938 2.406,11.897 z m 22.657,-17.11 c -0.0406,17.66345 13.02295,-6.46324 0,0 z m -6.951,-1.136 c -9.72016,1.31402 6.36669,18.64427 -0.067,1.404 z m -5.346,0.267 c -10.1252,-2.72131 2.29771,24.10437 0.601,7.619 -1.51301,-2.26796 -1.63738,-5.21035 -0.601,-7.619 z m 27.801,-39.632 c -17.74344,5.23527 7.73552,9.89234 0,0 z m -6.949,42.038 c 2.44269,8.45681 5.74325,-8.05667 0,0 z m 6.215,-1.269 c -2.39364,6.0473 12.78359,-2.96814 0,0 z m -73.917,-62.823 c 0.53347,-4.435635 -0.17692,-0.90714 0,0 z m 4.511,152.914 c -4.49588,4.02269 2.4209,11.53811 8.99,9.825 -3.02603,-6.40512 0.97589,-10.22378 -8.99,-9.825 z m 3.809,12.899 c -20.76644,2.43223 19.3971,5.49323 0,0 z m -5.546,7.452 c -10.09403,16.08622 29.22138,8.82689 8.987,-0.435 -3.0222,-0.40978 -6.03388,-0.24674 -8.987,0.435 z m -2.774,15.539 c -6.50614,9.91152 31.59936,1.68114 13.5,-3.275 -3.79114,0.88602 -15.27748,-5.22446 -13.5,3.275 z m -2.006,13.7 c -1.81038,9.44582 17.09929,-2.38357 20.45,4.744 13.42161,-17.22804 -19.87815,-15.88274 -20.45,-4.744 z m 2.006,2.94 c 0.99909,-2.35105 -0.2459,1.67339 0,0 z m -1.704,4.044 c -10.37614,7.38101 7.74176,4.19565 10.793,9.257 20.90331,-18.3216 -0.24743,-6.30573 -10.793,-9.257 z m 107.4,-101.854 c 0.88309,-0.52868 -0.49923,1.23016 0,0 z m -39.064,-21.153 c -15.10764,2.36515 -43.46681,13.61493 -46.349,20.653 23.33597,-8.54726 45.92474,-21.09284 71.111,-23.459 3.19567,-4.18916 -21.07717,2.88991 -24.762,2.806 z m 20.852,26.333 c 21.69248,4.61762 -9.41744,21.0211 -5.413,2.772 3.04502,-8.94896 -1.66947,0.65072 5.413,-2.772 z m 0.535,8.42 c 7.19875,-3.95939 -9.4415,-7.01544 -1.871,-0.133 z m -19.649,15.94 c -2.26682,-0.48535 -7.5454,-4.30144 0,0 z m -20.985,-37.326 c -8.47692,4.54341 -35.84773,7.20815 -13.535,13.467 7.73885,-8.23035 34.88059,-17.16926 33.5065,-18.14853 -6.70981,1.31769 -13.5858,2.09609 -19.9715,4.68153 z m -25.13,40.234 c 4.11097,10.3863 7.294,-9.35538 0,0 z m -1.805,-2.807 c 12.92897,-8.42871 13.26388,15.38733 -7.5e-4,6.132 l -0.66825,-1.32 z m 25.965,1.503 c 10.89099,3.66618 0.0426,-2.72857 12.88175,1.53812 18.10777,7.44072 33.72354,19.41129 34.11763,40.5685 4.19326,17.5527 -0.72761,8.35279 -3.01723,-2.26956 -3.02192,-5.98244 -2.32339,-16.08842 -7.65915,-19.51806 -0.7715,11.12335 22.37073,39.00847 2.28293,38.06164 -13.2472,-2.07968 -24.18355,7.17953 -34.23093,13.93436 -2.04166,-14.77393 22.27712,-18.44572 35.40334,-17.65582 9.42298,1.31618 -6.34364,-30.87743 -7.53534,-25.01718 -6.4355,10.26826 -8.28535,20.47984 6.617,14.903 -8.75281,0.92504 -32.72896,22.08558 -34.485,7.217 -11.37899,-15.12884 -11.2264,-30.97045 9.087,-35.822 10.70585,2.59647 16.84323,-2.18866 0.69409,-5.31134 -17.37818,-19.65617 -17.97286,8.5725 -26.89309,20.61634 5.72367,9.20413 17.30791,26.23307 13.499,35.022 -6.28616,-14.81871 -24.32113,-31.60552 -10.325,-45.781 0.43275,-3.18775 6.9282,-20.93927 9.563,-20.486 z m 10.526,19.716 c -4.26809,7.23829 8.80346,20.92266 2.528,3.35612 1.3943,-3.49653 -2.23014,-1.34705 -2.528,-3.35612 z m -10.159,8.655 c 8.5076,6.4278 15.24688,12.68752 6.73925,-1.218 -0.35825,-7.66047 -4.46346,0.37873 -6.73925,1.218 z m 4.211,11.429 c 3.89265,-0.70772 -13.21995,-5.50912 -2.4525,-0.26138 z m -8.421,-7.92 c 5.70004,5.1779 18.80558,9.10293 4.89475,0.0486 L 398.79,269.749 z m 20.953,4.612 c 0.0544,-2.34717 -1.19224,0.56005 0,0 z m -47.954,-15.974 c 0.57891,1.63999 -0.29421,-1.92681 0,0 z m 2.24,15.138 c 0.28553,2.0999 0.35623,-2.85873 0,0 z m 5.446,34.519 c 1.09711,-3.76712 -2.92498,-0.60102 0,0 z m -3.676,2.506 c -12.09578,14.36615 14.28398,22.65288 7.364,5.83025 -2.49811,-4.23442 -2.85009,-6.11437 -7.364,-5.83025 z m 44.578,-26.065 c 11.07867,-11.53955 -5.20778,0.0777 -7.69625,-2.87775 -5.41985,5.23122 5.67888,2.55641 7.69625,2.87775 z m -11.829,-3.074 c -12.29722,-2.68488 11.54828,17.52637 7.62124,6.415 -4.86485,1.19567 -7.67617,-0.84995 -7.62124,-6.415 z m 13.701,-22.356 c -0.95565,11.66732 4.8491,25.25661 3.29175,5.32962 0.0959,-17.2225 -1.20307,24.79962 -2.28875,0.71838 -1.65368,-0.88216 2.27598,-6.72549 -1.003,-6.048 z m 8.755,0.201 c -1.99023,10.37992 -4.94583,21.76082 1.002,4.645 -0.0953,-1.90642 6.58205,-7.69738 -1.002,-4.645 z m -0.334,31.011 c 8.08964,-4.88911 2.35373,1.30026 0,0 z m 30.542,10.994 c 9.22999,1.07629 -2.83317,-9.18228 0,0 z m -3.676,0.468 c -0.30151,-15.43704 24.80357,2.45402 5.54824,2.941 -2.47433,0.41762 -4.68912,-0.26409 -5.54824,-2.941 z m 9.423,-2.172 c -0.32487,0.79059 1.6657,-0.0292 0,0 z m -211.626,54.903 c -12.36004,-4.67535 -33.06897,15.55704 -12.45191,6.77505 9.76652,-3.98942 39.61791,-0.35655 30.46391,14.81295 -16.24002,10.52995 10.53512,15.3847 8.689,-2.538 -1.88166,-14.69866 -15.09211,-16.99739 -26.701,-19.05 z m 2.673,7.82 c -0.6379,0.8357 1.91874,0.20327 0,0 z m 198.962,-26.867 c -13.18045,2.00264 -20.15514,9.10151 -2.92848,3.77681 11.45326,0.1081 25.90226,-6.99579 2.92848,-3.77681 z m 8.455,9.957 c -10.20545,5.80502 -36.37561,3.47326 -37.963,12.699 10.96164,-8.00797 38.01474,-0.0979 37.963,-12.699 z m 6.081,-4.344 c -10.5459,-3.1944 -48.92975,13.14477 -21.39607,5.62104 7.01085,-2.34466 14.31953,-3.5277 21.39607,-5.62104 z m -9.222,-12.397 c -10.86703,-0.71037 -23.53053,9.239 -5.27681,1.23486 l 2.51611,-0.62521 z m -19.616,27.602 c -12.78355,-3.22753 -23.74788,14.82371 -6.516,10.594 5.66676,-2.61348 30.39672,-7.69056 12.81725,-9.99188 L 443.202,358.438 z m -21.185,4.277 c -2.75889,-10.48786 -30.76398,0.77839 -9.391,1.772 3.13664,-0.24172 6.69061,0.3559 9.391,-1.772 z M 429.3,373.44 c 6.9841,11.99162 16.50496,13.2022 17.34027,-3.21262 6.43759,-7.44484 -15.66968,4.08351 -17.34027,3.21262 z m -28.906,-54.267 c -7.65874,3.30003 -0.34957,6.90074 0,0 z m 4.579,1.068 c -2.14748,15.3222 -21.35215,-9.14955 -3.09025,-3.4065 -0.68214,8.22563 2.5198,-1.1995 3.09025,3.4065 z m -8.422,23.56 c -4.64266,-0.48935 0.58431,1.70196 0,0 z m 2.64,-1.772 c -1.23074,-0.11577 0.27043,2.79737 0,0 z m -32.949,-17.242 c -11.36431,3.4824 -17.18897,24.96763 -6.317,24.027 8.4367,-8.69892 22.58768,-13.05414 6.317,-24.027 z m 29.173,55.304 c 7.31302,-0.52211 37.35094,-17.57023 10.77625,-7.41775 -5.04872,-0.34761 -7.59379,3.86865 -10.77625,7.41775 z m -0.401,4.345 c -0.12267,-0.61659 1.23318,0.003 0,0 z m 0.066,1.602 c 5.01623,-3.92626 0.19198,0.70754 0,0 z m -21.653,53.467 c -11.66864,14.91935 26.63241,24.8796 13.501,2.90787 -3.77244,-2.72964 -8.92714,-4.11727 -13.501,-2.90787 z m 13.4,-15.037 c -0.73463,0.91224 -0.40217,-0.58713 0,0 z m 17.143,-26.132 c -10.49479,2.69876 -26.84182,25.26484 -24.127,27.202 1.77282,15.97306 26.77144,-6.24256 25.86375,-18.83838 3.28884,-2.74987 0.23525,-6.39227 -1.73675,-8.36362 z m 10.693,22.055 c 6.53896,21.43357 27.74582,-18.90442 28.06987,-28.47125 -15.43124,-0.99428 -19.92803,18.84655 -28.06987,28.47125 z m -2.907,4.98 c -18.387,12.05013 -8.59091,32.50971 1.10469,46.82892 12.75954,17.25491 -3.26156,44.88586 17.97531,57.46308 26.20342,-2.98311 3.31199,-31.75256 -0.523,-46.27212 -5.00243,-17.28288 -21.63827,-30.76993 -18.07011,-49.41521 2.59123,-2.6523 0.0693,-5.74092 -0.48689,-8.60467 z m 5.581,6.382 c -15.66621,14.52414 14.53485,27.17935 12.095,6.483 -1.62675,-4.88565 -4.53722,-13.18697 -12.095,-6.483 z m 34.017,-29.14 c -0.34198,-0.0755 -0.45544,1.02635 0,0 z m -30.309,2.206 c 1.03359,-1.18238 -0.5392,-0.16669 0,0 z m -60.05,-82.706 c -7.6424,-11.88984 -35.67994,2.10345 -13.232,7.184 2.59218,8.83427 11.37348,-3.14924 13.232,-7.184 z m -0.367,1.303 c 1.23719,-0.71334 -0.78113,-0.66074 0,0 z m -11.762,11.027 c -8.67371,-11.20747 -42.0102,1.9089 -18.85225,7.90287 7.02951,7.2865 12.30978,-5.53161 18.85225,-7.90287 z m -0.636,7.319 c -9.307,5.31325 -10.88434,11.8266 -6.148,20.117 11.81879,-0.7532 17.5864,-23.97174 6.148,-20.117 z m -16.507,3.509 c -8.68187,-9.47352 -42.59913,1.09669 -19.381,7.886 6.08212,2.06005 14.72054,-3.90701 19.381,-7.886 z m 3.074,5.847 c -10.29062,4.85016 -21.26651,6.55815 -14.436,19.416 9.16941,-5.72465 24.65005,-4.67284 14.436,-19.416 z m -7.485,-0.033 c -12.47286,5.50121 -8.93764,6.09683 0,0 z m -14.637,4.077 c -7.05256,-10.85727 -37.4417,-1.09432 -14.703,4.577 1.84662,5.15167 12.42016,-2.67166 14.703,-4.577 z m 4.679,15.171 c 1.83613,-21.36804 -29.84397,2.45555 -12.29477,4.74202 3.16863,-1.89072 11.99566,-0.10146 12.29477,-4.74202 z m -39.031,-9.524 c 3.06809,12.97535 30.988,0.19209 10.26275,-2.97225 -2.41431,-3.1736 -15.56604,-1.7173 -10.26275,2.97225 z m -12.398,-1.203 c -1.01871,-0.23511 1.25334,-0.0575 0,0 z m 14.804,17.744 c -0.10085,-0.79856 -0.0239,0.72603 0,0 z m 4.377,-5.179 c -0.1838,16.9636 25.9857,-4.70867 6.51737,-3.906 l -4.21237,0.865 z m 0.669,9.523 c 9.0339,0.77415 -0.57267,-3.605 0,0 z m 151.779,81.17 c -14.14478,-12.99846 -10.49661,2.68553 -5.582,12.34713 3.55627,10.57008 27.2935,28.83208 11.96033,6.86253 -2.42142,-6.30402 -4.34989,-12.77372 -6.37833,-19.20966 z m 3.442,-6.718 c 2.07526,4.32767 1.06149,0.004 0,0 z m 1.87,48.589 c 2.02078,10.74256 17.15717,23.97572 7.90275,4.29427 -2.10625,-7.88017 -0.90157,-6.13032 -7.90275,-4.29427 z m 9.691,2.873 c -0.18991,3.11326 0.77926,4.66159 0,0 z m -51.661,-43.709 c -4.43255,-6.54763 0.54785,2.44953 0,0 z m 1.069,12.832 c -0.1725,-16.8176 -21.48468,-12.84496 -9.89213,1.31925 0.67224,9.89999 17.48931,31.33622 15.261,11.8165 -1.71426,-4.40839 -3.37173,-8.84421 -5.36887,-13.13575 z m 6.115,-2.206 c -0.84382,1.35455 2.15517,1.32058 0,0 z m -1.17,7.419 c -1.94092,-5.28857 -3.38255,-7.29334 0,0 z m -1.036,30.945 c -0.14902,11.57227 24.34063,33.84433 10.04598,11.32314 -1.82667,-5.59722 -8.4794,-5.68908 -10.04598,-11.32314 z m -4.845,41.704 c 6.89369,6.88285 30.56834,-3.24418 10.75991,-3.31242 -2.94895,1.27341 -10.35796,-1.63319 -10.75991,3.31242 z m 6.884,-15.439 c -2.05968,1.99933 -2.23681,-7.96856 0,0 z m 47.853,-22.457 c 3.27361,11.1856 6.46254,6.20463 0,0 z m -4.345,15.44 c 9.67958,-8.32238 -22.35452,-2.67575 -2.55613,0.13238 z"
     id="path117"
     inkscape:connector-curvature="0"
     sodipodi:nodetypes="cccccccccccccccccccccccccccccccccccccccccccccccccccccccccccccccccccccccccccccccccccccccccccccccccccccccccccccccccccccccccccccccccccccccccccccccccccccccccccccccccccccccccccccccccccccccccccccccccccccccccccccccccccccccccccccccccccccccccccccccccccccccccccccccccccccccccccccccccccccccccccccccccccccccccccccccccccccccccccccccccccccccccccccccccccccccccccccccccccccccccccccccccccccccccccccccccccccccccccccccccccccccccccccccccccccccccccccccccccccccccccccccccccccccccccccccccccccccccccccccccccccccccccccccccccccccccccccccccccccccccccccccccccccc" /></svg>